<svg width="484" height="262" viewBox="0 0 484 262" fill="none" xmlns="http://www.w3.org/2000/svg">
<rect x="0.581055" width="482.581" height="262" rx="30" fill="url(#paint0_linear_37_198)"/>
<circle cx="87.5811" cy="98" r="52" fill="#CF6251"/>
<path d="M171.841 68.04C173.308 68.04 174.594 68.3267 175.701 68.9C176.821 69.4733 177.681 70.2933 178.281 71.36C178.894 72.4133 179.201 73.64 179.201 75.04C179.201 76.44 178.894 77.6667 178.281 78.72C177.681 79.76 176.821 80.5667 175.701 81.14C174.594 81.7133 173.308 82 171.841 82H166.961V68.04H171.841ZM171.741 79.62C173.208 79.62 174.341 79.22 175.141 78.42C175.941 77.62 176.341 76.4933 176.341 75.04C176.341 73.5867 175.941 72.4533 175.141 71.64C174.341 70.8133 173.208 70.4 171.741 70.4H169.761V79.62H171.741ZM185.877 82.18C184.81 82.18 183.85 81.9467 182.997 81.48C182.144 81 181.47 80.3267 180.977 79.46C180.497 78.5933 180.257 77.5933 180.257 76.46C180.257 75.3267 180.504 74.3267 180.997 73.46C181.504 72.5933 182.19 71.9267 183.057 71.46C183.924 70.98 184.89 70.74 185.957 70.74C187.024 70.74 187.99 70.98 188.857 71.46C189.724 71.9267 190.404 72.5933 190.897 73.46C191.404 74.3267 191.657 75.3267 191.657 76.46C191.657 77.5933 191.397 78.5933 190.877 79.46C190.37 80.3267 189.677 81 188.797 81.48C187.93 81.9467 186.957 82.18 185.877 82.18ZM185.877 79.74C186.384 79.74 186.857 79.62 187.297 79.38C187.75 79.1267 188.11 78.7533 188.377 78.26C188.644 77.7667 188.777 77.1667 188.777 76.46C188.777 75.4067 188.497 74.6 187.937 74.04C187.39 73.4667 186.717 73.18 185.917 73.18C185.117 73.18 184.444 73.4667 183.897 74.04C183.364 74.6 183.097 75.4067 183.097 76.46C183.097 77.5133 183.357 78.3267 183.877 78.9C184.41 79.46 185.077 79.74 185.877 79.74ZM197.711 70.74C198.538 70.74 199.264 70.9067 199.891 71.24C200.518 71.56 201.011 71.98 201.371 72.5V70.92H204.191V82.08C204.191 83.1067 203.984 84.02 203.571 84.82C203.158 85.6333 202.538 86.2733 201.711 86.74C200.884 87.22 199.884 87.46 198.711 87.46C197.138 87.46 195.844 87.0933 194.831 86.36C193.831 85.6267 193.264 84.6267 193.131 83.36H195.911C196.058 83.8667 196.371 84.2667 196.851 84.56C197.344 84.8667 197.938 85.02 198.631 85.02C199.444 85.02 200.104 84.7733 200.611 84.28C201.118 83.8 201.371 83.0667 201.371 82.08V80.36C201.011 80.88 200.511 81.3133 199.871 81.66C199.244 82.0067 198.524 82.18 197.711 82.18C196.778 82.18 195.924 81.94 195.151 81.46C194.378 80.98 193.764 80.3067 193.311 79.44C192.871 78.56 192.651 77.5533 192.651 76.42C192.651 75.3 192.871 74.3067 193.311 73.44C193.764 72.5733 194.371 71.9067 195.131 71.44C195.904 70.9733 196.764 70.74 197.711 70.74ZM201.371 76.46C201.371 75.78 201.238 75.2 200.971 74.72C200.704 74.2267 200.344 73.8533 199.891 73.6C199.438 73.3333 198.951 73.2 198.431 73.2C197.911 73.2 197.431 73.3267 196.991 73.58C196.551 73.8333 196.191 74.2067 195.911 74.7C195.644 75.18 195.511 75.7533 195.511 76.42C195.511 77.0867 195.644 77.6733 195.911 78.18C196.191 78.6733 196.551 79.0533 196.991 79.32C197.444 79.5867 197.924 79.72 198.431 79.72C198.951 79.72 199.438 79.5933 199.891 79.34C200.344 79.0733 200.704 78.7 200.971 78.22C201.238 77.7267 201.371 77.14 201.371 76.46ZM213.811 72.52C214.171 72.0133 214.665 71.5933 215.291 71.26C215.931 70.9133 216.658 70.74 217.471 70.74C218.418 70.74 219.271 70.9733 220.031 71.44C220.805 71.9067 221.411 72.5733 221.851 73.44C222.305 74.2933 222.531 75.2867 222.531 76.42C222.531 77.5533 222.305 78.56 221.851 79.44C221.411 80.3067 220.805 80.98 220.031 81.46C219.271 81.94 218.418 82.18 217.471 82.18C216.658 82.18 215.938 82.0133 215.311 81.68C214.698 81.3467 214.198 80.9267 213.811 80.42V87.28H211.011V70.92H213.811V72.52ZM219.671 76.42C219.671 75.7533 219.531 75.18 219.251 74.7C218.985 74.2067 218.625 73.8333 218.171 73.58C217.731 73.3267 217.251 73.2 216.731 73.2C216.225 73.2 215.745 73.3333 215.291 73.6C214.851 73.8533 214.491 74.2267 214.211 74.72C213.945 75.2133 213.811 75.7933 213.811 76.46C213.811 77.1267 213.945 77.7067 214.211 78.2C214.491 78.6933 214.851 79.0733 215.291 79.34C215.745 79.5933 216.225 79.72 216.731 79.72C217.251 79.72 217.731 79.5867 218.171 79.32C218.625 79.0533 218.985 78.6733 219.251 78.18C219.531 77.6867 219.671 77.1 219.671 76.42ZM234.526 76.22C234.526 76.62 234.499 76.98 234.446 77.3H226.346C226.413 78.1 226.693 78.7267 227.186 79.18C227.679 79.6333 228.286 79.86 229.006 79.86C230.046 79.86 230.786 79.4133 231.226 78.52H234.246C233.926 79.5867 233.313 80.4667 232.406 81.16C231.499 81.84 230.386 82.18 229.066 82.18C227.999 82.18 227.039 81.9467 226.186 81.48C225.346 81 224.686 80.3267 224.206 79.46C223.739 78.5933 223.506 77.5933 223.506 76.46C223.506 75.3133 223.739 74.3067 224.206 73.44C224.673 72.5733 225.326 71.9067 226.166 71.44C227.006 70.9733 227.973 70.74 229.066 70.74C230.119 70.74 231.059 70.9667 231.886 71.42C232.726 71.8733 233.373 72.52 233.826 73.36C234.293 74.1867 234.526 75.14 234.526 76.22ZM231.626 75.42C231.613 74.7 231.353 74.1267 230.846 73.7C230.339 73.26 229.719 73.04 228.986 73.04C228.293 73.04 227.706 73.2533 227.226 73.68C226.759 74.0933 226.473 74.6733 226.366 75.42H231.626ZM239.49 73.22V78.58C239.49 78.9533 239.576 79.2267 239.75 79.4C239.936 79.56 240.243 79.64 240.67 79.64H241.97V82H240.21C237.85 82 236.67 80.8533 236.67 78.56V73.22H235.35V70.92H236.67V68.18H239.49V70.92H241.97V73.22H239.49ZM252.689 79.42L255.489 70.92H258.469L254.369 82H250.969L246.889 70.92H249.889L252.689 79.42ZM261.122 69.6C260.629 69.6 260.215 69.4467 259.882 69.14C259.562 68.82 259.402 68.4267 259.402 67.96C259.402 67.4933 259.562 67.1067 259.882 66.8C260.215 66.48 260.629 66.32 261.122 66.32C261.615 66.32 262.022 66.48 262.342 66.8C262.675 67.1067 262.842 67.4933 262.842 67.96C262.842 68.4267 262.675 68.82 262.342 69.14C262.022 69.4467 261.615 69.6 261.122 69.6ZM262.502 70.92V82H259.702V70.92H262.502ZM269.168 82.18C268.262 82.18 267.448 82.02 266.728 81.7C266.008 81.3667 265.435 80.92 265.008 80.36C264.595 79.8 264.368 79.18 264.328 78.5H267.148C267.202 78.9267 267.408 79.28 267.768 79.56C268.142 79.84 268.602 79.98 269.148 79.98C269.682 79.98 270.095 79.8733 270.388 79.66C270.695 79.4467 270.848 79.1733 270.848 78.84C270.848 78.48 270.662 78.2133 270.288 78.04C269.928 77.8533 269.348 77.6533 268.548 77.44C267.722 77.24 267.042 77.0333 266.508 76.82C265.988 76.6067 265.535 76.28 265.148 75.84C264.775 75.4 264.588 74.8067 264.588 74.06C264.588 73.4467 264.762 72.8867 265.108 72.38C265.468 71.8733 265.975 71.4733 266.628 71.18C267.295 70.8867 268.075 70.74 268.968 70.74C270.288 70.74 271.342 71.0733 272.128 71.74C272.915 72.3933 273.348 73.28 273.428 74.4H270.748C270.708 73.96 270.522 73.6133 270.188 73.36C269.868 73.0933 269.435 72.96 268.888 72.96C268.382 72.96 267.988 73.0533 267.708 73.24C267.442 73.4267 267.308 73.6867 267.308 74.02C267.308 74.3933 267.495 74.68 267.868 74.88C268.242 75.0667 268.822 75.26 269.608 75.46C270.408 75.66 271.068 75.8667 271.588 76.08C272.108 76.2933 272.555 76.6267 272.928 77.08C273.315 77.52 273.515 78.1067 273.528 78.84C273.528 79.48 273.348 80.0533 272.988 80.56C272.642 81.0667 272.135 81.4667 271.468 81.76C270.815 82.04 270.048 82.18 269.168 82.18ZM276.907 69.6C276.413 69.6 276 69.4467 275.667 69.14C275.347 68.82 275.187 68.4267 275.187 67.96C275.187 67.4933 275.347 67.1067 275.667 66.8C276 66.48 276.413 66.32 276.907 66.32C277.4 66.32 277.807 66.48 278.127 66.8C278.46 67.1067 278.627 67.4933 278.627 67.96C278.627 68.4267 278.46 68.82 278.127 69.14C277.807 69.4467 277.4 69.6 276.907 69.6ZM278.287 70.92V82H275.487V70.92H278.287ZM283.973 73.22V78.58C283.973 78.9533 284.06 79.2267 284.233 79.4C284.42 79.56 284.726 79.64 285.153 79.64H286.453V82H284.693C282.333 82 281.153 80.8533 281.153 78.56V73.22H279.833V70.92H281.153V68.18H283.973V70.92H286.453V73.22H283.973Z" fill="white"/>
<path d="M178.923 108.242L176.095 118H174.667L172.399 110.146L170.047 118L168.633 118.014L165.903 108.242H167.261L169.389 116.516L171.741 108.242H173.169L175.409 116.488L177.551 108.242H178.923ZM187.233 113.87C187.233 114.113 187.219 114.369 187.191 114.64H181.059C181.106 115.396 181.363 115.989 181.829 116.418C182.305 116.838 182.879 117.048 183.551 117.048C184.102 117.048 184.559 116.922 184.923 116.67C185.297 116.409 185.558 116.063 185.707 115.634H187.079C186.874 116.371 186.463 116.973 185.847 117.44C185.231 117.897 184.466 118.126 183.551 118.126C182.823 118.126 182.17 117.963 181.591 117.636C181.022 117.309 180.574 116.847 180.247 116.25C179.921 115.643 179.757 114.943 179.757 114.15C179.757 113.357 179.916 112.661 180.233 112.064C180.551 111.467 180.994 111.009 181.563 110.692C182.142 110.365 182.805 110.202 183.551 110.202C184.279 110.202 184.923 110.361 185.483 110.678C186.043 110.995 186.473 111.434 186.771 111.994C187.079 112.545 187.233 113.17 187.233 113.87ZM185.917 113.604C185.917 113.119 185.81 112.703 185.595 112.358C185.381 112.003 185.087 111.737 184.713 111.56C184.349 111.373 183.943 111.28 183.495 111.28C182.851 111.28 182.301 111.485 181.843 111.896C181.395 112.307 181.139 112.876 181.073 113.604H185.917ZM192.003 114.136C192.003 113.352 192.162 112.666 192.479 112.078C192.797 111.481 193.231 111.019 193.781 110.692C194.341 110.365 194.962 110.202 195.643 110.202C196.315 110.202 196.899 110.347 197.393 110.636C197.888 110.925 198.257 111.289 198.499 111.728V110.328H199.787V118H198.499V116.572C198.247 117.02 197.869 117.393 197.365 117.692C196.871 117.981 196.292 118.126 195.629 118.126C194.948 118.126 194.332 117.958 193.781 117.622C193.231 117.286 192.797 116.815 192.479 116.208C192.162 115.601 192.003 114.911 192.003 114.136ZM198.499 114.15C198.499 113.571 198.383 113.067 198.149 112.638C197.916 112.209 197.599 111.882 197.197 111.658C196.805 111.425 196.371 111.308 195.895 111.308C195.419 111.308 194.985 111.42 194.593 111.644C194.201 111.868 193.889 112.195 193.655 112.624C193.422 113.053 193.305 113.557 193.305 114.136C193.305 114.724 193.422 115.237 193.655 115.676C193.889 116.105 194.201 116.437 194.593 116.67C194.985 116.894 195.419 117.006 195.895 117.006C196.371 117.006 196.805 116.894 197.197 116.67C197.599 116.437 197.916 116.105 198.149 115.676C198.383 115.237 198.499 114.729 198.499 114.15ZM201.38 114.136C201.38 113.352 201.539 112.666 201.856 112.078C202.174 111.481 202.608 111.019 203.158 110.692C203.718 110.365 204.344 110.202 205.034 110.202C205.632 110.202 206.187 110.342 206.7 110.622C207.214 110.893 207.606 111.252 207.876 111.7V107.64H209.164V118H207.876V116.558C207.624 117.015 207.251 117.393 206.756 117.692C206.262 117.981 205.683 118.126 205.02 118.126C204.339 118.126 203.718 117.958 203.158 117.622C202.608 117.286 202.174 116.815 201.856 116.208C201.539 115.601 201.38 114.911 201.38 114.136ZM207.876 114.15C207.876 113.571 207.76 113.067 207.526 112.638C207.293 112.209 206.976 111.882 206.574 111.658C206.182 111.425 205.748 111.308 205.272 111.308C204.796 111.308 204.362 111.42 203.97 111.644C203.578 111.868 203.266 112.195 203.032 112.624C202.799 113.053 202.682 113.557 202.682 114.136C202.682 114.724 202.799 115.237 203.032 115.676C203.266 116.105 203.578 116.437 203.97 116.67C204.362 116.894 204.796 117.006 205.272 117.006C205.748 117.006 206.182 116.894 206.574 116.67C206.976 116.437 207.293 116.105 207.526 115.676C207.76 115.237 207.876 114.729 207.876 114.15ZM214.579 118.126C213.861 118.126 213.207 117.963 212.619 117.636C212.041 117.309 211.583 116.847 211.247 116.25C210.921 115.643 210.757 114.943 210.757 114.15C210.757 113.366 210.925 112.675 211.261 112.078C211.607 111.471 212.073 111.009 212.661 110.692C213.249 110.365 213.907 110.202 214.635 110.202C215.363 110.202 216.021 110.365 216.609 110.692C217.197 111.009 217.659 111.467 217.995 112.064C218.341 112.661 218.513 113.357 218.513 114.15C218.513 114.943 218.336 115.643 217.981 116.25C217.636 116.847 217.165 117.309 216.567 117.636C215.97 117.963 215.307 118.126 214.579 118.126ZM214.579 117.006C215.037 117.006 215.466 116.899 215.867 116.684C216.269 116.469 216.591 116.147 216.833 115.718C217.085 115.289 217.211 114.766 217.211 114.15C217.211 113.534 217.09 113.011 216.847 112.582C216.605 112.153 216.287 111.835 215.895 111.63C215.503 111.415 215.079 111.308 214.621 111.308C214.155 111.308 213.725 111.415 213.333 111.63C212.951 111.835 212.643 112.153 212.409 112.582C212.176 113.011 212.059 113.534 212.059 114.15C212.059 114.775 212.171 115.303 212.395 115.732C212.629 116.161 212.937 116.483 213.319 116.698C213.702 116.903 214.122 117.006 214.579 117.006ZM221.378 111.742C221.63 111.303 222.004 110.939 222.498 110.65C223.002 110.351 223.586 110.202 224.248 110.202C224.93 110.202 225.546 110.365 226.096 110.692C226.656 111.019 227.095 111.481 227.412 112.078C227.73 112.666 227.888 113.352 227.888 114.136C227.888 114.911 227.73 115.601 227.412 116.208C227.095 116.815 226.656 117.286 226.096 117.622C225.546 117.958 224.93 118.126 224.248 118.126C223.595 118.126 223.016 117.981 222.512 117.692C222.018 117.393 221.64 117.025 221.378 116.586V121.64H220.104V110.328H221.378V111.742ZM226.586 114.136C226.586 113.557 226.47 113.053 226.236 112.624C226.003 112.195 225.686 111.868 225.284 111.644C224.892 111.42 224.458 111.308 223.982 111.308C223.516 111.308 223.082 111.425 222.68 111.658C222.288 111.882 221.971 112.213 221.728 112.652C221.495 113.081 221.378 113.581 221.378 114.15C221.378 114.729 221.495 115.237 221.728 115.676C221.971 116.105 222.288 116.437 222.68 116.67C223.082 116.894 223.516 117.006 223.982 117.006C224.458 117.006 224.892 116.894 225.284 116.67C225.686 116.437 226.003 116.105 226.236 115.676C226.47 115.237 226.586 114.724 226.586 114.136ZM231.035 111.378V115.9C231.035 116.273 231.115 116.539 231.273 116.698C231.432 116.847 231.707 116.922 232.099 116.922H233.037V118H231.889C231.18 118 230.648 117.837 230.293 117.51C229.939 117.183 229.761 116.647 229.761 115.9V111.378H228.767V110.328H229.761V108.396H231.035V110.328H233.037V111.378H231.035ZM241.497 113.87C241.497 114.113 241.483 114.369 241.455 114.64H235.323C235.369 115.396 235.626 115.989 236.093 116.418C236.569 116.838 237.143 117.048 237.815 117.048C238.365 117.048 238.823 116.922 239.187 116.67C239.56 116.409 239.821 116.063 239.971 115.634H241.343C241.137 116.371 240.727 116.973 240.111 117.44C239.495 117.897 238.729 118.126 237.815 118.126C237.087 118.126 236.433 117.963 235.855 117.636C235.285 117.309 234.837 116.847 234.511 116.25C234.184 115.643 234.021 114.943 234.021 114.15C234.021 113.357 234.179 112.661 234.497 112.064C234.814 111.467 235.257 111.009 235.827 110.692C236.405 110.365 237.068 110.202 237.815 110.202C238.543 110.202 239.187 110.361 239.747 110.678C240.307 110.995 240.736 111.434 241.035 111.994C241.343 112.545 241.497 113.17 241.497 113.87ZM240.181 113.604C240.181 113.119 240.073 112.703 239.859 112.358C239.644 112.003 239.35 111.737 238.977 111.56C238.613 111.373 238.207 111.28 237.759 111.28C237.115 111.28 236.564 111.485 236.107 111.896C235.659 112.307 235.402 112.876 235.337 113.604H240.181ZM242.618 114.136C242.618 113.352 242.777 112.666 243.094 112.078C243.412 111.481 243.846 111.019 244.396 110.692C244.956 110.365 245.582 110.202 246.272 110.202C246.87 110.202 247.425 110.342 247.938 110.622C248.452 110.893 248.844 111.252 249.114 111.7V107.64H250.402V118H249.114V116.558C248.862 117.015 248.489 117.393 247.994 117.692C247.5 117.981 246.921 118.126 246.258 118.126C245.577 118.126 244.956 117.958 244.396 117.622C243.846 117.286 243.412 116.815 243.094 116.208C242.777 115.601 242.618 114.911 242.618 114.136ZM249.114 114.15C249.114 113.571 248.998 113.067 248.764 112.638C248.531 112.209 248.214 111.882 247.812 111.658C247.42 111.425 246.986 111.308 246.51 111.308C246.034 111.308 245.6 111.42 245.208 111.644C244.816 111.868 244.504 112.195 244.27 112.624C244.037 113.053 243.92 113.557 243.92 114.136C243.92 114.724 244.037 115.237 244.27 115.676C244.504 116.105 244.816 116.437 245.208 116.67C245.6 116.894 246.034 117.006 246.51 117.006C246.986 117.006 247.42 116.894 247.812 116.67C248.214 116.437 248.531 116.105 248.764 115.676C248.998 115.237 249.114 114.729 249.114 114.15ZM259.466 118.126C258.747 118.126 258.094 117.963 257.506 117.636C256.927 117.309 256.47 116.847 256.134 116.25C255.807 115.643 255.644 114.943 255.644 114.15C255.644 113.366 255.812 112.675 256.148 112.078C256.493 111.471 256.96 111.009 257.548 110.692C258.136 110.365 258.794 110.202 259.522 110.202C260.25 110.202 260.908 110.365 261.496 110.692C262.084 111.009 262.546 111.467 262.882 112.064C263.227 112.661 263.4 113.357 263.4 114.15C263.4 114.943 263.222 115.643 262.868 116.25C262.522 116.847 262.051 117.309 261.454 117.636C260.856 117.963 260.194 118.126 259.466 118.126ZM259.466 117.006C259.923 117.006 260.352 116.899 260.754 116.684C261.155 116.469 261.477 116.147 261.72 115.718C261.972 115.289 262.098 114.766 262.098 114.15C262.098 113.534 261.976 113.011 261.734 112.582C261.491 112.153 261.174 111.835 260.782 111.63C260.39 111.415 259.965 111.308 259.508 111.308C259.041 111.308 258.612 111.415 258.22 111.63C257.837 111.835 257.529 112.153 257.296 112.582C257.062 113.011 256.946 113.534 256.946 114.15C256.946 114.775 257.058 115.303 257.282 115.732C257.515 116.161 257.823 116.483 258.206 116.698C258.588 116.903 259.008 117.006 259.466 117.006ZM271.795 110.328V118H270.521V116.866C270.278 117.258 269.938 117.566 269.499 117.79C269.07 118.005 268.594 118.112 268.071 118.112C267.474 118.112 266.937 117.991 266.461 117.748C265.985 117.496 265.607 117.123 265.327 116.628C265.056 116.133 264.921 115.531 264.921 114.822V110.328H266.181V114.654C266.181 115.41 266.372 115.993 266.755 116.404C267.138 116.805 267.66 117.006 268.323 117.006C269.004 117.006 269.541 116.796 269.933 116.376C270.325 115.956 270.521 115.345 270.521 114.542V110.328H271.795ZM275.136 111.574C275.36 111.135 275.677 110.795 276.088 110.552C276.508 110.309 277.017 110.188 277.614 110.188V111.504H277.278C275.85 111.504 275.136 112.279 275.136 113.828V118H273.862V110.328H275.136V111.574ZM283.923 111.742C284.175 111.303 284.548 110.939 285.043 110.65C285.547 110.351 286.13 110.202 286.793 110.202C287.474 110.202 288.09 110.365 288.641 110.692C289.201 111.019 289.64 111.481 289.957 112.078C290.274 112.666 290.433 113.352 290.433 114.136C290.433 114.911 290.274 115.601 289.957 116.208C289.64 116.815 289.201 117.286 288.641 117.622C288.09 117.958 287.474 118.126 286.793 118.126C286.14 118.126 285.561 117.981 285.057 117.692C284.562 117.393 284.184 117.025 283.923 116.586V121.64H282.649V110.328H283.923V111.742ZM289.131 114.136C289.131 113.557 289.014 113.053 288.781 112.624C288.548 112.195 288.23 111.868 287.829 111.644C287.437 111.42 287.003 111.308 286.527 111.308C286.06 111.308 285.626 111.425 285.225 111.658C284.833 111.882 284.516 112.213 284.273 112.652C284.04 113.081 283.923 113.581 283.923 114.15C283.923 114.729 284.04 115.237 284.273 115.676C284.516 116.105 284.833 116.437 285.225 116.67C285.626 116.894 286.06 117.006 286.527 117.006C287.003 117.006 287.437 116.894 287.829 116.67C288.23 116.437 288.548 116.105 288.781 115.676C289.014 115.237 289.131 114.724 289.131 114.136ZM298.83 110.328V118H297.556V116.866C297.313 117.258 296.973 117.566 296.534 117.79C296.105 118.005 295.629 118.112 295.106 118.112C294.509 118.112 293.972 117.991 293.496 117.748C293.02 117.496 292.642 117.123 292.362 116.628C292.091 116.133 291.956 115.531 291.956 114.822V110.328H293.216V114.654C293.216 115.41 293.407 115.993 293.79 116.404C294.173 116.805 294.695 117.006 295.358 117.006C296.039 117.006 296.576 116.796 296.968 116.376C297.36 115.956 297.556 115.345 297.556 114.542V110.328H298.83ZM302.171 111.742C302.423 111.303 302.796 110.939 303.291 110.65C303.795 110.351 304.378 110.202 305.041 110.202C305.722 110.202 306.338 110.365 306.889 110.692C307.449 111.019 307.888 111.481 308.205 112.078C308.522 112.666 308.681 113.352 308.681 114.136C308.681 114.911 308.522 115.601 308.205 116.208C307.888 116.815 307.449 117.286 306.889 117.622C306.338 117.958 305.722 118.126 305.041 118.126C304.388 118.126 303.809 117.981 303.305 117.692C302.81 117.393 302.432 117.025 302.171 116.586V121.64H300.897V110.328H302.171V111.742ZM307.379 114.136C307.379 113.557 307.262 113.053 307.029 112.624C306.796 112.195 306.478 111.868 306.077 111.644C305.685 111.42 305.251 111.308 304.775 111.308C304.308 111.308 303.874 111.425 303.473 111.658C303.081 111.882 302.764 112.213 302.521 112.652C302.288 113.081 302.171 113.581 302.171 114.15C302.171 114.729 302.288 115.237 302.521 115.676C302.764 116.105 303.081 116.437 303.473 116.67C303.874 116.894 304.308 117.006 304.775 117.006C305.251 117.006 305.685 116.894 306.077 116.67C306.478 116.437 306.796 116.105 307.029 115.676C307.262 115.237 307.379 114.724 307.379 114.136ZM311.548 111.742C311.8 111.303 312.173 110.939 312.668 110.65C313.172 110.351 313.755 110.202 314.418 110.202C315.099 110.202 315.715 110.365 316.266 110.692C316.826 111.019 317.265 111.481 317.582 112.078C317.899 112.666 318.058 113.352 318.058 114.136C318.058 114.911 317.899 115.601 317.582 116.208C317.265 116.815 316.826 117.286 316.266 117.622C315.715 117.958 315.099 118.126 314.418 118.126C313.765 118.126 313.186 117.981 312.682 117.692C312.187 117.393 311.809 117.025 311.548 116.586V121.64H310.274V110.328H311.548V111.742ZM316.756 114.136C316.756 113.557 316.639 113.053 316.406 112.624C316.173 112.195 315.855 111.868 315.454 111.644C315.062 111.42 314.628 111.308 314.152 111.308C313.685 111.308 313.251 111.425 312.85 111.658C312.458 111.882 312.141 112.213 311.898 112.652C311.665 113.081 311.548 113.581 311.548 114.15C311.548 114.729 311.665 115.237 311.898 115.676C312.141 116.105 312.458 116.437 312.85 116.67C313.251 116.894 313.685 117.006 314.152 117.006C314.628 117.006 315.062 116.894 315.454 116.67C315.855 116.437 316.173 116.105 316.406 115.676C316.639 115.237 316.756 114.724 316.756 114.136ZM326.259 110.328L321.639 121.612H320.323L321.835 117.916L318.741 110.328H320.155L322.563 116.544L324.943 110.328H326.259ZM327.862 118.084C327.619 118.084 327.414 118 327.246 117.832C327.078 117.664 326.994 117.459 326.994 117.216C326.994 116.973 327.078 116.768 327.246 116.6C327.414 116.432 327.619 116.348 327.862 116.348C328.095 116.348 328.291 116.432 328.45 116.6C328.618 116.768 328.702 116.973 328.702 117.216C328.702 117.459 328.618 117.664 328.45 117.832C328.291 118 328.095 118.084 327.862 118.084ZM339.727 115.83H335.471L334.687 118H333.343L336.871 108.298H338.341L341.855 118H340.511L339.727 115.83ZM339.363 114.794L337.599 109.866L335.835 114.794H339.363ZM344.583 107.64V118H343.309V107.64H344.583ZM348.224 111.378V115.9C348.224 116.273 348.304 116.539 348.462 116.698C348.621 116.847 348.896 116.922 349.288 116.922H350.226V118H349.078C348.369 118 347.837 117.837 347.482 117.51C347.128 117.183 346.95 116.647 346.95 115.9V111.378H345.956V110.328H346.95V108.396H348.224V110.328H350.226V111.378H348.224ZM355.494 110.188C356.073 110.188 356.595 110.314 357.062 110.566C357.529 110.809 357.893 111.177 358.154 111.672C358.425 112.167 358.56 112.769 358.56 113.478V118H357.3V113.66C357.3 112.895 357.109 112.311 356.726 111.91C356.343 111.499 355.821 111.294 355.158 111.294C354.486 111.294 353.949 111.504 353.548 111.924C353.156 112.344 352.96 112.955 352.96 113.758V118H351.686V107.64H352.96V111.42C353.212 111.028 353.557 110.725 353.996 110.51C354.444 110.295 354.943 110.188 355.494 110.188ZM363.903 118.126C363.184 118.126 362.531 117.963 361.943 117.636C361.364 117.309 360.907 116.847 360.571 116.25C360.244 115.643 360.081 114.943 360.081 114.15C360.081 113.366 360.249 112.675 360.585 112.078C360.93 111.471 361.397 111.009 361.985 110.692C362.573 110.365 363.231 110.202 363.959 110.202C364.687 110.202 365.345 110.365 365.933 110.692C366.521 111.009 366.983 111.467 367.319 112.064C367.664 112.661 367.837 113.357 367.837 114.15C367.837 114.943 367.66 115.643 367.305 116.25C366.96 116.847 366.488 117.309 365.891 117.636C365.294 117.963 364.631 118.126 363.903 118.126ZM363.903 117.006C364.36 117.006 364.79 116.899 365.191 116.684C365.592 116.469 365.914 116.147 366.157 115.718C366.409 115.289 366.535 114.766 366.535 114.15C366.535 113.534 366.414 113.011 366.171 112.582C365.928 112.153 365.611 111.835 365.219 111.63C364.827 111.415 364.402 111.308 363.945 111.308C363.478 111.308 363.049 111.415 362.657 111.63C362.274 111.835 361.966 112.153 361.733 112.582C361.5 113.011 361.383 113.534 361.383 114.15C361.383 114.775 361.495 115.303 361.719 115.732C361.952 116.161 362.26 116.483 362.643 116.698C363.026 116.903 363.446 117.006 363.903 117.006ZM376.232 110.328V118H374.958V116.866C374.715 117.258 374.375 117.566 373.936 117.79C373.507 118.005 373.031 118.112 372.508 118.112C371.911 118.112 371.374 117.991 370.898 117.748C370.422 117.496 370.044 117.123 369.764 116.628C369.493 116.133 369.358 115.531 369.358 114.822V110.328H370.618V114.654C370.618 115.41 370.809 115.993 371.192 116.404C371.575 116.805 372.097 117.006 372.76 117.006C373.441 117.006 373.978 116.796 374.37 116.376C374.762 115.956 374.958 115.345 374.958 114.542V110.328H376.232ZM381.463 110.202C382.126 110.202 382.705 110.347 383.199 110.636C383.703 110.925 384.077 111.289 384.319 111.728V110.328H385.607V118.168C385.607 118.868 385.458 119.489 385.159 120.03C384.861 120.581 384.431 121.01 383.871 121.318C383.321 121.626 382.677 121.78 381.939 121.78C380.931 121.78 380.091 121.542 379.419 121.066C378.747 120.59 378.351 119.941 378.229 119.12H379.489C379.629 119.587 379.919 119.96 380.357 120.24C380.796 120.529 381.323 120.674 381.939 120.674C382.639 120.674 383.209 120.455 383.647 120.016C384.095 119.577 384.319 118.961 384.319 118.168V116.558C384.067 117.006 383.694 117.379 383.199 117.678C382.705 117.977 382.126 118.126 381.463 118.126C380.782 118.126 380.161 117.958 379.601 117.622C379.051 117.286 378.617 116.815 378.299 116.208C377.982 115.601 377.823 114.911 377.823 114.136C377.823 113.352 377.982 112.666 378.299 112.078C378.617 111.481 379.051 111.019 379.601 110.692C380.161 110.365 380.782 110.202 381.463 110.202ZM384.319 114.15C384.319 113.571 384.203 113.067 383.969 112.638C383.736 112.209 383.419 111.882 383.017 111.658C382.625 111.425 382.191 111.308 381.715 111.308C381.239 111.308 380.805 111.42 380.413 111.644C380.021 111.868 379.709 112.195 379.475 112.624C379.242 113.053 379.125 113.557 379.125 114.136C379.125 114.724 379.242 115.237 379.475 115.676C379.709 116.105 380.021 116.437 380.413 116.67C380.805 116.894 381.239 117.006 381.715 117.006C382.191 117.006 382.625 116.894 383.017 116.67C383.419 116.437 383.736 116.105 383.969 115.676C384.203 115.237 384.319 114.729 384.319 114.15ZM391.484 110.188C392.063 110.188 392.586 110.314 393.052 110.566C393.519 110.809 393.883 111.177 394.144 111.672C394.415 112.167 394.55 112.769 394.55 113.478V118H393.29V113.66C393.29 112.895 393.099 112.311 392.716 111.91C392.334 111.499 391.811 111.294 391.148 111.294C390.476 111.294 389.94 111.504 389.538 111.924C389.146 112.344 388.95 112.955 388.95 113.758V118H387.676V107.64H388.95V111.42C389.202 111.028 389.548 110.725 389.986 110.51C390.434 110.295 390.934 110.188 391.484 110.188ZM398.101 111.378V115.9C398.101 116.273 398.181 116.539 398.339 116.698C398.498 116.847 398.773 116.922 399.165 116.922H400.103V118H398.955C398.246 118 397.714 117.837 397.359 117.51C397.005 117.183 396.827 116.647 396.827 115.9V111.378H395.833V110.328H396.827V108.396H398.101V110.328H400.103V111.378H398.101ZM406.485 108.242V118H405.211V108.242H406.485ZM422.441 110.328L420.047 118H418.731L416.883 111.91L415.035 118H413.719L411.311 110.328H412.613L414.377 116.768L416.281 110.328H417.583L419.445 116.782L421.181 110.328H422.441ZM423.145 114.136C423.145 113.352 423.304 112.666 423.621 112.078C423.939 111.481 424.373 111.019 424.923 110.692C425.483 110.365 426.104 110.202 426.785 110.202C427.457 110.202 428.041 110.347 428.535 110.636C429.03 110.925 429.399 111.289 429.641 111.728V110.328H430.929V118H429.641V116.572C429.389 117.02 429.011 117.393 428.507 117.692C428.013 117.981 427.434 118.126 426.771 118.126C426.09 118.126 425.474 117.958 424.923 117.622C424.373 117.286 423.939 116.815 423.621 116.208C423.304 115.601 423.145 114.911 423.145 114.136ZM429.641 114.15C429.641 113.571 429.525 113.067 429.291 112.638C429.058 112.209 428.741 111.882 428.339 111.658C427.947 111.425 427.513 111.308 427.037 111.308C426.561 111.308 426.127 111.42 425.735 111.644C425.343 111.868 425.031 112.195 424.797 112.624C424.564 113.053 424.447 113.557 424.447 114.136C424.447 114.724 424.564 115.237 424.797 115.676C425.031 116.105 425.343 116.437 425.735 116.67C426.127 116.894 426.561 117.006 427.037 117.006C427.513 117.006 427.947 116.894 428.339 116.67C428.741 116.437 429.058 116.105 429.291 115.676C429.525 115.237 429.641 114.729 429.641 114.15ZM435.714 118.126C435.126 118.126 434.599 118.028 434.132 117.832C433.666 117.627 433.297 117.347 433.026 116.992C432.756 116.628 432.606 116.213 432.578 115.746H433.894C433.932 116.129 434.109 116.441 434.426 116.684C434.753 116.927 435.178 117.048 435.7 117.048C436.186 117.048 436.568 116.941 436.848 116.726C437.128 116.511 437.268 116.241 437.268 115.914C437.268 115.578 437.119 115.331 436.82 115.172C436.522 115.004 436.06 114.841 435.434 114.682C434.865 114.533 434.398 114.383 434.034 114.234C433.68 114.075 433.372 113.847 433.11 113.548C432.858 113.24 432.732 112.839 432.732 112.344C432.732 111.952 432.849 111.593 433.082 111.266C433.316 110.939 433.647 110.683 434.076 110.496C434.506 110.3 434.996 110.202 435.546 110.202C436.396 110.202 437.082 110.417 437.604 110.846C438.127 111.275 438.407 111.863 438.444 112.61H437.17C437.142 112.209 436.979 111.887 436.68 111.644C436.391 111.401 435.999 111.28 435.504 111.28C435.047 111.28 434.683 111.378 434.412 111.574C434.142 111.77 434.006 112.027 434.006 112.344C434.006 112.596 434.086 112.806 434.244 112.974C434.412 113.133 434.618 113.263 434.86 113.366C435.112 113.459 435.458 113.567 435.896 113.688C436.447 113.837 436.895 113.987 437.24 114.136C437.586 114.276 437.88 114.491 438.122 114.78C438.374 115.069 438.505 115.447 438.514 115.914C438.514 116.334 438.398 116.712 438.164 117.048C437.931 117.384 437.6 117.65 437.17 117.846C436.75 118.033 436.265 118.126 435.714 118.126ZM169.375 138.126C168.787 138.126 168.26 138.028 167.793 137.832C167.326 137.627 166.958 137.347 166.687 136.992C166.416 136.628 166.267 136.213 166.239 135.746H167.555C167.592 136.129 167.77 136.441 168.087 136.684C168.414 136.927 168.838 137.048 169.361 137.048C169.846 137.048 170.229 136.941 170.509 136.726C170.789 136.511 170.929 136.241 170.929 135.914C170.929 135.578 170.78 135.331 170.481 135.172C170.182 135.004 169.72 134.841 169.095 134.682C168.526 134.533 168.059 134.383 167.695 134.234C167.34 134.075 167.032 133.847 166.771 133.548C166.519 133.24 166.393 132.839 166.393 132.344C166.393 131.952 166.51 131.593 166.743 131.266C166.976 130.939 167.308 130.683 167.737 130.496C168.166 130.3 168.656 130.202 169.207 130.202C170.056 130.202 170.742 130.417 171.265 130.846C171.788 131.275 172.068 131.863 172.105 132.61H170.831C170.803 132.209 170.64 131.887 170.341 131.644C170.052 131.401 169.66 131.28 169.165 131.28C168.708 131.28 168.344 131.378 168.073 131.574C167.802 131.77 167.667 132.027 167.667 132.344C167.667 132.596 167.746 132.806 167.905 132.974C168.073 133.133 168.278 133.263 168.521 133.366C168.773 133.459 169.118 133.567 169.557 133.688C170.108 133.837 170.556 133.987 170.901 134.136C171.246 134.276 171.54 134.491 171.783 134.78C172.035 135.069 172.166 135.447 172.175 135.914C172.175 136.334 172.058 136.712 171.825 137.048C171.592 137.384 171.26 137.65 170.831 137.846C170.411 138.033 169.926 138.126 169.375 138.126ZM178.174 138L175.164 134.612V138H173.89V127.64H175.164V133.73L178.118 130.328H179.896L176.284 134.15L179.91 138H178.174ZM188.011 133.87C188.011 134.113 187.997 134.369 187.969 134.64H181.837C181.883 135.396 182.14 135.989 182.607 136.418C183.083 136.838 183.657 137.048 184.329 137.048C184.879 137.048 185.337 136.922 185.701 136.67C186.074 136.409 186.335 136.063 186.485 135.634H187.857C187.651 136.371 187.241 136.973 186.625 137.44C186.009 137.897 185.243 138.126 184.329 138.126C183.601 138.126 182.947 137.963 182.369 137.636C181.799 137.309 181.351 136.847 181.025 136.25C180.698 135.643 180.535 134.943 180.535 134.15C180.535 133.357 180.693 132.661 181.011 132.064C181.328 131.467 181.771 131.009 182.341 130.692C182.919 130.365 183.582 130.202 184.329 130.202C185.057 130.202 185.701 130.361 186.261 130.678C186.821 130.995 187.25 131.434 187.549 131.994C187.857 132.545 188.011 133.17 188.011 133.87ZM186.695 133.604C186.695 133.119 186.587 132.703 186.373 132.358C186.158 132.003 185.864 131.737 185.491 131.56C185.127 131.373 184.721 131.28 184.273 131.28C183.629 131.28 183.078 131.485 182.621 131.896C182.173 132.307 181.916 132.876 181.851 133.604H186.695ZM190.882 131.742C191.134 131.303 191.508 130.939 192.002 130.65C192.506 130.351 193.09 130.202 193.752 130.202C194.434 130.202 195.05 130.365 195.6 130.692C196.16 131.019 196.599 131.481 196.916 132.078C197.234 132.666 197.392 133.352 197.392 134.136C197.392 134.911 197.234 135.601 196.916 136.208C196.599 136.815 196.16 137.286 195.6 137.622C195.05 137.958 194.434 138.126 193.752 138.126C193.099 138.126 192.52 137.981 192.016 137.692C191.522 137.393 191.144 137.025 190.882 136.586V141.64H189.608V130.328H190.882V131.742ZM196.09 134.136C196.09 133.557 195.974 133.053 195.74 132.624C195.507 132.195 195.19 131.868 194.788 131.644C194.396 131.42 193.962 131.308 193.486 131.308C193.02 131.308 192.586 131.425 192.184 131.658C191.792 131.882 191.475 132.213 191.232 132.652C190.999 133.081 190.882 133.581 190.882 134.15C190.882 134.729 190.999 135.237 191.232 135.676C191.475 136.105 191.792 136.437 192.184 136.67C192.586 136.894 193.02 137.006 193.486 137.006C193.962 137.006 194.396 136.894 194.788 136.67C195.19 136.437 195.507 136.105 195.74 135.676C195.974 135.237 196.09 134.724 196.09 134.136ZM200.539 131.378V135.9C200.539 136.273 200.618 136.539 200.777 136.698C200.936 136.847 201.211 136.922 201.603 136.922H202.541V138H201.393C200.684 138 200.152 137.837 199.797 137.51C199.442 137.183 199.265 136.647 199.265 135.9V131.378H198.271V130.328H199.265V128.396H200.539V130.328H202.541V131.378H200.539ZM204.659 129.082C204.416 129.082 204.211 128.998 204.043 128.83C203.875 128.662 203.791 128.457 203.791 128.214C203.791 127.971 203.875 127.766 204.043 127.598C204.211 127.43 204.416 127.346 204.659 127.346C204.892 127.346 205.088 127.43 205.247 127.598C205.415 127.766 205.499 127.971 205.499 128.214C205.499 128.457 205.415 128.662 205.247 128.83C205.088 128.998 204.892 129.082 204.659 129.082ZM205.275 130.328V138H204.001V130.328H205.275ZM206.886 134.15C206.886 133.357 207.045 132.666 207.362 132.078C207.679 131.481 208.118 131.019 208.678 130.692C209.247 130.365 209.896 130.202 210.624 130.202C211.567 130.202 212.341 130.431 212.948 130.888C213.564 131.345 213.97 131.98 214.166 132.792H212.794C212.663 132.325 212.407 131.957 212.024 131.686C211.651 131.415 211.184 131.28 210.624 131.28C209.896 131.28 209.308 131.532 208.86 132.036C208.412 132.531 208.188 133.235 208.188 134.15C208.188 135.074 208.412 135.788 208.86 136.292C209.308 136.796 209.896 137.048 210.624 137.048C211.184 137.048 211.651 136.917 212.024 136.656C212.397 136.395 212.654 136.021 212.794 135.536H214.166C213.961 136.32 213.55 136.95 212.934 137.426C212.318 137.893 211.548 138.126 210.624 138.126C209.896 138.126 209.247 137.963 208.678 137.636C208.118 137.309 207.679 136.847 207.362 136.25C207.045 135.653 206.886 134.953 206.886 134.15ZM215.306 134.136C215.306 133.352 215.465 132.666 215.782 132.078C216.099 131.481 216.533 131.019 217.084 130.692C217.644 130.365 218.265 130.202 218.946 130.202C219.618 130.202 220.201 130.347 220.696 130.636C221.191 130.925 221.559 131.289 221.802 131.728V130.328H223.09V138H221.802V136.572C221.55 137.02 221.172 137.393 220.668 137.692C220.173 137.981 219.595 138.126 218.932 138.126C218.251 138.126 217.635 137.958 217.084 137.622C216.533 137.286 216.099 136.815 215.782 136.208C215.465 135.601 215.306 134.911 215.306 134.136ZM221.802 134.15C221.802 133.571 221.685 133.067 221.452 132.638C221.219 132.209 220.901 131.882 220.5 131.658C220.108 131.425 219.674 131.308 219.198 131.308C218.722 131.308 218.288 131.42 217.896 131.644C217.504 131.868 217.191 132.195 216.958 132.624C216.725 133.053 216.608 133.557 216.608 134.136C216.608 134.724 216.725 135.237 216.958 135.676C217.191 136.105 217.504 136.437 217.896 136.67C218.288 136.894 218.722 137.006 219.198 137.006C219.674 137.006 220.108 136.894 220.5 136.67C220.901 136.437 221.219 136.105 221.452 135.676C221.685 135.237 221.802 134.729 221.802 134.15ZM226.433 127.64V138H225.159V127.64H226.433ZM229.836 136.236L228.268 140.002H227.414L228.436 136.236H229.836ZM241.86 133.87C241.86 134.113 241.846 134.369 241.818 134.64H235.686C235.733 135.396 235.989 135.989 236.456 136.418C236.932 136.838 237.506 137.048 238.178 137.048C238.729 137.048 239.186 136.922 239.55 136.67C239.923 136.409 240.185 136.063 240.334 135.634H241.706C241.501 136.371 241.09 136.973 240.474 137.44C239.858 137.897 239.093 138.126 238.178 138.126C237.45 138.126 236.797 137.963 236.218 137.636C235.649 137.309 235.201 136.847 234.874 136.25C234.547 135.643 234.384 134.943 234.384 134.15C234.384 133.357 234.543 132.661 234.86 132.064C235.177 131.467 235.621 131.009 236.19 130.692C236.769 130.365 237.431 130.202 238.178 130.202C238.906 130.202 239.55 130.361 240.11 130.678C240.67 130.995 241.099 131.434 241.398 131.994C241.706 132.545 241.86 133.17 241.86 133.87ZM240.544 133.604C240.544 133.119 240.437 132.703 240.222 132.358C240.007 132.003 239.713 131.737 239.34 131.56C238.976 131.373 238.57 131.28 238.122 131.28C237.478 131.28 236.927 131.485 236.47 131.896C236.022 132.307 235.765 132.876 235.7 133.604H240.544ZM246.314 136.824L248.694 130.328H250.052L247.042 138H245.558L242.548 130.328H243.92L246.314 136.824ZM258.221 133.87C258.221 134.113 258.207 134.369 258.179 134.64H252.047C252.094 135.396 252.351 135.989 252.817 136.418C253.293 136.838 253.867 137.048 254.539 137.048C255.09 137.048 255.547 136.922 255.911 136.67C256.285 136.409 256.546 136.063 256.695 135.634H258.067C257.862 136.371 257.451 136.973 256.835 137.44C256.219 137.897 255.454 138.126 254.539 138.126C253.811 138.126 253.158 137.963 252.579 137.636C252.01 137.309 251.562 136.847 251.235 136.25C250.909 135.643 250.745 134.943 250.745 134.15C250.745 133.357 250.904 132.661 251.221 132.064C251.539 131.467 251.982 131.009 252.551 130.692C253.13 130.365 253.793 130.202 254.539 130.202C255.267 130.202 255.911 130.361 256.471 130.678C257.031 130.995 257.461 131.434 257.759 131.994C258.067 132.545 258.221 133.17 258.221 133.87ZM256.905 133.604C256.905 133.119 256.798 132.703 256.583 132.358C256.369 132.003 256.075 131.737 255.701 131.56C255.337 131.373 254.931 131.28 254.483 131.28C253.839 131.28 253.289 131.485 252.831 131.896C252.383 132.307 252.127 132.876 252.061 133.604H256.905ZM261.093 131.574C261.317 131.135 261.634 130.795 262.045 130.552C262.465 130.309 262.974 130.188 263.571 130.188V131.504H263.235C261.807 131.504 261.093 132.279 261.093 133.828V138H259.819V130.328H261.093V131.574ZM271.566 130.328L266.946 141.612H265.63L267.142 137.916L264.048 130.328H265.462L267.87 136.544L270.25 130.328H271.566ZM274.316 131.378V135.9C274.316 136.273 274.396 136.539 274.554 136.698C274.713 136.847 274.988 136.922 275.38 136.922H276.318V138H275.17C274.461 138 273.929 137.837 273.574 137.51C273.22 137.183 273.042 136.647 273.042 135.9V131.378H272.048V130.328H273.042V128.396H274.316V130.328H276.318V131.378H274.316ZM281.586 130.188C282.165 130.188 282.687 130.314 283.154 130.566C283.621 130.809 283.985 131.177 284.246 131.672C284.517 132.167 284.652 132.769 284.652 133.478V138H283.392V133.66C283.392 132.895 283.201 132.311 282.818 131.91C282.435 131.499 281.913 131.294 281.25 131.294C280.578 131.294 280.041 131.504 279.64 131.924C279.248 132.344 279.052 132.955 279.052 133.758V138H277.778V127.64H279.052V131.42C279.304 131.028 279.649 130.725 280.088 130.51C280.536 130.295 281.035 130.188 281.586 130.188ZM287.307 129.082C287.064 129.082 286.859 128.998 286.691 128.83C286.523 128.662 286.439 128.457 286.439 128.214C286.439 127.971 286.523 127.766 286.691 127.598C286.859 127.43 287.064 127.346 287.307 127.346C287.54 127.346 287.736 127.43 287.895 127.598C288.063 127.766 288.147 127.971 288.147 128.214C288.147 128.457 288.063 128.662 287.895 128.83C287.736 128.998 287.54 129.082 287.307 129.082ZM287.923 130.328V138H286.649V130.328H287.923ZM293.748 130.188C294.682 130.188 295.438 130.473 296.016 131.042C296.595 131.602 296.884 132.414 296.884 133.478V138H295.624V133.66C295.624 132.895 295.433 132.311 295.05 131.91C294.668 131.499 294.145 131.294 293.482 131.294C292.81 131.294 292.274 131.504 291.872 131.924C291.48 132.344 291.284 132.955 291.284 133.758V138H290.01V130.328H291.284V131.42C291.536 131.028 291.877 130.725 292.306 130.51C292.745 130.295 293.226 130.188 293.748 130.188ZM302.045 130.202C302.708 130.202 303.287 130.347 303.781 130.636C304.285 130.925 304.659 131.289 304.901 131.728V130.328H306.189V138.168C306.189 138.868 306.04 139.489 305.741 140.03C305.443 140.581 305.013 141.01 304.453 141.318C303.903 141.626 303.259 141.78 302.521 141.78C301.513 141.78 300.673 141.542 300.001 141.066C299.329 140.59 298.933 139.941 298.811 139.12H300.071C300.211 139.587 300.501 139.96 300.939 140.24C301.378 140.529 301.905 140.674 302.521 140.674C303.221 140.674 303.791 140.455 304.229 140.016C304.677 139.577 304.901 138.961 304.901 138.168V136.558C304.649 137.006 304.276 137.379 303.781 137.678C303.287 137.977 302.708 138.126 302.045 138.126C301.364 138.126 300.743 137.958 300.183 137.622C299.633 137.286 299.199 136.815 298.881 136.208C298.564 135.601 298.405 134.911 298.405 134.136C298.405 133.352 298.564 132.666 298.881 132.078C299.199 131.481 299.633 131.019 300.183 130.692C300.743 130.365 301.364 130.202 302.045 130.202ZM304.901 134.15C304.901 133.571 304.785 133.067 304.551 132.638C304.318 132.209 304.001 131.882 303.599 131.658C303.207 131.425 302.773 131.308 302.297 131.308C301.821 131.308 301.387 131.42 300.995 131.644C300.603 131.868 300.291 132.195 300.057 132.624C299.824 133.053 299.707 133.557 299.707 134.136C299.707 134.724 299.824 135.237 300.057 135.676C300.291 136.105 300.603 136.437 300.995 136.67C301.387 136.894 301.821 137.006 302.297 137.006C302.773 137.006 303.207 136.894 303.599 136.67C304.001 136.437 304.318 136.105 304.551 135.676C304.785 135.237 304.901 134.729 304.901 134.15ZM313.461 131.378V135.9C313.461 136.273 313.54 136.539 313.699 136.698C313.857 136.847 314.133 136.922 314.525 136.922H315.463V138H314.315C313.605 138 313.073 137.837 312.719 137.51C312.364 137.183 312.187 136.647 312.187 135.9V131.378H311.193V130.328H312.187V128.396H313.461V130.328H315.463V131.378H313.461ZM323.726 130.328V138H322.452V136.866C322.21 137.258 321.869 137.566 321.43 137.79C321.001 138.005 320.525 138.112 320.002 138.112C319.405 138.112 318.868 137.991 318.392 137.748C317.916 137.496 317.538 137.123 317.258 136.628C316.988 136.133 316.852 135.531 316.852 134.822V130.328H318.112V134.654C318.112 135.41 318.304 135.993 318.686 136.404C319.069 136.805 319.592 137.006 320.254 137.006C320.936 137.006 321.472 136.796 321.864 136.376C322.256 135.956 322.452 135.345 322.452 134.542V130.328H323.726ZM327.067 131.574C327.291 131.135 327.609 130.795 328.019 130.552C328.439 130.309 328.948 130.188 329.545 130.188V131.504H329.209C327.781 131.504 327.067 132.279 327.067 133.828V138H325.793V130.328H327.067V131.574ZM334.67 130.188C335.603 130.188 336.359 130.473 336.938 131.042C337.517 131.602 337.806 132.414 337.806 133.478V138H336.546V133.66C336.546 132.895 336.355 132.311 335.972 131.91C335.589 131.499 335.067 131.294 334.404 131.294C333.732 131.294 333.195 131.504 332.794 131.924C332.402 132.344 332.206 132.955 332.206 133.758V138H330.932V130.328H332.206V131.42C332.458 131.028 332.799 130.725 333.228 130.51C333.667 130.295 334.147 130.188 334.67 130.188ZM346.803 133.87C346.803 134.113 346.789 134.369 346.761 134.64H340.629C340.676 135.396 340.933 135.989 341.399 136.418C341.875 136.838 342.449 137.048 343.121 137.048C343.672 137.048 344.129 136.922 344.493 136.67C344.867 136.409 345.128 136.063 345.277 135.634H346.649C346.444 136.371 346.033 136.973 345.417 137.44C344.801 137.897 344.036 138.126 343.121 138.126C342.393 138.126 341.74 137.963 341.161 137.636C340.592 137.309 340.144 136.847 339.817 136.25C339.491 135.643 339.327 134.943 339.327 134.15C339.327 133.357 339.486 132.661 339.803 132.064C340.121 131.467 340.564 131.009 341.133 130.692C341.712 130.365 342.375 130.202 343.121 130.202C343.849 130.202 344.493 130.361 345.053 130.678C345.613 130.995 346.043 131.434 346.341 131.994C346.649 132.545 346.803 133.17 346.803 133.87ZM345.487 133.604C345.487 133.119 345.38 132.703 345.165 132.358C344.951 132.003 344.657 131.737 344.283 131.56C343.919 131.373 343.513 131.28 343.065 131.28C342.421 131.28 341.871 131.485 341.413 131.896C340.965 132.307 340.709 132.876 340.643 133.604H345.487ZM347.925 134.136C347.925 133.352 348.083 132.666 348.401 132.078C348.718 131.481 349.152 131.019 349.703 130.692C350.263 130.365 350.888 130.202 351.579 130.202C352.176 130.202 352.731 130.342 353.245 130.622C353.758 130.893 354.15 131.252 354.421 131.7V127.64H355.709V138H354.421V136.558C354.169 137.015 353.795 137.393 353.301 137.692C352.806 137.981 352.227 138.126 351.565 138.126C350.883 138.126 350.263 137.958 349.703 137.622C349.152 137.286 348.718 136.815 348.401 136.208C348.083 135.601 347.925 134.911 347.925 134.136ZM354.421 134.15C354.421 133.571 354.304 133.067 354.071 132.638C353.837 132.209 353.52 131.882 353.119 131.658C352.727 131.425 352.293 131.308 351.817 131.308C351.341 131.308 350.907 131.42 350.515 131.644C350.123 131.868 349.81 132.195 349.577 132.624C349.343 133.053 349.227 133.557 349.227 134.136C349.227 134.724 349.343 135.237 349.577 135.676C349.81 136.105 350.123 136.437 350.515 136.67C350.907 136.894 351.341 137.006 351.817 137.006C352.293 137.006 352.727 136.894 353.119 136.67C353.52 136.437 353.837 136.105 354.071 135.676C354.304 135.237 354.421 134.729 354.421 134.15ZM364.772 138.126C364.054 138.126 363.4 137.963 362.812 137.636C362.234 137.309 361.776 136.847 361.44 136.25C361.114 135.643 360.95 134.943 360.95 134.15C360.95 133.366 361.118 132.675 361.454 132.078C361.8 131.471 362.266 131.009 362.854 130.692C363.442 130.365 364.1 130.202 364.828 130.202C365.556 130.202 366.214 130.365 366.802 130.692C367.39 131.009 367.852 131.467 368.188 132.064C368.534 132.661 368.706 133.357 368.706 134.15C368.706 134.943 368.529 135.643 368.174 136.25C367.829 136.847 367.358 137.309 366.76 137.636C366.163 137.963 365.5 138.126 364.772 138.126ZM364.772 137.006C365.23 137.006 365.659 136.899 366.06 136.684C366.462 136.469 366.784 136.147 367.026 135.718C367.278 135.289 367.404 134.766 367.404 134.15C367.404 133.534 367.283 133.011 367.04 132.582C366.798 132.153 366.48 131.835 366.088 131.63C365.696 131.415 365.272 131.308 364.814 131.308C364.348 131.308 363.918 131.415 363.526 131.63C363.144 131.835 362.836 132.153 362.602 132.582C362.369 133.011 362.252 133.534 362.252 134.15C362.252 134.775 362.364 135.303 362.588 135.732C362.822 136.161 363.13 136.483 363.512 136.698C363.895 136.903 364.315 137.006 364.772 137.006ZM377.101 130.328V138H375.827V136.866C375.585 137.258 375.244 137.566 374.805 137.79C374.376 138.005 373.9 138.112 373.377 138.112C372.78 138.112 372.243 137.991 371.767 137.748C371.291 137.496 370.913 137.123 370.633 136.628C370.363 136.133 370.227 135.531 370.227 134.822V130.328H371.487V134.654C371.487 135.41 371.679 135.993 372.061 136.404C372.444 136.805 372.967 137.006 373.629 137.006C374.311 137.006 374.847 136.796 375.239 136.376C375.631 135.956 375.827 135.345 375.827 134.542V130.328H377.101ZM380.722 131.378V135.9C380.722 136.273 380.802 136.539 380.96 136.698C381.119 136.847 381.394 136.922 381.786 136.922H382.724V138H381.576C380.867 138 380.335 137.837 379.98 137.51C379.626 137.183 379.448 136.647 379.448 135.9V131.378H378.454V130.328H379.448V128.396H380.722V130.328H382.724V131.378H380.722ZM389.106 131.742C389.358 131.303 389.732 130.939 390.226 130.65C390.73 130.351 391.314 130.202 391.976 130.202C392.658 130.202 393.274 130.365 393.824 130.692C394.384 131.019 394.823 131.481 395.14 132.078C395.458 132.666 395.616 133.352 395.616 134.136C395.616 134.911 395.458 135.601 395.14 136.208C394.823 136.815 394.384 137.286 393.824 137.622C393.274 137.958 392.658 138.126 391.976 138.126C391.323 138.126 390.744 137.981 390.24 137.692C389.746 137.393 389.368 137.025 389.106 136.586V141.64H387.832V130.328H389.106V131.742ZM394.314 134.136C394.314 133.557 394.198 133.053 393.964 132.624C393.731 132.195 393.414 131.868 393.012 131.644C392.62 131.42 392.186 131.308 391.71 131.308C391.244 131.308 390.81 131.425 390.408 131.658C390.016 131.882 389.699 132.213 389.456 132.652C389.223 133.081 389.106 133.581 389.106 134.15C389.106 134.729 389.223 135.237 389.456 135.676C389.699 136.105 390.016 136.437 390.408 136.67C390.81 136.894 391.244 137.006 391.71 137.006C392.186 137.006 392.62 136.894 393.012 136.67C393.414 136.437 393.731 136.105 393.964 135.676C394.198 135.237 394.314 134.724 394.314 134.136ZM404.209 133.87C404.209 134.113 404.195 134.369 404.167 134.64H398.035C398.082 135.396 398.339 135.989 398.805 136.418C399.281 136.838 399.855 137.048 400.527 137.048C401.078 137.048 401.535 136.922 401.899 136.67C402.273 136.409 402.534 136.063 402.683 135.634H404.055C403.85 136.371 403.439 136.973 402.823 137.44C402.207 137.897 401.442 138.126 400.527 138.126C399.799 138.126 399.146 137.963 398.567 137.636C397.998 137.309 397.55 136.847 397.223 136.25C396.897 135.643 396.733 134.943 396.733 134.15C396.733 133.357 396.892 132.661 397.209 132.064C397.527 131.467 397.97 131.009 398.539 130.692C399.118 130.365 399.781 130.202 400.527 130.202C401.255 130.202 401.899 130.361 402.459 130.678C403.019 130.995 403.449 131.434 403.747 131.994C404.055 132.545 404.209 133.17 404.209 133.87ZM402.893 133.604C402.893 133.119 402.786 132.703 402.571 132.358C402.357 132.003 402.063 131.737 401.689 131.56C401.325 131.373 400.919 131.28 400.471 131.28C399.827 131.28 399.277 131.485 398.819 131.896C398.371 132.307 398.115 132.876 398.049 133.604H402.893ZM407.081 131.574C407.305 131.135 407.622 130.795 408.033 130.552C408.453 130.309 408.962 130.188 409.559 130.188V131.504H409.223C407.795 131.504 407.081 132.279 407.081 133.828V138H405.807V130.328H407.081V131.574ZM414.068 131.378H412.458V138H411.184V131.378H410.19V130.328H411.184V129.782C411.184 128.923 411.403 128.298 411.842 127.906C412.29 127.505 413.004 127.304 413.984 127.304V128.368C413.424 128.368 413.027 128.48 412.794 128.704C412.57 128.919 412.458 129.278 412.458 129.782V130.328H414.068V131.378ZM422.469 133.87C422.469 134.113 422.455 134.369 422.427 134.64H416.295C416.342 135.396 416.598 135.989 417.065 136.418C417.541 136.838 418.115 137.048 418.787 137.048C419.338 137.048 419.795 136.922 420.159 136.67C420.532 136.409 420.794 136.063 420.943 135.634H422.315C422.11 136.371 421.699 136.973 421.083 137.44C420.467 137.897 419.702 138.126 418.787 138.126C418.059 138.126 417.406 137.963 416.827 137.636C416.258 137.309 415.81 136.847 415.483 136.25C415.156 135.643 414.993 134.943 414.993 134.15C414.993 133.357 415.152 132.661 415.469 132.064C415.786 131.467 416.23 131.009 416.799 130.692C417.378 130.365 418.04 130.202 418.787 130.202C419.515 130.202 420.159 130.361 420.719 130.678C421.279 130.995 421.708 131.434 422.007 131.994C422.315 132.545 422.469 133.17 422.469 133.87ZM421.153 133.604C421.153 133.119 421.046 132.703 420.831 132.358C420.616 132.003 420.322 131.737 419.949 131.56C419.585 131.373 419.179 131.28 418.731 131.28C418.087 131.28 417.536 131.485 417.079 131.896C416.631 132.307 416.374 132.876 416.309 133.604H421.153ZM423.591 134.15C423.591 133.357 423.749 132.666 424.067 132.078C424.384 131.481 424.823 131.019 425.383 130.692C425.952 130.365 426.601 130.202 427.329 130.202C428.271 130.202 429.046 130.431 429.653 130.888C430.269 131.345 430.675 131.98 430.871 132.792H429.499C429.368 132.325 429.111 131.957 428.729 131.686C428.355 131.415 427.889 131.28 427.329 131.28C426.601 131.28 426.013 131.532 425.565 132.036C425.117 132.531 424.893 133.235 424.893 134.15C424.893 135.074 425.117 135.788 425.565 136.292C426.013 136.796 426.601 137.048 427.329 137.048C427.889 137.048 428.355 136.917 428.729 136.656C429.102 136.395 429.359 136.021 429.499 135.536H430.871C430.665 136.32 430.255 136.95 429.639 137.426C429.023 137.893 428.253 138.126 427.329 138.126C426.601 138.126 425.952 137.963 425.383 137.636C424.823 137.309 424.384 136.847 424.067 136.25C423.749 135.653 423.591 134.953 423.591 134.15ZM434.041 131.378V135.9C434.041 136.273 434.12 136.539 434.279 136.698C434.437 136.847 434.713 136.922 435.105 136.922H436.043V138H434.895C434.185 138 433.653 137.837 433.299 137.51C432.944 137.183 432.767 136.647 432.767 135.9V131.378H431.773V130.328H432.767V128.396H434.041V130.328H436.043V131.378H434.041ZM439.154 128.242L439 135.242H437.936L437.782 128.242H439.154ZM438.524 138.084C438.282 138.084 438.076 138 437.908 137.832C437.74 137.664 437.656 137.459 437.656 137.216C437.656 136.973 437.74 136.768 437.908 136.6C438.076 136.432 438.282 136.348 438.524 136.348C438.758 136.348 438.954 136.432 439.112 136.6C439.28 136.768 439.364 136.973 439.364 137.216C439.364 137.459 439.28 137.664 439.112 137.832C438.954 138 438.758 138.084 438.524 138.084Z" fill="white"/>
<rect x="165.581" y="157" width="81" height="44" rx="6" fill="#CF6251"/>
<path d="M191.43 179.044C191.43 180.024 191.225 180.887 190.814 181.634C190.403 182.381 189.806 182.964 189.022 183.384C188.247 183.795 187.323 184 186.25 184H182.736V174.116H186.25C187.323 174.116 188.247 174.321 189.022 174.732C189.806 175.133 190.403 175.707 190.814 176.454C191.225 177.191 191.43 178.055 191.43 179.044ZM186.082 182.236C187.146 182.236 187.967 181.956 188.546 181.396C189.134 180.836 189.428 180.052 189.428 179.044C189.428 178.027 189.134 177.238 188.546 176.678C187.967 176.118 187.146 175.838 186.082 175.838H184.71V182.236H186.082ZM200.118 179.828C200.118 180.024 200.094 180.248 200.048 180.5H194.364C194.392 181.191 194.578 181.699 194.924 182.026C195.269 182.353 195.698 182.516 196.212 182.516C196.669 182.516 197.047 182.404 197.346 182.18C197.654 181.956 197.85 181.653 197.934 181.27H200.02C199.917 181.811 199.698 182.297 199.362 182.726C199.026 183.155 198.592 183.491 198.06 183.734C197.537 183.977 196.954 184.098 196.31 184.098C195.554 184.098 194.882 183.939 194.294 183.622C193.706 183.295 193.248 182.833 192.922 182.236C192.595 181.639 192.432 180.934 192.432 180.122C192.432 179.31 192.595 178.605 192.922 178.008C193.248 177.401 193.706 176.939 194.294 176.622C194.882 176.305 195.554 176.146 196.31 176.146C197.075 176.146 197.742 176.305 198.312 176.622C198.89 176.939 199.334 177.378 199.642 177.938C199.959 178.489 200.118 179.119 200.118 179.828ZM198.13 179.632C198.158 178.997 197.99 178.517 197.626 178.19C197.271 177.863 196.832 177.7 196.31 177.7C195.778 177.7 195.33 177.863 194.966 178.19C194.602 178.517 194.401 178.997 194.364 179.632H198.13ZM205.579 182.306V184H204.543C203.675 184 203.008 183.79 202.541 183.37C202.084 182.95 201.855 182.25 201.855 181.27V177.91H200.777V176.244H201.855V174.326H203.829V176.244H205.565V177.91H203.829V181.298C203.829 181.671 203.904 181.933 204.053 182.082C204.202 182.231 204.454 182.306 204.809 182.306H205.579ZM209.954 176.146C210.607 176.146 211.167 176.3 211.634 176.608C212.1 176.916 212.432 177.331 212.628 177.854V176.244H214.588V184H212.628V182.376C212.432 182.899 212.1 183.319 211.634 183.636C211.167 183.944 210.607 184.098 209.954 184.098C209.3 184.098 208.712 183.939 208.19 183.622C207.667 183.305 207.256 182.847 206.958 182.25C206.668 181.643 206.524 180.934 206.524 180.122C206.524 179.31 206.668 178.605 206.958 178.008C207.256 177.401 207.667 176.939 208.19 176.622C208.712 176.305 209.3 176.146 209.954 176.146ZM210.57 177.868C209.954 177.868 209.459 178.069 209.086 178.47C208.712 178.871 208.526 179.422 208.526 180.122C208.526 180.822 208.712 181.373 209.086 181.774C209.459 182.166 209.954 182.362 210.57 182.362C211.167 182.362 211.657 182.161 212.04 181.76C212.432 181.349 212.628 180.803 212.628 180.122C212.628 179.431 212.432 178.885 212.04 178.484C211.657 178.073 211.167 177.868 210.57 177.868ZM216.068 174.018C216.068 173.701 216.18 173.444 216.404 173.248C216.628 173.043 216.922 172.94 217.286 172.94C217.65 172.94 217.944 173.043 218.168 173.248C218.392 173.444 218.504 173.701 218.504 174.018C218.504 174.326 218.392 174.583 218.168 174.788C217.944 174.984 217.65 175.082 217.286 175.082C216.922 175.082 216.628 174.984 216.404 174.788C216.18 174.583 216.068 174.326 216.068 174.018ZM218.266 176.244V184H216.292V176.244H218.266ZM221.942 173.64V184H219.968V173.64H221.942ZM226.318 176.146C227.261 176.146 228.017 176.384 228.586 176.86C229.155 177.336 229.51 177.971 229.65 178.764H227.802C227.727 178.391 227.559 178.092 227.298 177.868C227.037 177.644 226.696 177.532 226.276 177.532C225.94 177.532 225.679 177.611 225.492 177.77C225.305 177.929 225.212 178.143 225.212 178.414C225.212 178.629 225.287 178.801 225.436 178.932C225.585 179.063 225.772 179.165 225.996 179.24C226.22 179.315 226.542 179.403 226.962 179.506C227.55 179.637 228.026 179.777 228.39 179.926C228.763 180.066 229.081 180.295 229.342 180.612C229.613 180.92 229.748 181.34 229.748 181.872C229.748 182.535 229.487 183.071 228.964 183.482C228.451 183.893 227.755 184.098 226.878 184.098C225.87 184.098 225.063 183.874 224.456 183.426C223.849 182.969 223.481 182.32 223.35 181.48H225.24C225.287 181.863 225.455 182.166 225.744 182.39C226.033 182.605 226.411 182.712 226.878 182.712C227.214 182.712 227.471 182.633 227.648 182.474C227.825 182.306 227.914 182.091 227.914 181.83C227.914 181.606 227.835 181.424 227.676 181.284C227.527 181.144 227.335 181.037 227.102 180.962C226.878 180.887 226.556 180.799 226.136 180.696C225.557 180.565 225.086 180.435 224.722 180.304C224.367 180.164 224.059 179.945 223.798 179.646C223.546 179.347 223.42 178.937 223.42 178.414C223.42 177.742 223.677 177.196 224.19 176.776C224.703 176.356 225.413 176.146 226.318 176.146Z" fill="white"/>
<path d="M172.581 160H239.581V154H172.581V160ZM243.581 164V194H249.581V164H243.581ZM239.581 198H172.581V204H239.581V198ZM168.581 194V164H162.581V194H168.581ZM172.581 198C170.372 198 168.581 196.209 168.581 194H162.581C162.581 199.523 167.058 204 172.581 204V198ZM243.581 194C243.581 196.209 241.79 198 239.581 198V204C245.104 204 249.581 199.523 249.581 194H243.581ZM239.581 160C241.79 160 243.581 161.791 243.581 164H249.581C249.581 158.477 245.104 154 239.581 154V160ZM172.581 154C167.058 154 162.581 158.477 162.581 164H168.581C168.581 161.791 170.372 160 172.581 160V154Z" fill="#F87661" fill-opacity="0.2"/>
<defs>
<linearGradient id="paint0_linear_37_198" x1="241.871" y1="0" x2="241.871" y2="262" gradientUnits="userSpaceOnUse">
<stop stop-color="#FF9685"/>
<stop offset="1" stop-color="#F87661"/>
</linearGradient>
</defs>
</svg>
