<svg width="219" height="262" viewBox="0 0 219 262" fill="none" xmlns="http://www.w3.org/2000/svg">
<rect x="0.162109" width="482.581" height="262" rx="30" fill="#FEE4DF"/>
<circle cx="87.1621" cy="98" r="52" fill="#FDD1CA"/>
<path d="M165.862 75C165.862 73.6267 166.169 72.4 166.782 71.32C167.409 70.2267 168.255 69.38 169.322 68.78C170.402 68.1667 171.609 67.86 172.942 67.86C174.502 67.86 175.869 68.26 177.042 69.06C178.215 69.86 179.035 70.9667 179.502 72.38H176.282C175.962 71.7133 175.509 71.2133 174.922 70.88C174.349 70.5467 173.682 70.38 172.922 70.38C172.109 70.38 171.382 70.5733 170.742 70.96C170.115 71.3333 169.622 71.8667 169.262 72.56C168.915 73.2533 168.742 74.0667 168.742 75C168.742 75.92 168.915 76.7333 169.262 77.44C169.622 78.1333 170.115 78.6733 170.742 79.06C171.382 79.4333 172.109 79.62 172.922 79.62C173.682 79.62 174.349 79.4533 174.922 79.12C175.509 78.7733 175.962 78.2667 176.282 77.6H179.502C179.035 79.0267 178.215 80.14 177.042 80.94C175.882 81.7267 174.515 82.12 172.942 82.12C171.609 82.12 170.402 81.82 169.322 81.22C168.255 80.6067 167.409 79.76 166.782 78.68C166.169 77.6 165.862 76.3733 165.862 75ZM180.834 76.42C180.834 75.3 181.054 74.3067 181.494 73.44C181.947 72.5733 182.554 71.9067 183.314 71.44C184.087 70.9733 184.947 70.74 185.894 70.74C186.72 70.74 187.44 70.9067 188.054 71.24C188.68 71.5733 189.18 71.9933 189.554 72.5V70.92H192.374V82H189.554V80.38C189.194 80.9 188.694 81.3333 188.054 81.68C187.427 82.0133 186.7 82.18 185.874 82.18C184.94 82.18 184.087 81.94 183.314 81.46C182.554 80.98 181.947 80.3067 181.494 79.44C181.054 78.56 180.834 77.5533 180.834 76.42ZM189.554 76.46C189.554 75.78 189.42 75.2 189.154 74.72C188.887 74.2267 188.527 73.8533 188.074 73.6C187.62 73.3333 187.134 73.2 186.614 73.2C186.094 73.2 185.614 73.3267 185.174 73.58C184.734 73.8333 184.374 74.2067 184.094 74.7C183.827 75.18 183.694 75.7533 183.694 76.42C183.694 77.0867 183.827 77.6733 184.094 78.18C184.374 78.6733 184.734 79.0533 185.174 79.32C185.627 79.5867 186.107 79.72 186.614 79.72C187.134 79.72 187.62 79.5933 188.074 79.34C188.527 79.0733 188.887 78.7 189.154 78.22C189.42 77.7267 189.554 77.14 189.554 76.46ZM198.028 73.22V78.58C198.028 78.9533 198.115 79.2267 198.288 79.4C198.475 79.56 198.782 79.64 199.208 79.64H200.508V82H198.748C196.388 82 195.208 80.8533 195.208 78.56V73.22H193.888V70.92H195.208V68.18H198.028V70.92H200.508V73.22H198.028ZM209.408 72.52C209.768 72.0133 210.261 71.5933 210.888 71.26C211.528 70.9133 212.255 70.74 213.068 70.74C214.015 70.74 214.868 70.9733 215.628 71.44C216.401 71.9067 217.008 72.5733 217.448 73.44C217.901 74.2933 218.128 75.2867 218.128 76.42C218.128 77.5533 217.901 78.56 217.448 79.44C217.008 80.3067 216.401 80.98 215.628 81.46C214.868 81.94 214.015 82.18 213.068 82.18C212.255 82.18 211.535 82.0133 210.908 81.68C210.295 81.3467 209.795 80.9267 209.408 80.42V87.28H206.608V70.92H209.408V72.52ZM215.268 76.42C215.268 75.7533 215.128 75.18 214.848 74.7C214.581 74.2067 214.221 73.8333 213.768 73.58C213.328 73.3267 212.848 73.2 212.328 73.2C211.821 73.2 211.341 73.3333 210.888 73.6C210.448 73.8533 210.088 74.2267 209.808 74.72C209.541 75.2133 209.408 75.7933 209.408 76.46C209.408 77.1267 209.541 77.7067 209.808 78.2C210.088 78.6933 210.448 79.0733 210.888 79.34C211.341 79.5933 211.821 79.72 212.328 79.72C212.848 79.72 213.328 79.5867 213.768 79.32C214.221 79.0533 214.581 78.6733 214.848 78.18C215.128 77.6867 215.268 77.1 215.268 76.42ZM230.123 76.22C230.123 76.62 230.096 76.98 230.043 77.3H221.943C222.009 78.1 222.289 78.7267 222.783 79.18C223.276 79.6333 223.883 79.86 224.603 79.86C225.643 79.86 226.383 79.4133 226.823 78.52H229.843C229.523 79.5867 228.909 80.4667 228.003 81.16C227.096 81.84 225.983 82.18 224.663 82.18C223.596 82.18 222.636 81.9467 221.783 81.48C220.943 81 220.283 80.3267 219.803 79.46C219.336 78.5933 219.103 77.5933 219.103 76.46C219.103 75.3133 219.336 74.3067 219.803 73.44C220.269 72.5733 220.923 71.9067 221.763 71.44C222.603 70.9733 223.569 70.74 224.663 70.74C225.716 70.74 226.656 70.9667 227.483 71.42C228.323 71.8733 228.969 72.52 229.423 73.36C229.889 74.1867 230.123 75.14 230.123 76.22ZM227.223 75.42C227.209 74.7 226.949 74.1267 226.443 73.7C225.936 73.26 225.316 73.04 224.583 73.04C223.889 73.04 223.303 73.2533 222.823 73.68C222.356 74.0933 222.069 74.6733 221.963 75.42H227.223ZM235.086 73.22V78.58C235.086 78.9533 235.173 79.2267 235.346 79.4C235.533 79.56 235.84 79.64 236.266 79.64H237.566V82H235.806C233.446 82 232.266 80.8533 232.266 78.56V73.22H230.946V70.92H232.266V68.18H235.086V70.92H237.566V73.22H235.086ZM248.286 79.42L251.086 70.92H254.066L249.966 82H246.566L242.486 70.92H245.486L248.286 79.42ZM256.719 69.6C256.225 69.6 255.812 69.4467 255.479 69.14C255.159 68.82 254.999 68.4267 254.999 67.96C254.999 67.4933 255.159 67.1067 255.479 66.8C255.812 66.48 256.225 66.32 256.719 66.32C257.212 66.32 257.619 66.48 257.939 66.8C258.272 67.1067 258.439 67.4933 258.439 67.96C258.439 68.4267 258.272 68.82 257.939 69.14C257.619 69.4467 257.212 69.6 256.719 69.6ZM258.099 70.92V82H255.299V70.92H258.099ZM264.765 82.18C263.858 82.18 263.045 82.02 262.325 81.7C261.605 81.3667 261.032 80.92 260.605 80.36C260.192 79.8 259.965 79.18 259.925 78.5H262.745C262.798 78.9267 263.005 79.28 263.365 79.56C263.738 79.84 264.198 79.98 264.745 79.98C265.278 79.98 265.692 79.8733 265.985 79.66C266.292 79.4467 266.445 79.1733 266.445 78.84C266.445 78.48 266.258 78.2133 265.885 78.04C265.525 77.8533 264.945 77.6533 264.145 77.44C263.318 77.24 262.638 77.0333 262.105 76.82C261.585 76.6067 261.132 76.28 260.745 75.84C260.372 75.4 260.185 74.8067 260.185 74.06C260.185 73.4467 260.358 72.8867 260.705 72.38C261.065 71.8733 261.572 71.4733 262.225 71.18C262.892 70.8867 263.672 70.74 264.565 70.74C265.885 70.74 266.938 71.0733 267.725 71.74C268.512 72.3933 268.945 73.28 269.025 74.4H266.345C266.305 73.96 266.118 73.6133 265.785 73.36C265.465 73.0933 265.032 72.96 264.485 72.96C263.978 72.96 263.585 73.0533 263.305 73.24C263.038 73.4267 262.905 73.6867 262.905 74.02C262.905 74.3933 263.092 74.68 263.465 74.88C263.838 75.0667 264.418 75.26 265.205 75.46C266.005 75.66 266.665 75.8667 267.185 76.08C267.705 76.2933 268.152 76.6267 268.525 77.08C268.912 77.52 269.112 78.1067 269.125 78.84C269.125 79.48 268.945 80.0533 268.585 80.56C268.238 81.0667 267.732 81.4667 267.065 81.76C266.412 82.04 265.645 82.18 264.765 82.18ZM272.503 69.6C272.01 69.6 271.597 69.4467 271.263 69.14C270.943 68.82 270.783 68.4267 270.783 67.96C270.783 67.4933 270.943 67.1067 271.263 66.8C271.597 66.48 272.01 66.32 272.503 66.32C272.997 66.32 273.403 66.48 273.723 66.8C274.057 67.1067 274.223 67.4933 274.223 67.96C274.223 68.4267 274.057 68.82 273.723 69.14C273.403 69.4467 272.997 69.6 272.503 69.6ZM273.883 70.92V82H271.083V70.92H273.883ZM279.57 73.22V78.58C279.57 78.9533 279.656 79.2267 279.83 79.4C280.016 79.56 280.323 79.64 280.75 79.64H282.05V82H280.29C277.93 82 276.75 80.8533 276.75 78.56V73.22H275.43V70.92H276.75V68.18H279.57V70.92H282.05V73.22H279.57Z" fill="#5A5A5A"/>
<path d="M178.504 108.242L175.676 118H174.248L171.98 110.146L169.628 118L168.214 118.014L165.484 108.242H166.842L168.97 116.516L171.322 108.242H172.75L174.99 116.488L177.132 108.242H178.504ZM186.814 113.87C186.814 114.113 186.8 114.369 186.772 114.64H180.64C180.687 115.396 180.944 115.989 181.41 116.418C181.886 116.838 182.46 117.048 183.132 117.048C183.683 117.048 184.14 116.922 184.504 116.67C184.878 116.409 185.139 116.063 185.288 115.634H186.66C186.455 116.371 186.044 116.973 185.428 117.44C184.812 117.897 184.047 118.126 183.132 118.126C182.404 118.126 181.751 117.963 181.172 117.636C180.603 117.309 180.155 116.847 179.828 116.25C179.502 115.643 179.338 114.943 179.338 114.15C179.338 113.357 179.497 112.661 179.814 112.064C180.132 111.467 180.575 111.009 181.144 110.692C181.723 110.365 182.386 110.202 183.132 110.202C183.86 110.202 184.504 110.361 185.064 110.678C185.624 110.995 186.054 111.434 186.352 111.994C186.66 112.545 186.814 113.17 186.814 113.87ZM185.498 113.604C185.498 113.119 185.391 112.703 185.176 112.358C184.962 112.003 184.668 111.737 184.294 111.56C183.93 111.373 183.524 111.28 183.076 111.28C182.432 111.28 181.882 111.485 181.424 111.896C180.976 112.307 180.72 112.876 180.654 113.604H185.498ZM191.584 114.136C191.584 113.352 191.743 112.666 192.06 112.078C192.378 111.481 192.812 111.019 193.362 110.692C193.922 110.365 194.543 110.202 195.224 110.202C195.896 110.202 196.48 110.347 196.974 110.636C197.469 110.925 197.838 111.289 198.08 111.728V110.328H199.368V118H198.08V116.572C197.828 117.02 197.45 117.393 196.946 117.692C196.452 117.981 195.873 118.126 195.21 118.126C194.529 118.126 193.913 117.958 193.362 117.622C192.812 117.286 192.378 116.815 192.06 116.208C191.743 115.601 191.584 114.911 191.584 114.136ZM198.08 114.15C198.08 113.571 197.964 113.067 197.73 112.638C197.497 112.209 197.18 111.882 196.778 111.658C196.386 111.425 195.952 111.308 195.476 111.308C195 111.308 194.566 111.42 194.174 111.644C193.782 111.868 193.47 112.195 193.236 112.624C193.003 113.053 192.886 113.557 192.886 114.136C192.886 114.724 193.003 115.237 193.236 115.676C193.47 116.105 193.782 116.437 194.174 116.67C194.566 116.894 195 117.006 195.476 117.006C195.952 117.006 196.386 116.894 196.778 116.67C197.18 116.437 197.497 116.105 197.73 115.676C197.964 115.237 198.08 114.729 198.08 114.15ZM200.961 114.136C200.961 113.352 201.12 112.666 201.437 112.078C201.755 111.481 202.189 111.019 202.739 110.692C203.299 110.365 203.925 110.202 204.615 110.202C205.213 110.202 205.768 110.342 206.281 110.622C206.795 110.893 207.187 111.252 207.457 111.7V107.64H208.745V118H207.457V116.558C207.205 117.015 206.832 117.393 206.337 117.692C205.843 117.981 205.264 118.126 204.601 118.126C203.92 118.126 203.299 117.958 202.739 117.622C202.189 117.286 201.755 116.815 201.437 116.208C201.12 115.601 200.961 114.911 200.961 114.136ZM207.457 114.15C207.457 113.571 207.341 113.067 207.107 112.638C206.874 112.209 206.557 111.882 206.155 111.658C205.763 111.425 205.329 111.308 204.853 111.308C204.377 111.308 203.943 111.42 203.551 111.644C203.159 111.868 202.847 112.195 202.613 112.624C202.38 113.053 202.263 113.557 202.263 114.136C202.263 114.724 202.38 115.237 202.613 115.676C202.847 116.105 203.159 116.437 203.551 116.67C203.943 116.894 204.377 117.006 204.853 117.006C205.329 117.006 205.763 116.894 206.155 116.67C206.557 116.437 206.874 116.105 207.107 115.676C207.341 115.237 207.457 114.729 207.457 114.15ZM214.16 118.126C213.442 118.126 212.788 117.963 212.2 117.636C211.622 117.309 211.164 116.847 210.828 116.25C210.502 115.643 210.338 114.943 210.338 114.15C210.338 113.366 210.506 112.675 210.842 112.078C211.188 111.471 211.654 111.009 212.242 110.692C212.83 110.365 213.488 110.202 214.216 110.202C214.944 110.202 215.602 110.365 216.19 110.692C216.778 111.009 217.24 111.467 217.576 112.064C217.922 112.661 218.094 113.357 218.094 114.15C218.094 114.943 217.917 115.643 217.562 116.25C217.217 116.847 216.746 117.309 216.148 117.636C215.551 117.963 214.888 118.126 214.16 118.126ZM214.16 117.006C214.618 117.006 215.047 116.899 215.448 116.684C215.85 116.469 216.172 116.147 216.414 115.718C216.666 115.289 216.792 114.766 216.792 114.15C216.792 113.534 216.671 113.011 216.428 112.582C216.186 112.153 215.868 111.835 215.476 111.63C215.084 111.415 214.66 111.308 214.202 111.308C213.736 111.308 213.306 111.415 212.914 111.63C212.532 111.835 212.224 112.153 211.99 112.582C211.757 113.011 211.64 113.534 211.64 114.15C211.64 114.775 211.752 115.303 211.976 115.732C212.21 116.161 212.518 116.483 212.9 116.698C213.283 116.903 213.703 117.006 214.16 117.006ZM220.959 111.742C221.211 111.303 221.585 110.939 222.079 110.65C222.583 110.351 223.167 110.202 223.829 110.202C224.511 110.202 225.127 110.365 225.677 110.692C226.237 111.019 226.676 111.481 226.993 112.078C227.311 112.666 227.469 113.352 227.469 114.136C227.469 114.911 227.311 115.601 226.993 116.208C226.676 116.815 226.237 117.286 225.677 117.622C225.127 117.958 224.511 118.126 223.829 118.126C223.176 118.126 222.597 117.981 222.093 117.692C221.599 117.393 221.221 117.025 220.959 116.586V121.64H219.685V110.328H220.959V111.742ZM226.167 114.136C226.167 113.557 226.051 113.053 225.817 112.624C225.584 112.195 225.267 111.868 224.865 111.644C224.473 111.42 224.039 111.308 223.563 111.308C223.097 111.308 222.663 111.425 222.261 111.658C221.869 111.882 221.552 112.213 221.309 112.652C221.076 113.081 220.959 113.581 220.959 114.15C220.959 114.729 221.076 115.237 221.309 115.676C221.552 116.105 221.869 116.437 222.261 116.67C222.663 116.894 223.097 117.006 223.563 117.006C224.039 117.006 224.473 116.894 224.865 116.67C225.267 116.437 225.584 116.105 225.817 115.676C226.051 115.237 226.167 114.724 226.167 114.136ZM230.616 111.378V115.9C230.616 116.273 230.696 116.539 230.854 116.698C231.013 116.847 231.288 116.922 231.68 116.922H232.618V118H231.47C230.761 118 230.229 117.837 229.874 117.51C229.52 117.183 229.342 116.647 229.342 115.9V111.378H228.348V110.328H229.342V108.396H230.616V110.328H232.618V111.378H230.616ZM241.078 113.87C241.078 114.113 241.064 114.369 241.036 114.64H234.904C234.951 115.396 235.207 115.989 235.674 116.418C236.15 116.838 236.724 117.048 237.396 117.048C237.947 117.048 238.404 116.922 238.768 116.67C239.141 116.409 239.403 116.063 239.552 115.634H240.924C240.719 116.371 240.308 116.973 239.692 117.44C239.076 117.897 238.311 118.126 237.396 118.126C236.668 118.126 236.015 117.963 235.436 117.636C234.867 117.309 234.419 116.847 234.092 116.25C233.765 115.643 233.602 114.943 233.602 114.15C233.602 113.357 233.761 112.661 234.078 112.064C234.395 111.467 234.839 111.009 235.408 110.692C235.987 110.365 236.649 110.202 237.396 110.202C238.124 110.202 238.768 110.361 239.328 110.678C239.888 110.995 240.317 111.434 240.616 111.994C240.924 112.545 241.078 113.17 241.078 113.87ZM239.762 113.604C239.762 113.119 239.655 112.703 239.44 112.358C239.225 112.003 238.931 111.737 238.558 111.56C238.194 111.373 237.788 111.28 237.34 111.28C236.696 111.28 236.145 111.485 235.688 111.896C235.24 112.307 234.983 112.876 234.918 113.604H239.762ZM242.2 114.136C242.2 113.352 242.358 112.666 242.676 112.078C242.993 111.481 243.427 111.019 243.978 110.692C244.538 110.365 245.163 110.202 245.854 110.202C246.451 110.202 247.006 110.342 247.52 110.622C248.033 110.893 248.425 111.252 248.696 111.7V107.64H249.984V118H248.696V116.558C248.444 117.015 248.07 117.393 247.576 117.692C247.081 117.981 246.502 118.126 245.84 118.126C245.158 118.126 244.538 117.958 243.978 117.622C243.427 117.286 242.993 116.815 242.676 116.208C242.358 115.601 242.2 114.911 242.2 114.136ZM248.696 114.15C248.696 113.571 248.579 113.067 248.346 112.638C248.112 112.209 247.795 111.882 247.394 111.658C247.002 111.425 246.568 111.308 246.092 111.308C245.616 111.308 245.182 111.42 244.79 111.644C244.398 111.868 244.085 112.195 243.852 112.624C243.618 113.053 243.502 113.557 243.502 114.136C243.502 114.724 243.618 115.237 243.852 115.676C244.085 116.105 244.398 116.437 244.79 116.67C245.182 116.894 245.616 117.006 246.092 117.006C246.568 117.006 247.002 116.894 247.394 116.67C247.795 116.437 248.112 116.105 248.346 115.676C248.579 115.237 248.696 114.729 248.696 114.15ZM259.047 118.126C258.328 118.126 257.675 117.963 257.087 117.636C256.508 117.309 256.051 116.847 255.715 116.25C255.388 115.643 255.225 114.943 255.225 114.15C255.225 113.366 255.393 112.675 255.729 112.078C256.074 111.471 256.541 111.009 257.129 110.692C257.717 110.365 258.375 110.202 259.103 110.202C259.831 110.202 260.489 110.365 261.077 110.692C261.665 111.009 262.127 111.467 262.463 112.064C262.808 112.661 262.981 113.357 262.981 114.15C262.981 114.943 262.804 115.643 262.449 116.25C262.104 116.847 261.632 117.309 261.035 117.636C260.438 117.963 259.775 118.126 259.047 118.126ZM259.047 117.006C259.504 117.006 259.934 116.899 260.335 116.684C260.736 116.469 261.058 116.147 261.301 115.718C261.553 115.289 261.679 114.766 261.679 114.15C261.679 113.534 261.558 113.011 261.315 112.582C261.072 112.153 260.755 111.835 260.363 111.63C259.971 111.415 259.546 111.308 259.089 111.308C258.622 111.308 258.193 111.415 257.801 111.63C257.418 111.835 257.11 112.153 256.877 112.582C256.644 113.011 256.527 113.534 256.527 114.15C256.527 114.775 256.639 115.303 256.863 115.732C257.096 116.161 257.404 116.483 257.787 116.698C258.17 116.903 258.59 117.006 259.047 117.006ZM271.376 110.328V118H270.102V116.866C269.859 117.258 269.519 117.566 269.08 117.79C268.651 118.005 268.175 118.112 267.652 118.112C267.055 118.112 266.518 117.991 266.042 117.748C265.566 117.496 265.188 117.123 264.908 116.628C264.637 116.133 264.502 115.531 264.502 114.822V110.328H265.762V114.654C265.762 115.41 265.953 115.993 266.336 116.404C266.719 116.805 267.241 117.006 267.904 117.006C268.585 117.006 269.122 116.796 269.514 116.376C269.906 115.956 270.102 115.345 270.102 114.542V110.328H271.376ZM274.717 111.574C274.941 111.135 275.258 110.795 275.669 110.552C276.089 110.309 276.598 110.188 277.195 110.188V111.504H276.859C275.431 111.504 274.717 112.279 274.717 113.828V118H273.443V110.328H274.717V111.574ZM283.504 111.742C283.756 111.303 284.129 110.939 284.624 110.65C285.128 110.351 285.711 110.202 286.374 110.202C287.055 110.202 287.671 110.365 288.222 110.692C288.782 111.019 289.221 111.481 289.538 112.078C289.855 112.666 290.014 113.352 290.014 114.136C290.014 114.911 289.855 115.601 289.538 116.208C289.221 116.815 288.782 117.286 288.222 117.622C287.671 117.958 287.055 118.126 286.374 118.126C285.721 118.126 285.142 117.981 284.638 117.692C284.143 117.393 283.765 117.025 283.504 116.586V121.64H282.23V110.328H283.504V111.742ZM288.712 114.136C288.712 113.557 288.595 113.053 288.362 112.624C288.129 112.195 287.811 111.868 287.41 111.644C287.018 111.42 286.584 111.308 286.108 111.308C285.641 111.308 285.207 111.425 284.806 111.658C284.414 111.882 284.097 112.213 283.854 112.652C283.621 113.081 283.504 113.581 283.504 114.15C283.504 114.729 283.621 115.237 283.854 115.676C284.097 116.105 284.414 116.437 284.806 116.67C285.207 116.894 285.641 117.006 286.108 117.006C286.584 117.006 287.018 116.894 287.41 116.67C287.811 116.437 288.129 116.105 288.362 115.676C288.595 115.237 288.712 114.724 288.712 114.136ZM298.411 110.328V118H297.137V116.866C296.894 117.258 296.554 117.566 296.115 117.79C295.686 118.005 295.21 118.112 294.687 118.112C294.09 118.112 293.553 117.991 293.077 117.748C292.601 117.496 292.223 117.123 291.943 116.628C291.672 116.133 291.537 115.531 291.537 114.822V110.328H292.797V114.654C292.797 115.41 292.988 115.993 293.371 116.404C293.754 116.805 294.276 117.006 294.939 117.006C295.62 117.006 296.157 116.796 296.549 116.376C296.941 115.956 297.137 115.345 297.137 114.542V110.328H298.411ZM301.752 111.742C302.004 111.303 302.377 110.939 302.872 110.65C303.376 110.351 303.959 110.202 304.622 110.202C305.303 110.202 305.919 110.365 306.47 110.692C307.03 111.019 307.469 111.481 307.786 112.078C308.103 112.666 308.262 113.352 308.262 114.136C308.262 114.911 308.103 115.601 307.786 116.208C307.469 116.815 307.03 117.286 306.47 117.622C305.919 117.958 305.303 118.126 304.622 118.126C303.969 118.126 303.39 117.981 302.886 117.692C302.391 117.393 302.013 117.025 301.752 116.586V121.64H300.478V110.328H301.752V111.742ZM306.96 114.136C306.96 113.557 306.843 113.053 306.61 112.624C306.377 112.195 306.059 111.868 305.658 111.644C305.266 111.42 304.832 111.308 304.356 111.308C303.889 111.308 303.455 111.425 303.054 111.658C302.662 111.882 302.345 112.213 302.102 112.652C301.869 113.081 301.752 113.581 301.752 114.15C301.752 114.729 301.869 115.237 302.102 115.676C302.345 116.105 302.662 116.437 303.054 116.67C303.455 116.894 303.889 117.006 304.356 117.006C304.832 117.006 305.266 116.894 305.658 116.67C306.059 116.437 306.377 116.105 306.61 115.676C306.843 115.237 306.96 114.724 306.96 114.136ZM311.129 111.742C311.381 111.303 311.754 110.939 312.249 110.65C312.753 110.351 313.336 110.202 313.999 110.202C314.68 110.202 315.296 110.365 315.847 110.692C316.407 111.019 316.846 111.481 317.163 112.078C317.48 112.666 317.639 113.352 317.639 114.136C317.639 114.911 317.48 115.601 317.163 116.208C316.846 116.815 316.407 117.286 315.847 117.622C315.296 117.958 314.68 118.126 313.999 118.126C313.346 118.126 312.767 117.981 312.263 117.692C311.768 117.393 311.39 117.025 311.129 116.586V121.64H309.855V110.328H311.129V111.742ZM316.337 114.136C316.337 113.557 316.22 113.053 315.987 112.624C315.754 112.195 315.436 111.868 315.035 111.644C314.643 111.42 314.209 111.308 313.733 111.308C313.266 111.308 312.832 111.425 312.431 111.658C312.039 111.882 311.722 112.213 311.479 112.652C311.246 113.081 311.129 113.581 311.129 114.15C311.129 114.729 311.246 115.237 311.479 115.676C311.722 116.105 312.039 116.437 312.431 116.67C312.832 116.894 313.266 117.006 313.733 117.006C314.209 117.006 314.643 116.894 315.035 116.67C315.436 116.437 315.754 116.105 315.987 115.676C316.22 115.237 316.337 114.724 316.337 114.136ZM325.84 110.328L321.22 121.612H319.904L321.416 117.916L318.322 110.328H319.736L322.144 116.544L324.524 110.328H325.84ZM327.443 118.084C327.2 118.084 326.995 118 326.827 117.832C326.659 117.664 326.575 117.459 326.575 117.216C326.575 116.973 326.659 116.768 326.827 116.6C326.995 116.432 327.2 116.348 327.443 116.348C327.676 116.348 327.872 116.432 328.031 116.6C328.199 116.768 328.283 116.973 328.283 117.216C328.283 117.459 328.199 117.664 328.031 117.832C327.872 118 327.676 118.084 327.443 118.084ZM339.309 115.83H335.053L334.269 118H332.925L336.453 108.298H337.923L341.437 118H340.093L339.309 115.83ZM338.945 114.794L337.181 109.866L335.417 114.794H338.945ZM344.164 107.64V118H342.89V107.64H344.164ZM347.805 111.378V115.9C347.805 116.273 347.885 116.539 348.043 116.698C348.202 116.847 348.477 116.922 348.869 116.922H349.807V118H348.659C347.95 118 347.418 117.837 347.063 117.51C346.709 117.183 346.531 116.647 346.531 115.9V111.378H345.537V110.328H346.531V108.396H347.805V110.328H349.807V111.378H347.805ZM355.075 110.188C355.654 110.188 356.176 110.314 356.643 110.566C357.11 110.809 357.474 111.177 357.735 111.672C358.006 112.167 358.141 112.769 358.141 113.478V118H356.881V113.66C356.881 112.895 356.69 112.311 356.307 111.91C355.924 111.499 355.402 111.294 354.739 111.294C354.067 111.294 353.53 111.504 353.129 111.924C352.737 112.344 352.541 112.955 352.541 113.758V118H351.267V107.64H352.541V111.42C352.793 111.028 353.138 110.725 353.577 110.51C354.025 110.295 354.524 110.188 355.075 110.188ZM363.484 118.126C362.765 118.126 362.112 117.963 361.524 117.636C360.945 117.309 360.488 116.847 360.152 116.25C359.825 115.643 359.662 114.943 359.662 114.15C359.662 113.366 359.83 112.675 360.166 112.078C360.511 111.471 360.978 111.009 361.566 110.692C362.154 110.365 362.812 110.202 363.54 110.202C364.268 110.202 364.926 110.365 365.514 110.692C366.102 111.009 366.564 111.467 366.9 112.064C367.245 112.661 367.418 113.357 367.418 114.15C367.418 114.943 367.241 115.643 366.886 116.25C366.541 116.847 366.069 117.309 365.472 117.636C364.875 117.963 364.212 118.126 363.484 118.126ZM363.484 117.006C363.941 117.006 364.371 116.899 364.772 116.684C365.173 116.469 365.495 116.147 365.738 115.718C365.99 115.289 366.116 114.766 366.116 114.15C366.116 113.534 365.995 113.011 365.752 112.582C365.509 112.153 365.192 111.835 364.8 111.63C364.408 111.415 363.983 111.308 363.526 111.308C363.059 111.308 362.63 111.415 362.238 111.63C361.855 111.835 361.547 112.153 361.314 112.582C361.081 113.011 360.964 113.534 360.964 114.15C360.964 114.775 361.076 115.303 361.3 115.732C361.533 116.161 361.841 116.483 362.224 116.698C362.607 116.903 363.027 117.006 363.484 117.006ZM375.813 110.328V118H374.539V116.866C374.297 117.258 373.956 117.566 373.517 117.79C373.088 118.005 372.612 118.112 372.089 118.112C371.492 118.112 370.955 117.991 370.479 117.748C370.003 117.496 369.625 117.123 369.345 116.628C369.075 116.133 368.939 115.531 368.939 114.822V110.328H370.199V114.654C370.199 115.41 370.391 115.993 370.773 116.404C371.156 116.805 371.679 117.006 372.341 117.006C373.023 117.006 373.559 116.796 373.951 116.376C374.343 115.956 374.539 115.345 374.539 114.542V110.328H375.813ZM381.044 110.202C381.707 110.202 382.286 110.347 382.78 110.636C383.284 110.925 383.658 111.289 383.9 111.728V110.328H385.188V118.168C385.188 118.868 385.039 119.489 384.74 120.03C384.442 120.581 384.012 121.01 383.452 121.318C382.902 121.626 382.258 121.78 381.52 121.78C380.512 121.78 379.672 121.542 379 121.066C378.328 120.59 377.932 119.941 377.81 119.12H379.07C379.21 119.587 379.5 119.96 379.938 120.24C380.377 120.529 380.904 120.674 381.52 120.674C382.22 120.674 382.79 120.455 383.228 120.016C383.676 119.577 383.9 118.961 383.9 118.168V116.558C383.648 117.006 383.275 117.379 382.78 117.678C382.286 117.977 381.707 118.126 381.044 118.126C380.363 118.126 379.742 117.958 379.182 117.622C378.632 117.286 378.198 116.815 377.88 116.208C377.563 115.601 377.404 114.911 377.404 114.136C377.404 113.352 377.563 112.666 377.88 112.078C378.198 111.481 378.632 111.019 379.182 110.692C379.742 110.365 380.363 110.202 381.044 110.202ZM383.9 114.15C383.9 113.571 383.784 113.067 383.55 112.638C383.317 112.209 383 111.882 382.598 111.658C382.206 111.425 381.772 111.308 381.296 111.308C380.82 111.308 380.386 111.42 379.994 111.644C379.602 111.868 379.29 112.195 379.056 112.624C378.823 113.053 378.706 113.557 378.706 114.136C378.706 114.724 378.823 115.237 379.056 115.676C379.29 116.105 379.602 116.437 379.994 116.67C380.386 116.894 380.82 117.006 381.296 117.006C381.772 117.006 382.206 116.894 382.598 116.67C383 116.437 383.317 116.105 383.55 115.676C383.784 115.237 383.9 114.729 383.9 114.15ZM391.065 110.188C391.644 110.188 392.167 110.314 392.633 110.566C393.1 110.809 393.464 111.177 393.725 111.672C393.996 112.167 394.131 112.769 394.131 113.478V118H392.871V113.66C392.871 112.895 392.68 112.311 392.297 111.91C391.915 111.499 391.392 111.294 390.729 111.294C390.057 111.294 389.521 111.504 389.119 111.924C388.727 112.344 388.531 112.955 388.531 113.758V118H387.257V107.64H388.531V111.42C388.783 111.028 389.129 110.725 389.567 110.51C390.015 110.295 390.515 110.188 391.065 110.188ZM397.682 111.378V115.9C397.682 116.273 397.762 116.539 397.92 116.698C398.079 116.847 398.354 116.922 398.746 116.922H399.684V118H398.536C397.827 118 397.295 117.837 396.94 117.51C396.586 117.183 396.408 116.647 396.408 115.9V111.378H395.414V110.328H396.408V108.396H397.682V110.328H399.684V111.378H397.682ZM406.066 108.242V118H404.792V108.242H406.066ZM422.022 110.328L419.628 118H418.312L416.464 111.91L414.616 118H413.3L410.892 110.328H412.194L413.958 116.768L415.862 110.328H417.164L419.026 116.782L420.762 110.328H422.022ZM422.726 114.136C422.726 113.352 422.885 112.666 423.202 112.078C423.52 111.481 423.954 111.019 424.504 110.692C425.064 110.365 425.685 110.202 426.366 110.202C427.038 110.202 427.622 110.347 428.116 110.636C428.611 110.925 428.98 111.289 429.222 111.728V110.328H430.51V118H429.222V116.572C428.97 117.02 428.592 117.393 428.088 117.692C427.594 117.981 427.015 118.126 426.352 118.126C425.671 118.126 425.055 117.958 424.504 117.622C423.954 117.286 423.52 116.815 423.202 116.208C422.885 115.601 422.726 114.911 422.726 114.136ZM429.222 114.15C429.222 113.571 429.106 113.067 428.872 112.638C428.639 112.209 428.322 111.882 427.92 111.658C427.528 111.425 427.094 111.308 426.618 111.308C426.142 111.308 425.708 111.42 425.316 111.644C424.924 111.868 424.612 112.195 424.378 112.624C424.145 113.053 424.028 113.557 424.028 114.136C424.028 114.724 424.145 115.237 424.378 115.676C424.612 116.105 424.924 116.437 425.316 116.67C425.708 116.894 426.142 117.006 426.618 117.006C427.094 117.006 427.528 116.894 427.92 116.67C428.322 116.437 428.639 116.105 428.872 115.676C429.106 115.237 429.222 114.729 429.222 114.15ZM435.295 118.126C434.707 118.126 434.18 118.028 433.713 117.832C433.247 117.627 432.878 117.347 432.607 116.992C432.337 116.628 432.187 116.213 432.159 115.746H433.475C433.513 116.129 433.69 116.441 434.007 116.684C434.334 116.927 434.759 117.048 435.281 117.048C435.767 117.048 436.149 116.941 436.429 116.726C436.709 116.511 436.849 116.241 436.849 115.914C436.849 115.578 436.7 115.331 436.401 115.172C436.103 115.004 435.641 114.841 435.015 114.682C434.446 114.533 433.979 114.383 433.615 114.234C433.261 114.075 432.953 113.847 432.691 113.548C432.439 113.24 432.313 112.839 432.313 112.344C432.313 111.952 432.43 111.593 432.663 111.266C432.897 110.939 433.228 110.683 433.657 110.496C434.087 110.3 434.577 110.202 435.127 110.202C435.977 110.202 436.663 110.417 437.185 110.846C437.708 111.275 437.988 111.863 438.025 112.61H436.751C436.723 112.209 436.56 111.887 436.261 111.644C435.972 111.401 435.58 111.28 435.085 111.28C434.628 111.28 434.264 111.378 433.993 111.574C433.723 111.77 433.587 112.027 433.587 112.344C433.587 112.596 433.667 112.806 433.825 112.974C433.993 113.133 434.199 113.263 434.441 113.366C434.693 113.459 435.039 113.567 435.477 113.688C436.028 113.837 436.476 113.987 436.821 114.136C437.167 114.276 437.461 114.491 437.703 114.78C437.955 115.069 438.086 115.447 438.095 115.914C438.095 116.334 437.979 116.712 437.745 117.048C437.512 117.384 437.181 117.65 436.751 117.846C436.331 118.033 435.846 118.126 435.295 118.126ZM168.956 138.126C168.368 138.126 167.841 138.028 167.374 137.832C166.907 137.627 166.539 137.347 166.268 136.992C165.997 136.628 165.848 136.213 165.82 135.746H167.136C167.173 136.129 167.351 136.441 167.668 136.684C167.995 136.927 168.419 137.048 168.942 137.048C169.427 137.048 169.81 136.941 170.09 136.726C170.37 136.511 170.51 136.241 170.51 135.914C170.51 135.578 170.361 135.331 170.062 135.172C169.763 135.004 169.301 134.841 168.676 134.682C168.107 134.533 167.64 134.383 167.276 134.234C166.921 134.075 166.613 133.847 166.352 133.548C166.1 133.24 165.974 132.839 165.974 132.344C165.974 131.952 166.091 131.593 166.324 131.266C166.557 130.939 166.889 130.683 167.318 130.496C167.747 130.3 168.237 130.202 168.788 130.202C169.637 130.202 170.323 130.417 170.846 130.846C171.369 131.275 171.649 131.863 171.686 132.61H170.412C170.384 132.209 170.221 131.887 169.922 131.644C169.633 131.401 169.241 131.28 168.746 131.28C168.289 131.28 167.925 131.378 167.654 131.574C167.383 131.77 167.248 132.027 167.248 132.344C167.248 132.596 167.327 132.806 167.486 132.974C167.654 133.133 167.859 133.263 168.102 133.366C168.354 133.459 168.699 133.567 169.138 133.688C169.689 133.837 170.137 133.987 170.482 134.136C170.827 134.276 171.121 134.491 171.364 134.78C171.616 135.069 171.747 135.447 171.756 135.914C171.756 136.334 171.639 136.712 171.406 137.048C171.173 137.384 170.841 137.65 170.412 137.846C169.992 138.033 169.507 138.126 168.956 138.126ZM177.755 138L174.745 134.612V138H173.471V127.64H174.745V133.73L177.699 130.328H179.477L175.865 134.15L179.491 138H177.755ZM187.592 133.87C187.592 134.113 187.578 134.369 187.55 134.64H181.418C181.464 135.396 181.721 135.989 182.188 136.418C182.664 136.838 183.238 137.048 183.91 137.048C184.46 137.048 184.918 136.922 185.282 136.67C185.655 136.409 185.916 136.063 186.066 135.634H187.438C187.232 136.371 186.822 136.973 186.206 137.44C185.59 137.897 184.824 138.126 183.91 138.126C183.182 138.126 182.528 137.963 181.95 137.636C181.38 137.309 180.932 136.847 180.606 136.25C180.279 135.643 180.116 134.943 180.116 134.15C180.116 133.357 180.274 132.661 180.592 132.064C180.909 131.467 181.352 131.009 181.922 130.692C182.5 130.365 183.163 130.202 183.91 130.202C184.638 130.202 185.282 130.361 185.842 130.678C186.402 130.995 186.831 131.434 187.13 131.994C187.438 132.545 187.592 133.17 187.592 133.87ZM186.276 133.604C186.276 133.119 186.168 132.703 185.954 132.358C185.739 132.003 185.445 131.737 185.072 131.56C184.708 131.373 184.302 131.28 183.854 131.28C183.21 131.28 182.659 131.485 182.202 131.896C181.754 132.307 181.497 132.876 181.432 133.604H186.276ZM190.463 131.742C190.715 131.303 191.089 130.939 191.583 130.65C192.087 130.351 192.671 130.202 193.333 130.202C194.015 130.202 194.631 130.365 195.181 130.692C195.741 131.019 196.18 131.481 196.497 132.078C196.815 132.666 196.973 133.352 196.973 134.136C196.973 134.911 196.815 135.601 196.497 136.208C196.18 136.815 195.741 137.286 195.181 137.622C194.631 137.958 194.015 138.126 193.333 138.126C192.68 138.126 192.101 137.981 191.597 137.692C191.103 137.393 190.725 137.025 190.463 136.586V141.64H189.189V130.328H190.463V131.742ZM195.671 134.136C195.671 133.557 195.555 133.053 195.321 132.624C195.088 132.195 194.771 131.868 194.369 131.644C193.977 131.42 193.543 131.308 193.067 131.308C192.601 131.308 192.167 131.425 191.765 131.658C191.373 131.882 191.056 132.213 190.813 132.652C190.58 133.081 190.463 133.581 190.463 134.15C190.463 134.729 190.58 135.237 190.813 135.676C191.056 136.105 191.373 136.437 191.765 136.67C192.167 136.894 192.601 137.006 193.067 137.006C193.543 137.006 193.977 136.894 194.369 136.67C194.771 136.437 195.088 136.105 195.321 135.676C195.555 135.237 195.671 134.724 195.671 134.136ZM200.12 131.378V135.9C200.12 136.273 200.2 136.539 200.358 136.698C200.517 136.847 200.792 136.922 201.184 136.922H202.122V138H200.974C200.265 138 199.733 137.837 199.378 137.51C199.024 137.183 198.846 136.647 198.846 135.9V131.378H197.852V130.328H198.846V128.396H200.12V130.328H202.122V131.378H200.12ZM204.24 129.082C203.997 129.082 203.792 128.998 203.624 128.83C203.456 128.662 203.372 128.457 203.372 128.214C203.372 127.971 203.456 127.766 203.624 127.598C203.792 127.43 203.997 127.346 204.24 127.346C204.473 127.346 204.669 127.43 204.828 127.598C204.996 127.766 205.08 127.971 205.08 128.214C205.08 128.457 204.996 128.662 204.828 128.83C204.669 128.998 204.473 129.082 204.24 129.082ZM204.856 130.328V138H203.582V130.328H204.856ZM206.467 134.15C206.467 133.357 206.626 132.666 206.943 132.078C207.26 131.481 207.699 131.019 208.259 130.692C208.828 130.365 209.477 130.202 210.205 130.202C211.148 130.202 211.922 130.431 212.529 130.888C213.145 131.345 213.551 131.98 213.747 132.792H212.375C212.244 132.325 211.988 131.957 211.605 131.686C211.232 131.415 210.765 131.28 210.205 131.28C209.477 131.28 208.889 131.532 208.441 132.036C207.993 132.531 207.769 133.235 207.769 134.15C207.769 135.074 207.993 135.788 208.441 136.292C208.889 136.796 209.477 137.048 210.205 137.048C210.765 137.048 211.232 136.917 211.605 136.656C211.978 136.395 212.235 136.021 212.375 135.536H213.747C213.542 136.32 213.131 136.95 212.515 137.426C211.899 137.893 211.129 138.126 210.205 138.126C209.477 138.126 208.828 137.963 208.259 137.636C207.699 137.309 207.26 136.847 206.943 136.25C206.626 135.653 206.467 134.953 206.467 134.15ZM214.887 134.136C214.887 133.352 215.046 132.666 215.363 132.078C215.68 131.481 216.114 131.019 216.665 130.692C217.225 130.365 217.846 130.202 218.527 130.202C219.199 130.202 219.782 130.347 220.277 130.636C220.772 130.925 221.14 131.289 221.383 131.728V130.328H222.671V138H221.383V136.572C221.131 137.02 220.753 137.393 220.249 137.692C219.754 137.981 219.176 138.126 218.513 138.126C217.832 138.126 217.216 137.958 216.665 137.622C216.114 137.286 215.68 136.815 215.363 136.208C215.046 135.601 214.887 134.911 214.887 134.136ZM221.383 134.15C221.383 133.571 221.266 133.067 221.033 132.638C220.8 132.209 220.482 131.882 220.081 131.658C219.689 131.425 219.255 131.308 218.779 131.308C218.303 131.308 217.869 131.42 217.477 131.644C217.085 131.868 216.772 132.195 216.539 132.624C216.306 133.053 216.189 133.557 216.189 134.136C216.189 134.724 216.306 135.237 216.539 135.676C216.772 136.105 217.085 136.437 217.477 136.67C217.869 136.894 218.303 137.006 218.779 137.006C219.255 137.006 219.689 136.894 220.081 136.67C220.482 136.437 220.8 136.105 221.033 135.676C221.266 135.237 221.383 134.729 221.383 134.15ZM226.014 127.64V138H224.74V127.64H226.014ZM229.417 136.236L227.849 140.002H226.995L228.017 136.236H229.417ZM241.441 133.87C241.441 134.113 241.427 134.369 241.399 134.64H235.267C235.314 135.396 235.57 135.989 236.037 136.418C236.513 136.838 237.087 137.048 237.759 137.048C238.31 137.048 238.767 136.922 239.131 136.67C239.504 136.409 239.766 136.063 239.915 135.634H241.287C241.082 136.371 240.671 136.973 240.055 137.44C239.439 137.897 238.674 138.126 237.759 138.126C237.031 138.126 236.378 137.963 235.799 137.636C235.23 137.309 234.782 136.847 234.455 136.25C234.128 135.643 233.965 134.943 233.965 134.15C233.965 133.357 234.124 132.661 234.441 132.064C234.758 131.467 235.202 131.009 235.771 130.692C236.35 130.365 237.012 130.202 237.759 130.202C238.487 130.202 239.131 130.361 239.691 130.678C240.251 130.995 240.68 131.434 240.979 131.994C241.287 132.545 241.441 133.17 241.441 133.87ZM240.125 133.604C240.125 133.119 240.018 132.703 239.803 132.358C239.588 132.003 239.294 131.737 238.921 131.56C238.557 131.373 238.151 131.28 237.703 131.28C237.059 131.28 236.508 131.485 236.051 131.896C235.603 132.307 235.346 132.876 235.281 133.604H240.125ZM245.895 136.824L248.275 130.328H249.633L246.623 138H245.139L242.129 130.328H243.501L245.895 136.824ZM257.802 133.87C257.802 134.113 257.788 134.369 257.76 134.64H251.628C251.675 135.396 251.932 135.989 252.398 136.418C252.874 136.838 253.448 137.048 254.12 137.048C254.671 137.048 255.128 136.922 255.492 136.67C255.866 136.409 256.127 136.063 256.276 135.634H257.648C257.443 136.371 257.032 136.973 256.416 137.44C255.8 137.897 255.035 138.126 254.12 138.126C253.392 138.126 252.739 137.963 252.16 137.636C251.591 137.309 251.143 136.847 250.816 136.25C250.49 135.643 250.326 134.943 250.326 134.15C250.326 133.357 250.485 132.661 250.802 132.064C251.12 131.467 251.563 131.009 252.132 130.692C252.711 130.365 253.374 130.202 254.12 130.202C254.848 130.202 255.492 130.361 256.052 130.678C256.612 130.995 257.042 131.434 257.34 131.994C257.648 132.545 257.802 133.17 257.802 133.87ZM256.486 133.604C256.486 133.119 256.379 132.703 256.164 132.358C255.95 132.003 255.656 131.737 255.282 131.56C254.918 131.373 254.512 131.28 254.064 131.28C253.42 131.28 252.87 131.485 252.412 131.896C251.964 132.307 251.708 132.876 251.642 133.604H256.486ZM260.674 131.574C260.898 131.135 261.215 130.795 261.626 130.552C262.046 130.309 262.555 130.188 263.152 130.188V131.504H262.816C261.388 131.504 260.674 132.279 260.674 133.828V138H259.4V130.328H260.674V131.574ZM271.147 130.328L266.527 141.612H265.211L266.723 137.916L263.629 130.328H265.043L267.451 136.544L269.831 130.328H271.147ZM273.897 131.378V135.9C273.897 136.273 273.977 136.539 274.135 136.698C274.294 136.847 274.569 136.922 274.961 136.922H275.899V138H274.751C274.042 138 273.51 137.837 273.155 137.51C272.801 137.183 272.623 136.647 272.623 135.9V131.378H271.629V130.328H272.623V128.396H273.897V130.328H275.899V131.378H273.897ZM281.167 130.188C281.746 130.188 282.268 130.314 282.735 130.566C283.202 130.809 283.566 131.177 283.827 131.672C284.098 132.167 284.233 132.769 284.233 133.478V138H282.973V133.66C282.973 132.895 282.782 132.311 282.399 131.91C282.016 131.499 281.494 131.294 280.831 131.294C280.159 131.294 279.622 131.504 279.221 131.924C278.829 132.344 278.633 132.955 278.633 133.758V138H277.359V127.64H278.633V131.42C278.885 131.028 279.23 130.725 279.669 130.51C280.117 130.295 280.616 130.188 281.167 130.188ZM286.888 129.082C286.645 129.082 286.44 128.998 286.272 128.83C286.104 128.662 286.02 128.457 286.02 128.214C286.02 127.971 286.104 127.766 286.272 127.598C286.44 127.43 286.645 127.346 286.888 127.346C287.121 127.346 287.317 127.43 287.476 127.598C287.644 127.766 287.728 127.971 287.728 128.214C287.728 128.457 287.644 128.662 287.476 128.83C287.317 128.998 287.121 129.082 286.888 129.082ZM287.504 130.328V138H286.23V130.328H287.504ZM293.329 130.188C294.263 130.188 295.019 130.473 295.597 131.042C296.176 131.602 296.465 132.414 296.465 133.478V138H295.205V133.66C295.205 132.895 295.014 132.311 294.631 131.91C294.249 131.499 293.726 131.294 293.063 131.294C292.391 131.294 291.855 131.504 291.453 131.924C291.061 132.344 290.865 132.955 290.865 133.758V138H289.591V130.328H290.865V131.42C291.117 131.028 291.458 130.725 291.887 130.51C292.326 130.295 292.807 130.188 293.329 130.188ZM301.626 130.202C302.289 130.202 302.868 130.347 303.362 130.636C303.866 130.925 304.24 131.289 304.482 131.728V130.328H305.77V138.168C305.77 138.868 305.621 139.489 305.322 140.03C305.024 140.581 304.594 141.01 304.034 141.318C303.484 141.626 302.84 141.78 302.102 141.78C301.094 141.78 300.254 141.542 299.582 141.066C298.91 140.59 298.514 139.941 298.392 139.12H299.652C299.792 139.587 300.082 139.96 300.52 140.24C300.959 140.529 301.486 140.674 302.102 140.674C302.802 140.674 303.372 140.455 303.81 140.016C304.258 139.577 304.482 138.961 304.482 138.168V136.558C304.23 137.006 303.857 137.379 303.362 137.678C302.868 137.977 302.289 138.126 301.626 138.126C300.945 138.126 300.324 137.958 299.764 137.622C299.214 137.286 298.78 136.815 298.462 136.208C298.145 135.601 297.986 134.911 297.986 134.136C297.986 133.352 298.145 132.666 298.462 132.078C298.78 131.481 299.214 131.019 299.764 130.692C300.324 130.365 300.945 130.202 301.626 130.202ZM304.482 134.15C304.482 133.571 304.366 133.067 304.132 132.638C303.899 132.209 303.582 131.882 303.18 131.658C302.788 131.425 302.354 131.308 301.878 131.308C301.402 131.308 300.968 131.42 300.576 131.644C300.184 131.868 299.872 132.195 299.638 132.624C299.405 133.053 299.288 133.557 299.288 134.136C299.288 134.724 299.405 135.237 299.638 135.676C299.872 136.105 300.184 136.437 300.576 136.67C300.968 136.894 301.402 137.006 301.878 137.006C302.354 137.006 302.788 136.894 303.18 136.67C303.582 136.437 303.899 136.105 304.132 135.676C304.366 135.237 304.482 134.729 304.482 134.15ZM313.042 131.378V135.9C313.042 136.273 313.121 136.539 313.28 136.698C313.438 136.847 313.714 136.922 314.106 136.922H315.044V138H313.896C313.186 138 312.654 137.837 312.3 137.51C311.945 137.183 311.768 136.647 311.768 135.9V131.378H310.774V130.328H311.768V128.396H313.042V130.328H315.044V131.378H313.042ZM323.307 130.328V138H322.033V136.866C321.791 137.258 321.45 137.566 321.011 137.79C320.582 138.005 320.106 138.112 319.583 138.112C318.986 138.112 318.449 137.991 317.973 137.748C317.497 137.496 317.119 137.123 316.839 136.628C316.569 136.133 316.433 135.531 316.433 134.822V130.328H317.693V134.654C317.693 135.41 317.885 135.993 318.267 136.404C318.65 136.805 319.173 137.006 319.835 137.006C320.517 137.006 321.053 136.796 321.445 136.376C321.837 135.956 322.033 135.345 322.033 134.542V130.328H323.307ZM326.648 131.574C326.872 131.135 327.19 130.795 327.6 130.552C328.02 130.309 328.529 130.188 329.126 130.188V131.504H328.79C327.362 131.504 326.648 132.279 326.648 133.828V138H325.374V130.328H326.648V131.574ZM334.251 130.188C335.184 130.188 335.94 130.473 336.519 131.042C337.098 131.602 337.387 132.414 337.387 133.478V138H336.127V133.66C336.127 132.895 335.936 132.311 335.553 131.91C335.17 131.499 334.648 131.294 333.985 131.294C333.313 131.294 332.776 131.504 332.375 131.924C331.983 132.344 331.787 132.955 331.787 133.758V138H330.513V130.328H331.787V131.42C332.039 131.028 332.38 130.725 332.809 130.51C333.248 130.295 333.728 130.188 334.251 130.188ZM346.384 133.87C346.384 134.113 346.37 134.369 346.342 134.64H340.21C340.257 135.396 340.514 135.989 340.98 136.418C341.456 136.838 342.03 137.048 342.702 137.048C343.253 137.048 343.71 136.922 344.074 136.67C344.448 136.409 344.709 136.063 344.858 135.634H346.23C346.025 136.371 345.614 136.973 344.998 137.44C344.382 137.897 343.617 138.126 342.702 138.126C341.974 138.126 341.321 137.963 340.742 137.636C340.173 137.309 339.725 136.847 339.398 136.25C339.072 135.643 338.908 134.943 338.908 134.15C338.908 133.357 339.067 132.661 339.384 132.064C339.702 131.467 340.145 131.009 340.714 130.692C341.293 130.365 341.956 130.202 342.702 130.202C343.43 130.202 344.074 130.361 344.634 130.678C345.194 130.995 345.624 131.434 345.922 131.994C346.23 132.545 346.384 133.17 346.384 133.87ZM345.068 133.604C345.068 133.119 344.961 132.703 344.746 132.358C344.532 132.003 344.238 131.737 343.864 131.56C343.5 131.373 343.094 131.28 342.646 131.28C342.002 131.28 341.452 131.485 340.994 131.896C340.546 132.307 340.29 132.876 340.224 133.604H345.068ZM347.506 134.136C347.506 133.352 347.665 132.666 347.982 132.078C348.299 131.481 348.733 131.019 349.284 130.692C349.844 130.365 350.469 130.202 351.16 130.202C351.757 130.202 352.313 130.342 352.826 130.622C353.339 130.893 353.731 131.252 354.002 131.7V127.64H355.29V138H354.002V136.558C353.75 137.015 353.377 137.393 352.882 137.692C352.387 137.981 351.809 138.126 351.146 138.126C350.465 138.126 349.844 137.958 349.284 137.622C348.733 137.286 348.299 136.815 347.982 136.208C347.665 135.601 347.506 134.911 347.506 134.136ZM354.002 134.15C354.002 133.571 353.885 133.067 353.652 132.638C353.419 132.209 353.101 131.882 352.7 131.658C352.308 131.425 351.874 131.308 351.398 131.308C350.922 131.308 350.488 131.42 350.096 131.644C349.704 131.868 349.391 132.195 349.158 132.624C348.925 133.053 348.808 133.557 348.808 134.136C348.808 134.724 348.925 135.237 349.158 135.676C349.391 136.105 349.704 136.437 350.096 136.67C350.488 136.894 350.922 137.006 351.398 137.006C351.874 137.006 352.308 136.894 352.7 136.67C353.101 136.437 353.419 136.105 353.652 135.676C353.885 135.237 354.002 134.729 354.002 134.15ZM364.353 138.126C363.635 138.126 362.981 137.963 362.393 137.636C361.815 137.309 361.357 136.847 361.021 136.25C360.695 135.643 360.531 134.943 360.531 134.15C360.531 133.366 360.699 132.675 361.035 132.078C361.381 131.471 361.847 131.009 362.435 130.692C363.023 130.365 363.681 130.202 364.409 130.202C365.137 130.202 365.795 130.365 366.383 130.692C366.971 131.009 367.433 131.467 367.769 132.064C368.115 132.661 368.287 133.357 368.287 134.15C368.287 134.943 368.11 135.643 367.755 136.25C367.41 136.847 366.939 137.309 366.341 137.636C365.744 137.963 365.081 138.126 364.353 138.126ZM364.353 137.006C364.811 137.006 365.24 136.899 365.641 136.684C366.043 136.469 366.365 136.147 366.607 135.718C366.859 135.289 366.985 134.766 366.985 134.15C366.985 133.534 366.864 133.011 366.621 132.582C366.379 132.153 366.061 131.835 365.669 131.63C365.277 131.415 364.853 131.308 364.395 131.308C363.929 131.308 363.499 131.415 363.107 131.63C362.725 131.835 362.417 132.153 362.183 132.582C361.95 133.011 361.833 133.534 361.833 134.15C361.833 134.775 361.945 135.303 362.169 135.732C362.403 136.161 362.711 136.483 363.093 136.698C363.476 136.903 363.896 137.006 364.353 137.006ZM376.682 130.328V138H375.408V136.866C375.166 137.258 374.825 137.566 374.386 137.79C373.957 138.005 373.481 138.112 372.958 138.112C372.361 138.112 371.824 137.991 371.348 137.748C370.872 137.496 370.494 137.123 370.214 136.628C369.944 136.133 369.808 135.531 369.808 134.822V130.328H371.068V134.654C371.068 135.41 371.26 135.993 371.642 136.404C372.025 136.805 372.548 137.006 373.21 137.006C373.892 137.006 374.428 136.796 374.82 136.376C375.212 135.956 375.408 135.345 375.408 134.542V130.328H376.682ZM380.303 131.378V135.9C380.303 136.273 380.383 136.539 380.541 136.698C380.7 136.847 380.975 136.922 381.367 136.922H382.305V138H381.157C380.448 138 379.916 137.837 379.561 137.51C379.207 137.183 379.029 136.647 379.029 135.9V131.378H378.035V130.328H379.029V128.396H380.303V130.328H382.305V131.378H380.303ZM388.687 131.742C388.939 131.303 389.313 130.939 389.807 130.65C390.311 130.351 390.895 130.202 391.557 130.202C392.239 130.202 392.855 130.365 393.405 130.692C393.965 131.019 394.404 131.481 394.721 132.078C395.039 132.666 395.197 133.352 395.197 134.136C395.197 134.911 395.039 135.601 394.721 136.208C394.404 136.815 393.965 137.286 393.405 137.622C392.855 137.958 392.239 138.126 391.557 138.126C390.904 138.126 390.325 137.981 389.821 137.692C389.327 137.393 388.949 137.025 388.687 136.586V141.64H387.413V130.328H388.687V131.742ZM393.895 134.136C393.895 133.557 393.779 133.053 393.545 132.624C393.312 132.195 392.995 131.868 392.593 131.644C392.201 131.42 391.767 131.308 391.291 131.308C390.825 131.308 390.391 131.425 389.989 131.658C389.597 131.882 389.28 132.213 389.037 132.652C388.804 133.081 388.687 133.581 388.687 134.15C388.687 134.729 388.804 135.237 389.037 135.676C389.28 136.105 389.597 136.437 389.989 136.67C390.391 136.894 390.825 137.006 391.291 137.006C391.767 137.006 392.201 136.894 392.593 136.67C392.995 136.437 393.312 136.105 393.545 135.676C393.779 135.237 393.895 134.724 393.895 134.136ZM403.79 133.87C403.79 134.113 403.776 134.369 403.748 134.64H397.616C397.663 135.396 397.92 135.989 398.386 136.418C398.862 136.838 399.436 137.048 400.108 137.048C400.659 137.048 401.116 136.922 401.48 136.67C401.854 136.409 402.115 136.063 402.264 135.634H403.636C403.431 136.371 403.02 136.973 402.404 137.44C401.788 137.897 401.023 138.126 400.108 138.126C399.38 138.126 398.727 137.963 398.148 137.636C397.579 137.309 397.131 136.847 396.804 136.25C396.478 135.643 396.314 134.943 396.314 134.15C396.314 133.357 396.473 132.661 396.79 132.064C397.108 131.467 397.551 131.009 398.12 130.692C398.699 130.365 399.362 130.202 400.108 130.202C400.836 130.202 401.48 130.361 402.04 130.678C402.6 130.995 403.03 131.434 403.328 131.994C403.636 132.545 403.79 133.17 403.79 133.87ZM402.474 133.604C402.474 133.119 402.367 132.703 402.152 132.358C401.938 132.003 401.644 131.737 401.27 131.56C400.906 131.373 400.5 131.28 400.052 131.28C399.408 131.28 398.858 131.485 398.4 131.896C397.952 132.307 397.696 132.876 397.63 133.604H402.474ZM406.662 131.574C406.886 131.135 407.203 130.795 407.614 130.552C408.034 130.309 408.543 130.188 409.14 130.188V131.504H408.804C407.376 131.504 406.662 132.279 406.662 133.828V138H405.388V130.328H406.662V131.574ZM413.649 131.378H412.039V138H410.765V131.378H409.771V130.328H410.765V129.782C410.765 128.923 410.984 128.298 411.423 127.906C411.871 127.505 412.585 127.304 413.565 127.304V128.368C413.005 128.368 412.608 128.48 412.375 128.704C412.151 128.919 412.039 129.278 412.039 129.782V130.328H413.649V131.378ZM422.05 133.87C422.05 134.113 422.036 134.369 422.008 134.64H415.876C415.923 135.396 416.179 135.989 416.646 136.418C417.122 136.838 417.696 137.048 418.368 137.048C418.919 137.048 419.376 136.922 419.74 136.67C420.113 136.409 420.375 136.063 420.524 135.634H421.896C421.691 136.371 421.28 136.973 420.664 137.44C420.048 137.897 419.283 138.126 418.368 138.126C417.64 138.126 416.987 137.963 416.408 137.636C415.839 137.309 415.391 136.847 415.064 136.25C414.737 135.643 414.574 134.943 414.574 134.15C414.574 133.357 414.733 132.661 415.05 132.064C415.367 131.467 415.811 131.009 416.38 130.692C416.959 130.365 417.621 130.202 418.368 130.202C419.096 130.202 419.74 130.361 420.3 130.678C420.86 130.995 421.289 131.434 421.588 131.994C421.896 132.545 422.05 133.17 422.05 133.87ZM420.734 133.604C420.734 133.119 420.627 132.703 420.412 132.358C420.197 132.003 419.903 131.737 419.53 131.56C419.166 131.373 418.76 131.28 418.312 131.28C417.668 131.28 417.117 131.485 416.66 131.896C416.212 132.307 415.955 132.876 415.89 133.604H420.734ZM423.172 134.15C423.172 133.357 423.33 132.666 423.648 132.078C423.965 131.481 424.404 131.019 424.964 130.692C425.533 130.365 426.182 130.202 426.91 130.202C427.852 130.202 428.627 130.431 429.234 130.888C429.85 131.345 430.256 131.98 430.452 132.792H429.08C428.949 132.325 428.692 131.957 428.31 131.686C427.936 131.415 427.47 131.28 426.91 131.28C426.182 131.28 425.594 131.532 425.146 132.036C424.698 132.531 424.474 133.235 424.474 134.15C424.474 135.074 424.698 135.788 425.146 136.292C425.594 136.796 426.182 137.048 426.91 137.048C427.47 137.048 427.936 136.917 428.31 136.656C428.683 136.395 428.94 136.021 429.08 135.536H430.452C430.246 136.32 429.836 136.95 429.22 137.426C428.604 137.893 427.834 138.126 426.91 138.126C426.182 138.126 425.533 137.963 424.964 137.636C424.404 137.309 423.965 136.847 423.648 136.25C423.33 135.653 423.172 134.953 423.172 134.15ZM433.622 131.378V135.9C433.622 136.273 433.701 136.539 433.86 136.698C434.018 136.847 434.294 136.922 434.686 136.922H435.624V138H434.476C433.766 138 433.234 137.837 432.88 137.51C432.525 137.183 432.348 136.647 432.348 135.9V131.378H431.354V130.328H432.348V128.396H433.622V130.328H435.624V131.378H433.622ZM438.735 128.242L438.581 135.242H437.517L437.363 128.242H438.735ZM438.105 138.084C437.863 138.084 437.657 138 437.489 137.832C437.321 137.664 437.237 137.459 437.237 137.216C437.237 136.973 437.321 136.768 437.489 136.6C437.657 136.432 437.863 136.348 438.105 136.348C438.339 136.348 438.535 136.432 438.693 136.6C438.861 136.768 438.945 136.973 438.945 137.216C438.945 137.459 438.861 137.664 438.693 137.832C438.535 138 438.339 138.084 438.105 138.084Z" fill="#5A5A5A"/>
<rect x="165.162" y="157" width="81" height="44" rx="6" fill="#CF6251"/>
<path d="M191.011 179.044C191.011 180.024 190.806 180.887 190.395 181.634C189.984 182.381 189.387 182.964 188.603 183.384C187.828 183.795 186.904 184 185.831 184H182.317V174.116H185.831C186.904 174.116 187.828 174.321 188.603 174.732C189.387 175.133 189.984 175.707 190.395 176.454C190.806 177.191 191.011 178.055 191.011 179.044ZM185.663 182.236C186.727 182.236 187.548 181.956 188.127 181.396C188.715 180.836 189.009 180.052 189.009 179.044C189.009 178.027 188.715 177.238 188.127 176.678C187.548 176.118 186.727 175.838 185.663 175.838H184.291V182.236H185.663ZM199.699 179.828C199.699 180.024 199.675 180.248 199.629 180.5H193.945C193.973 181.191 194.159 181.699 194.505 182.026C194.85 182.353 195.279 182.516 195.793 182.516C196.25 182.516 196.628 182.404 196.927 182.18C197.235 181.956 197.431 181.653 197.515 181.27H199.601C199.498 181.811 199.279 182.297 198.943 182.726C198.607 183.155 198.173 183.491 197.641 183.734C197.118 183.977 196.535 184.098 195.891 184.098C195.135 184.098 194.463 183.939 193.875 183.622C193.287 183.295 192.829 182.833 192.503 182.236C192.176 181.639 192.013 180.934 192.013 180.122C192.013 179.31 192.176 178.605 192.503 178.008C192.829 177.401 193.287 176.939 193.875 176.622C194.463 176.305 195.135 176.146 195.891 176.146C196.656 176.146 197.323 176.305 197.893 176.622C198.471 176.939 198.915 177.378 199.223 177.938C199.54 178.489 199.699 179.119 199.699 179.828ZM197.711 179.632C197.739 178.997 197.571 178.517 197.207 178.19C196.852 177.863 196.413 177.7 195.891 177.7C195.359 177.7 194.911 177.863 194.547 178.19C194.183 178.517 193.982 178.997 193.945 179.632H197.711ZM205.16 182.306V184H204.124C203.256 184 202.589 183.79 202.122 183.37C201.665 182.95 201.436 182.25 201.436 181.27V177.91H200.358V176.244H201.436V174.326H203.41V176.244H205.146V177.91H203.41V181.298C203.41 181.671 203.485 181.933 203.634 182.082C203.783 182.231 204.035 182.306 204.39 182.306H205.16ZM209.535 176.146C210.188 176.146 210.748 176.3 211.215 176.608C211.681 176.916 212.013 177.331 212.209 177.854V176.244H214.169V184H212.209V182.376C212.013 182.899 211.681 183.319 211.215 183.636C210.748 183.944 210.188 184.098 209.535 184.098C208.881 184.098 208.293 183.939 207.771 183.622C207.248 183.305 206.837 182.847 206.539 182.25C206.249 181.643 206.105 180.934 206.105 180.122C206.105 179.31 206.249 178.605 206.539 178.008C206.837 177.401 207.248 176.939 207.771 176.622C208.293 176.305 208.881 176.146 209.535 176.146ZM210.151 177.868C209.535 177.868 209.04 178.069 208.667 178.47C208.293 178.871 208.107 179.422 208.107 180.122C208.107 180.822 208.293 181.373 208.667 181.774C209.04 182.166 209.535 182.362 210.151 182.362C210.748 182.362 211.238 182.161 211.621 181.76C212.013 181.349 212.209 180.803 212.209 180.122C212.209 179.431 212.013 178.885 211.621 178.484C211.238 178.073 210.748 177.868 210.151 177.868ZM215.65 174.018C215.65 173.701 215.762 173.444 215.986 173.248C216.21 173.043 216.504 172.94 216.868 172.94C217.232 172.94 217.526 173.043 217.75 173.248C217.974 173.444 218.086 173.701 218.086 174.018C218.086 174.326 217.974 174.583 217.75 174.788C217.526 174.984 217.232 175.082 216.868 175.082C216.504 175.082 216.21 174.984 215.986 174.788C215.762 174.583 215.65 174.326 215.65 174.018ZM217.848 176.244V184H215.874V176.244H217.848ZM221.523 173.64V184H219.549V173.64H221.523ZM225.899 176.146C226.842 176.146 227.598 176.384 228.167 176.86C228.736 177.336 229.091 177.971 229.231 178.764H227.383C227.308 178.391 227.14 178.092 226.879 177.868C226.618 177.644 226.277 177.532 225.857 177.532C225.521 177.532 225.26 177.611 225.073 177.77C224.886 177.929 224.793 178.143 224.793 178.414C224.793 178.629 224.868 178.801 225.017 178.932C225.166 179.063 225.353 179.165 225.577 179.24C225.801 179.315 226.123 179.403 226.543 179.506C227.131 179.637 227.607 179.777 227.971 179.926C228.344 180.066 228.662 180.295 228.923 180.612C229.194 180.92 229.329 181.34 229.329 181.872C229.329 182.535 229.068 183.071 228.545 183.482C228.032 183.893 227.336 184.098 226.459 184.098C225.451 184.098 224.644 183.874 224.037 183.426C223.43 182.969 223.062 182.32 222.931 181.48H224.821C224.868 181.863 225.036 182.166 225.325 182.39C225.614 182.605 225.992 182.712 226.459 182.712C226.795 182.712 227.052 182.633 227.229 182.474C227.406 182.306 227.495 182.091 227.495 181.83C227.495 181.606 227.416 181.424 227.257 181.284C227.108 181.144 226.916 181.037 226.683 180.962C226.459 180.887 226.137 180.799 225.717 180.696C225.138 180.565 224.667 180.435 224.303 180.304C223.948 180.164 223.64 179.945 223.379 179.646C223.127 179.347 223.001 178.937 223.001 178.414C223.001 177.742 223.258 177.196 223.771 176.776C224.284 176.356 224.994 176.146 225.899 176.146Z" fill="white"/>
<path d="M172.162 160H239.162V154H172.162V160ZM243.162 164V194H249.162V164H243.162ZM239.162 198H172.162V204H239.162V198ZM168.162 194V164H162.162V194H168.162ZM172.162 198C169.953 198 168.162 196.209 168.162 194H162.162C162.162 199.523 166.639 204 172.162 204V198ZM243.162 194C243.162 196.209 241.371 198 239.162 198V204C244.685 204 249.162 199.523 249.162 194H243.162ZM239.162 160C241.371 160 243.162 161.791 243.162 164H249.162C249.162 158.477 244.685 154 239.162 154V160ZM172.162 154C166.639 154 162.162 158.477 162.162 164H168.162C168.162 161.791 169.953 160 172.162 160V154Z" fill="#F87661" fill-opacity="0.2"/>
</svg>
