<svg width="483" height="262" viewBox="0 0 483 262" fill="none" xmlns="http://www.w3.org/2000/svg">
<rect width="482.581" height="262" rx="30" fill="#FEE4DF"/>
<circle cx="87" cy="98" r="52" fill="#FDD1CA"/>
<path d="M171.26 68.04C172.727 68.04 174.013 68.3267 175.12 68.9C176.24 69.4733 177.1 70.2933 177.7 71.36C178.313 72.4133 178.62 73.64 178.62 75.04C178.62 76.44 178.313 77.6667 177.7 78.72C177.1 79.76 176.24 80.5667 175.12 81.14C174.013 81.7133 172.727 82 171.26 82H166.38V68.04H171.26ZM171.16 79.62C172.627 79.62 173.76 79.22 174.56 78.42C175.36 77.62 175.76 76.4933 175.76 75.04C175.76 73.5867 175.36 72.4533 174.56 71.64C173.76 70.8133 172.627 70.4 171.16 70.4H169.18V79.62H171.16ZM185.296 82.18C184.229 82.18 183.269 81.9467 182.416 81.48C181.563 81 180.889 80.3267 180.396 79.46C179.916 78.5933 179.676 77.5933 179.676 76.46C179.676 75.3267 179.923 74.3267 180.416 73.46C180.923 72.5933 181.609 71.9267 182.476 71.46C183.343 70.98 184.309 70.74 185.376 70.74C186.443 70.74 187.409 70.98 188.276 71.46C189.143 71.9267 189.823 72.5933 190.316 73.46C190.823 74.3267 191.076 75.3267 191.076 76.46C191.076 77.5933 190.816 78.5933 190.296 79.46C189.789 80.3267 189.096 81 188.216 81.48C187.349 81.9467 186.376 82.18 185.296 82.18ZM185.296 79.74C185.803 79.74 186.276 79.62 186.716 79.38C187.169 79.1267 187.529 78.7533 187.796 78.26C188.063 77.7667 188.196 77.1667 188.196 76.46C188.196 75.4067 187.916 74.6 187.356 74.04C186.809 73.4667 186.136 73.18 185.336 73.18C184.536 73.18 183.863 73.4667 183.316 74.04C182.783 74.6 182.516 75.4067 182.516 76.46C182.516 77.5133 182.776 78.3267 183.296 78.9C183.829 79.46 184.496 79.74 185.296 79.74ZM197.13 70.74C197.957 70.74 198.683 70.9067 199.31 71.24C199.937 71.56 200.43 71.98 200.79 72.5V70.92H203.61V82.08C203.61 83.1067 203.403 84.02 202.99 84.82C202.577 85.6333 201.957 86.2733 201.13 86.74C200.303 87.22 199.303 87.46 198.13 87.46C196.557 87.46 195.263 87.0933 194.25 86.36C193.25 85.6267 192.683 84.6267 192.55 83.36H195.33C195.477 83.8667 195.79 84.2667 196.27 84.56C196.763 84.8667 197.357 85.02 198.05 85.02C198.863 85.02 199.523 84.7733 200.03 84.28C200.537 83.8 200.79 83.0667 200.79 82.08V80.36C200.43 80.88 199.93 81.3133 199.29 81.66C198.663 82.0067 197.943 82.18 197.13 82.18C196.197 82.18 195.343 81.94 194.57 81.46C193.797 80.98 193.183 80.3067 192.73 79.44C192.29 78.56 192.07 77.5533 192.07 76.42C192.07 75.3 192.29 74.3067 192.73 73.44C193.183 72.5733 193.79 71.9067 194.55 71.44C195.323 70.9733 196.183 70.74 197.13 70.74ZM200.79 76.46C200.79 75.78 200.657 75.2 200.39 74.72C200.123 74.2267 199.763 73.8533 199.31 73.6C198.857 73.3333 198.37 73.2 197.85 73.2C197.33 73.2 196.85 73.3267 196.41 73.58C195.97 73.8333 195.61 74.2067 195.33 74.7C195.063 75.18 194.93 75.7533 194.93 76.42C194.93 77.0867 195.063 77.6733 195.33 78.18C195.61 78.6733 195.97 79.0533 196.41 79.32C196.863 79.5867 197.343 79.72 197.85 79.72C198.37 79.72 198.857 79.5933 199.31 79.34C199.763 79.0733 200.123 78.7 200.39 78.22C200.657 77.7267 200.79 77.14 200.79 76.46ZM213.23 72.52C213.59 72.0133 214.083 71.5933 214.71 71.26C215.35 70.9133 216.077 70.74 216.89 70.74C217.837 70.74 218.69 70.9733 219.45 71.44C220.223 71.9067 220.83 72.5733 221.27 73.44C221.723 74.2933 221.95 75.2867 221.95 76.42C221.95 77.5533 221.723 78.56 221.27 79.44C220.83 80.3067 220.223 80.98 219.45 81.46C218.69 81.94 217.837 82.18 216.89 82.18C216.077 82.18 215.357 82.0133 214.73 81.68C214.117 81.3467 213.617 80.9267 213.23 80.42V87.28H210.43V70.92H213.23V72.52ZM219.09 76.42C219.09 75.7533 218.95 75.18 218.67 74.7C218.403 74.2067 218.043 73.8333 217.59 73.58C217.15 73.3267 216.67 73.2 216.15 73.2C215.643 73.2 215.163 73.3333 214.71 73.6C214.27 73.8533 213.91 74.2267 213.63 74.72C213.363 75.2133 213.23 75.7933 213.23 76.46C213.23 77.1267 213.363 77.7067 213.63 78.2C213.91 78.6933 214.27 79.0733 214.71 79.34C215.163 79.5933 215.643 79.72 216.15 79.72C216.67 79.72 217.15 79.5867 217.59 79.32C218.043 79.0533 218.403 78.6733 218.67 78.18C218.95 77.6867 219.09 77.1 219.09 76.42ZM233.945 76.22C233.945 76.62 233.918 76.98 233.865 77.3H225.765C225.832 78.1 226.112 78.7267 226.605 79.18C227.098 79.6333 227.705 79.86 228.425 79.86C229.465 79.86 230.205 79.4133 230.645 78.52H233.665C233.345 79.5867 232.732 80.4667 231.825 81.16C230.918 81.84 229.805 82.18 228.485 82.18C227.418 82.18 226.458 81.9467 225.605 81.48C224.765 81 224.105 80.3267 223.625 79.46C223.158 78.5933 222.925 77.5933 222.925 76.46C222.925 75.3133 223.158 74.3067 223.625 73.44C224.092 72.5733 224.745 71.9067 225.585 71.44C226.425 70.9733 227.392 70.74 228.485 70.74C229.538 70.74 230.478 70.9667 231.305 71.42C232.145 71.8733 232.792 72.52 233.245 73.36C233.712 74.1867 233.945 75.14 233.945 76.22ZM231.045 75.42C231.032 74.7 230.772 74.1267 230.265 73.7C229.758 73.26 229.138 73.04 228.405 73.04C227.712 73.04 227.125 73.2533 226.645 73.68C226.178 74.0933 225.892 74.6733 225.785 75.42H231.045ZM238.909 73.22V78.58C238.909 78.9533 238.995 79.2267 239.169 79.4C239.355 79.56 239.662 79.64 240.089 79.64H241.389V82H239.629C237.269 82 236.089 80.8533 236.089 78.56V73.22H234.769V70.92H236.089V68.18H238.909V70.92H241.389V73.22H238.909ZM252.108 79.42L254.908 70.92H257.888L253.788 82H250.388L246.308 70.92H249.308L252.108 79.42ZM260.541 69.6C260.047 69.6 259.634 69.4467 259.301 69.14C258.981 68.82 258.821 68.4267 258.821 67.96C258.821 67.4933 258.981 67.1067 259.301 66.8C259.634 66.48 260.047 66.32 260.541 66.32C261.034 66.32 261.441 66.48 261.761 66.8C262.094 67.1067 262.261 67.4933 262.261 67.96C262.261 68.4267 262.094 68.82 261.761 69.14C261.441 69.4467 261.034 69.6 260.541 69.6ZM261.921 70.92V82H259.121V70.92H261.921ZM268.587 82.18C267.681 82.18 266.867 82.02 266.147 81.7C265.427 81.3667 264.854 80.92 264.427 80.36C264.014 79.8 263.787 79.18 263.747 78.5H266.567C266.621 78.9267 266.827 79.28 267.187 79.56C267.561 79.84 268.021 79.98 268.567 79.98C269.101 79.98 269.514 79.8733 269.807 79.66C270.114 79.4467 270.267 79.1733 270.267 78.84C270.267 78.48 270.081 78.2133 269.707 78.04C269.347 77.8533 268.767 77.6533 267.967 77.44C267.141 77.24 266.461 77.0333 265.927 76.82C265.407 76.6067 264.954 76.28 264.567 75.84C264.194 75.4 264.007 74.8067 264.007 74.06C264.007 73.4467 264.181 72.8867 264.527 72.38C264.887 71.8733 265.394 71.4733 266.047 71.18C266.714 70.8867 267.494 70.74 268.387 70.74C269.707 70.74 270.761 71.0733 271.547 71.74C272.334 72.3933 272.767 73.28 272.847 74.4H270.167C270.127 73.96 269.941 73.6133 269.607 73.36C269.287 73.0933 268.854 72.96 268.307 72.96C267.801 72.96 267.407 73.0533 267.127 73.24C266.861 73.4267 266.727 73.6867 266.727 74.02C266.727 74.3933 266.914 74.68 267.287 74.88C267.661 75.0667 268.241 75.26 269.027 75.46C269.827 75.66 270.487 75.8667 271.007 76.08C271.527 76.2933 271.974 76.6267 272.347 77.08C272.734 77.52 272.934 78.1067 272.947 78.84C272.947 79.48 272.767 80.0533 272.407 80.56C272.061 81.0667 271.554 81.4667 270.887 81.76C270.234 82.04 269.467 82.18 268.587 82.18ZM276.326 69.6C275.832 69.6 275.419 69.4467 275.086 69.14C274.766 68.82 274.606 68.4267 274.606 67.96C274.606 67.4933 274.766 67.1067 275.086 66.8C275.419 66.48 275.832 66.32 276.326 66.32C276.819 66.32 277.226 66.48 277.546 66.8C277.879 67.1067 278.046 67.4933 278.046 67.96C278.046 68.4267 277.879 68.82 277.546 69.14C277.226 69.4467 276.819 69.6 276.326 69.6ZM277.706 70.92V82H274.906V70.92H277.706ZM283.392 73.22V78.58C283.392 78.9533 283.479 79.2267 283.652 79.4C283.839 79.56 284.145 79.64 284.572 79.64H285.872V82H284.112C281.752 82 280.572 80.8533 280.572 78.56V73.22H279.252V70.92H280.572V68.18H283.392V70.92H285.872V73.22H283.392Z" fill="#5A5A5A"/>
<path d="M178.342 108.242L175.514 118H174.086L171.818 110.146L169.466 118L168.052 118.014L165.322 108.242H166.68L168.808 116.516L171.16 108.242H172.588L174.828 116.488L176.97 108.242H178.342ZM186.652 113.87C186.652 114.113 186.638 114.369 186.61 114.64H180.478C180.525 115.396 180.782 115.989 181.248 116.418C181.724 116.838 182.298 117.048 182.97 117.048C183.521 117.048 183.978 116.922 184.342 116.67C184.716 116.409 184.977 116.063 185.126 115.634H186.498C186.293 116.371 185.882 116.973 185.266 117.44C184.65 117.897 183.885 118.126 182.97 118.126C182.242 118.126 181.589 117.963 181.01 117.636C180.441 117.309 179.993 116.847 179.666 116.25C179.34 115.643 179.176 114.943 179.176 114.15C179.176 113.357 179.335 112.661 179.652 112.064C179.97 111.467 180.413 111.009 180.982 110.692C181.561 110.365 182.224 110.202 182.97 110.202C183.698 110.202 184.342 110.361 184.902 110.678C185.462 110.995 185.892 111.434 186.19 111.994C186.498 112.545 186.652 113.17 186.652 113.87ZM185.336 113.604C185.336 113.119 185.229 112.703 185.014 112.358C184.8 112.003 184.506 111.737 184.132 111.56C183.768 111.373 183.362 111.28 182.914 111.28C182.27 111.28 181.72 111.485 181.262 111.896C180.814 112.307 180.558 112.876 180.492 113.604H185.336ZM191.422 114.136C191.422 113.352 191.581 112.666 191.898 112.078C192.216 111.481 192.65 111.019 193.2 110.692C193.76 110.365 194.381 110.202 195.062 110.202C195.734 110.202 196.318 110.347 196.812 110.636C197.307 110.925 197.676 111.289 197.918 111.728V110.328H199.206V118H197.918V116.572C197.666 117.02 197.288 117.393 196.784 117.692C196.29 117.981 195.711 118.126 195.048 118.126C194.367 118.126 193.751 117.958 193.2 117.622C192.65 117.286 192.216 116.815 191.898 116.208C191.581 115.601 191.422 114.911 191.422 114.136ZM197.918 114.15C197.918 113.571 197.802 113.067 197.568 112.638C197.335 112.209 197.018 111.882 196.616 111.658C196.224 111.425 195.79 111.308 195.314 111.308C194.838 111.308 194.404 111.42 194.012 111.644C193.62 111.868 193.308 112.195 193.074 112.624C192.841 113.053 192.724 113.557 192.724 114.136C192.724 114.724 192.841 115.237 193.074 115.676C193.308 116.105 193.62 116.437 194.012 116.67C194.404 116.894 194.838 117.006 195.314 117.006C195.79 117.006 196.224 116.894 196.616 116.67C197.018 116.437 197.335 116.105 197.568 115.676C197.802 115.237 197.918 114.729 197.918 114.15ZM200.799 114.136C200.799 113.352 200.958 112.666 201.275 112.078C201.593 111.481 202.027 111.019 202.577 110.692C203.137 110.365 203.763 110.202 204.453 110.202C205.051 110.202 205.606 110.342 206.119 110.622C206.633 110.893 207.025 111.252 207.295 111.7V107.64H208.583V118H207.295V116.558C207.043 117.015 206.67 117.393 206.175 117.692C205.681 117.981 205.102 118.126 204.439 118.126C203.758 118.126 203.137 117.958 202.577 117.622C202.027 117.286 201.593 116.815 201.275 116.208C200.958 115.601 200.799 114.911 200.799 114.136ZM207.295 114.15C207.295 113.571 207.179 113.067 206.945 112.638C206.712 112.209 206.395 111.882 205.993 111.658C205.601 111.425 205.167 111.308 204.691 111.308C204.215 111.308 203.781 111.42 203.389 111.644C202.997 111.868 202.685 112.195 202.451 112.624C202.218 113.053 202.101 113.557 202.101 114.136C202.101 114.724 202.218 115.237 202.451 115.676C202.685 116.105 202.997 116.437 203.389 116.67C203.781 116.894 204.215 117.006 204.691 117.006C205.167 117.006 205.601 116.894 205.993 116.67C206.395 116.437 206.712 116.105 206.945 115.676C207.179 115.237 207.295 114.729 207.295 114.15ZM213.998 118.126C213.279 118.126 212.626 117.963 212.038 117.636C211.459 117.309 211.002 116.847 210.666 116.25C210.339 115.643 210.176 114.943 210.176 114.15C210.176 113.366 210.344 112.675 210.68 112.078C211.025 111.471 211.492 111.009 212.08 110.692C212.668 110.365 213.326 110.202 214.054 110.202C214.782 110.202 215.44 110.365 216.028 110.692C216.616 111.009 217.078 111.467 217.414 112.064C217.759 112.661 217.932 113.357 217.932 114.15C217.932 114.943 217.755 115.643 217.4 116.25C217.055 116.847 216.583 117.309 215.986 117.636C215.389 117.963 214.726 118.126 213.998 118.126ZM213.998 117.006C214.455 117.006 214.885 116.899 215.286 116.684C215.687 116.469 216.009 116.147 216.252 115.718C216.504 115.289 216.63 114.766 216.63 114.15C216.63 113.534 216.509 113.011 216.266 112.582C216.023 112.153 215.706 111.835 215.314 111.63C214.922 111.415 214.497 111.308 214.04 111.308C213.573 111.308 213.144 111.415 212.752 111.63C212.369 111.835 212.061 112.153 211.828 112.582C211.595 113.011 211.478 113.534 211.478 114.15C211.478 114.775 211.59 115.303 211.814 115.732C212.047 116.161 212.355 116.483 212.738 116.698C213.121 116.903 213.541 117.006 213.998 117.006ZM220.797 111.742C221.049 111.303 221.423 110.939 221.917 110.65C222.421 110.351 223.005 110.202 223.667 110.202C224.349 110.202 224.965 110.365 225.515 110.692C226.075 111.019 226.514 111.481 226.831 112.078C227.149 112.666 227.307 113.352 227.307 114.136C227.307 114.911 227.149 115.601 226.831 116.208C226.514 116.815 226.075 117.286 225.515 117.622C224.965 117.958 224.349 118.126 223.667 118.126C223.014 118.126 222.435 117.981 221.931 117.692C221.437 117.393 221.059 117.025 220.797 116.586V121.64H219.523V110.328H220.797V111.742ZM226.005 114.136C226.005 113.557 225.889 113.053 225.655 112.624C225.422 112.195 225.105 111.868 224.703 111.644C224.311 111.42 223.877 111.308 223.401 111.308C222.935 111.308 222.501 111.425 222.099 111.658C221.707 111.882 221.39 112.213 221.147 112.652C220.914 113.081 220.797 113.581 220.797 114.15C220.797 114.729 220.914 115.237 221.147 115.676C221.39 116.105 221.707 116.437 222.099 116.67C222.501 116.894 222.935 117.006 223.401 117.006C223.877 117.006 224.311 116.894 224.703 116.67C225.105 116.437 225.422 116.105 225.655 115.676C225.889 115.237 226.005 114.724 226.005 114.136ZM230.454 111.378V115.9C230.454 116.273 230.533 116.539 230.692 116.698C230.851 116.847 231.126 116.922 231.518 116.922H232.456V118H231.308C230.599 118 230.067 117.837 229.712 117.51C229.357 117.183 229.18 116.647 229.18 115.9V111.378H228.186V110.328H229.18V108.396H230.454V110.328H232.456V111.378H230.454ZM240.916 113.87C240.916 114.113 240.902 114.369 240.874 114.64H234.742C234.788 115.396 235.045 115.989 235.512 116.418C235.988 116.838 236.562 117.048 237.234 117.048C237.784 117.048 238.242 116.922 238.606 116.67C238.979 116.409 239.24 116.063 239.39 115.634H240.762C240.556 116.371 240.146 116.973 239.53 117.44C238.914 117.897 238.148 118.126 237.234 118.126C236.506 118.126 235.852 117.963 235.274 117.636C234.704 117.309 234.256 116.847 233.93 116.25C233.603 115.643 233.44 114.943 233.44 114.15C233.44 113.357 233.598 112.661 233.916 112.064C234.233 111.467 234.676 111.009 235.246 110.692C235.824 110.365 236.487 110.202 237.234 110.202C237.962 110.202 238.606 110.361 239.166 110.678C239.726 110.995 240.155 111.434 240.454 111.994C240.762 112.545 240.916 113.17 240.916 113.87ZM239.6 113.604C239.6 113.119 239.492 112.703 239.278 112.358C239.063 112.003 238.769 111.737 238.396 111.56C238.032 111.373 237.626 111.28 237.178 111.28C236.534 111.28 235.983 111.485 235.526 111.896C235.078 112.307 234.821 112.876 234.756 113.604H239.6ZM242.037 114.136C242.037 113.352 242.196 112.666 242.513 112.078C242.831 111.481 243.265 111.019 243.815 110.692C244.375 110.365 245.001 110.202 245.691 110.202C246.289 110.202 246.844 110.342 247.357 110.622C247.871 110.893 248.263 111.252 248.533 111.7V107.64H249.821V118H248.533V116.558C248.281 117.015 247.908 117.393 247.413 117.692C246.919 117.981 246.34 118.126 245.677 118.126C244.996 118.126 244.375 117.958 243.815 117.622C243.265 117.286 242.831 116.815 242.513 116.208C242.196 115.601 242.037 114.911 242.037 114.136ZM248.533 114.15C248.533 113.571 248.417 113.067 248.183 112.638C247.95 112.209 247.633 111.882 247.231 111.658C246.839 111.425 246.405 111.308 245.929 111.308C245.453 111.308 245.019 111.42 244.627 111.644C244.235 111.868 243.923 112.195 243.689 112.624C243.456 113.053 243.339 113.557 243.339 114.136C243.339 114.724 243.456 115.237 243.689 115.676C243.923 116.105 244.235 116.437 244.627 116.67C245.019 116.894 245.453 117.006 245.929 117.006C246.405 117.006 246.839 116.894 247.231 116.67C247.633 116.437 247.95 116.105 248.183 115.676C248.417 115.237 248.533 114.729 248.533 114.15ZM258.885 118.126C258.166 118.126 257.513 117.963 256.925 117.636C256.346 117.309 255.889 116.847 255.553 116.25C255.226 115.643 255.063 114.943 255.063 114.15C255.063 113.366 255.231 112.675 255.567 112.078C255.912 111.471 256.379 111.009 256.967 110.692C257.555 110.365 258.213 110.202 258.941 110.202C259.669 110.202 260.327 110.365 260.915 110.692C261.503 111.009 261.965 111.467 262.301 112.064C262.646 112.661 262.819 113.357 262.819 114.15C262.819 114.943 262.641 115.643 262.287 116.25C261.941 116.847 261.47 117.309 260.873 117.636C260.275 117.963 259.613 118.126 258.885 118.126ZM258.885 117.006C259.342 117.006 259.771 116.899 260.173 116.684C260.574 116.469 260.896 116.147 261.139 115.718C261.391 115.289 261.517 114.766 261.517 114.15C261.517 113.534 261.395 113.011 261.153 112.582C260.91 112.153 260.593 111.835 260.201 111.63C259.809 111.415 259.384 111.308 258.927 111.308C258.46 111.308 258.031 111.415 257.639 111.63C257.256 111.835 256.948 112.153 256.715 112.582C256.481 113.011 256.365 113.534 256.365 114.15C256.365 114.775 256.477 115.303 256.701 115.732C256.934 116.161 257.242 116.483 257.625 116.698C258.007 116.903 258.427 117.006 258.885 117.006ZM271.214 110.328V118H269.94V116.866C269.697 117.258 269.357 117.566 268.918 117.79C268.489 118.005 268.013 118.112 267.49 118.112C266.893 118.112 266.356 117.991 265.88 117.748C265.404 117.496 265.026 117.123 264.746 116.628C264.475 116.133 264.34 115.531 264.34 114.822V110.328H265.6V114.654C265.6 115.41 265.791 115.993 266.174 116.404C266.557 116.805 267.079 117.006 267.742 117.006C268.423 117.006 268.96 116.796 269.352 116.376C269.744 115.956 269.94 115.345 269.94 114.542V110.328H271.214ZM274.555 111.574C274.779 111.135 275.096 110.795 275.507 110.552C275.927 110.309 276.436 110.188 277.033 110.188V111.504H276.697C275.269 111.504 274.555 112.279 274.555 113.828V118H273.281V110.328H274.555V111.574ZM283.342 111.742C283.594 111.303 283.967 110.939 284.462 110.65C284.966 110.351 285.549 110.202 286.212 110.202C286.893 110.202 287.509 110.365 288.06 110.692C288.62 111.019 289.059 111.481 289.376 112.078C289.693 112.666 289.852 113.352 289.852 114.136C289.852 114.911 289.693 115.601 289.376 116.208C289.059 116.815 288.62 117.286 288.06 117.622C287.509 117.958 286.893 118.126 286.212 118.126C285.559 118.126 284.98 117.981 284.476 117.692C283.981 117.393 283.603 117.025 283.342 116.586V121.64H282.068V110.328H283.342V111.742ZM288.55 114.136C288.55 113.557 288.433 113.053 288.2 112.624C287.967 112.195 287.649 111.868 287.248 111.644C286.856 111.42 286.422 111.308 285.946 111.308C285.479 111.308 285.045 111.425 284.644 111.658C284.252 111.882 283.935 112.213 283.692 112.652C283.459 113.081 283.342 113.581 283.342 114.15C283.342 114.729 283.459 115.237 283.692 115.676C283.935 116.105 284.252 116.437 284.644 116.67C285.045 116.894 285.479 117.006 285.946 117.006C286.422 117.006 286.856 116.894 287.248 116.67C287.649 116.437 287.967 116.105 288.2 115.676C288.433 115.237 288.55 114.724 288.55 114.136ZM298.249 110.328V118H296.975V116.866C296.732 117.258 296.392 117.566 295.953 117.79C295.524 118.005 295.048 118.112 294.525 118.112C293.928 118.112 293.391 117.991 292.915 117.748C292.439 117.496 292.061 117.123 291.781 116.628C291.51 116.133 291.375 115.531 291.375 114.822V110.328H292.635V114.654C292.635 115.41 292.826 115.993 293.209 116.404C293.592 116.805 294.114 117.006 294.777 117.006C295.458 117.006 295.995 116.796 296.387 116.376C296.779 115.956 296.975 115.345 296.975 114.542V110.328H298.249ZM301.59 111.742C301.842 111.303 302.215 110.939 302.71 110.65C303.214 110.351 303.797 110.202 304.46 110.202C305.141 110.202 305.757 110.365 306.308 110.692C306.868 111.019 307.307 111.481 307.624 112.078C307.941 112.666 308.1 113.352 308.1 114.136C308.1 114.911 307.941 115.601 307.624 116.208C307.307 116.815 306.868 117.286 306.308 117.622C305.757 117.958 305.141 118.126 304.46 118.126C303.807 118.126 303.228 117.981 302.724 117.692C302.229 117.393 301.851 117.025 301.59 116.586V121.64H300.316V110.328H301.59V111.742ZM306.798 114.136C306.798 113.557 306.681 113.053 306.448 112.624C306.215 112.195 305.897 111.868 305.496 111.644C305.104 111.42 304.67 111.308 304.194 111.308C303.727 111.308 303.293 111.425 302.892 111.658C302.5 111.882 302.183 112.213 301.94 112.652C301.707 113.081 301.59 113.581 301.59 114.15C301.59 114.729 301.707 115.237 301.94 115.676C302.183 116.105 302.5 116.437 302.892 116.67C303.293 116.894 303.727 117.006 304.194 117.006C304.67 117.006 305.104 116.894 305.496 116.67C305.897 116.437 306.215 116.105 306.448 115.676C306.681 115.237 306.798 114.724 306.798 114.136ZM310.967 111.742C311.219 111.303 311.592 110.939 312.087 110.65C312.591 110.351 313.174 110.202 313.837 110.202C314.518 110.202 315.134 110.365 315.685 110.692C316.245 111.019 316.684 111.481 317.001 112.078C317.318 112.666 317.477 113.352 317.477 114.136C317.477 114.911 317.318 115.601 317.001 116.208C316.684 116.815 316.245 117.286 315.685 117.622C315.134 117.958 314.518 118.126 313.837 118.126C313.184 118.126 312.605 117.981 312.101 117.692C311.606 117.393 311.228 117.025 310.967 116.586V121.64H309.693V110.328H310.967V111.742ZM316.175 114.136C316.175 113.557 316.058 113.053 315.825 112.624C315.592 112.195 315.274 111.868 314.873 111.644C314.481 111.42 314.047 111.308 313.571 111.308C313.104 111.308 312.67 111.425 312.269 111.658C311.877 111.882 311.56 112.213 311.317 112.652C311.084 113.081 310.967 113.581 310.967 114.15C310.967 114.729 311.084 115.237 311.317 115.676C311.56 116.105 311.877 116.437 312.269 116.67C312.67 116.894 313.104 117.006 313.571 117.006C314.047 117.006 314.481 116.894 314.873 116.67C315.274 116.437 315.592 116.105 315.825 115.676C316.058 115.237 316.175 114.724 316.175 114.136ZM325.678 110.328L321.058 121.612H319.742L321.254 117.916L318.16 110.328H319.574L321.982 116.544L324.362 110.328H325.678ZM327.281 118.084C327.038 118.084 326.833 118 326.665 117.832C326.497 117.664 326.413 117.459 326.413 117.216C326.413 116.973 326.497 116.768 326.665 116.6C326.833 116.432 327.038 116.348 327.281 116.348C327.514 116.348 327.71 116.432 327.869 116.6C328.037 116.768 328.121 116.973 328.121 117.216C328.121 117.459 328.037 117.664 327.869 117.832C327.71 118 327.514 118.084 327.281 118.084ZM339.146 115.83H334.89L334.106 118H332.762L336.29 108.298H337.76L341.274 118H339.93L339.146 115.83ZM338.782 114.794L337.018 109.866L335.254 114.794H338.782ZM344.002 107.64V118H342.728V107.64H344.002ZM347.643 111.378V115.9C347.643 116.273 347.723 116.539 347.881 116.698C348.04 116.847 348.315 116.922 348.707 116.922H349.645V118H348.497C347.788 118 347.256 117.837 346.901 117.51C346.547 117.183 346.369 116.647 346.369 115.9V111.378H345.375V110.328H346.369V108.396H347.643V110.328H349.645V111.378H347.643ZM354.913 110.188C355.492 110.188 356.014 110.314 356.481 110.566C356.948 110.809 357.312 111.177 357.573 111.672C357.844 112.167 357.979 112.769 357.979 113.478V118H356.719V113.66C356.719 112.895 356.528 112.311 356.145 111.91C355.762 111.499 355.24 111.294 354.577 111.294C353.905 111.294 353.368 111.504 352.967 111.924C352.575 112.344 352.379 112.955 352.379 113.758V118H351.105V107.64H352.379V111.42C352.631 111.028 352.976 110.725 353.415 110.51C353.863 110.295 354.362 110.188 354.913 110.188ZM363.322 118.126C362.603 118.126 361.95 117.963 361.362 117.636C360.783 117.309 360.326 116.847 359.99 116.25C359.663 115.643 359.5 114.943 359.5 114.15C359.5 113.366 359.668 112.675 360.004 112.078C360.349 111.471 360.816 111.009 361.404 110.692C361.992 110.365 362.65 110.202 363.378 110.202C364.106 110.202 364.764 110.365 365.352 110.692C365.94 111.009 366.402 111.467 366.738 112.064C367.083 112.661 367.256 113.357 367.256 114.15C367.256 114.943 367.079 115.643 366.724 116.25C366.379 116.847 365.907 117.309 365.31 117.636C364.713 117.963 364.05 118.126 363.322 118.126ZM363.322 117.006C363.779 117.006 364.209 116.899 364.61 116.684C365.011 116.469 365.333 116.147 365.576 115.718C365.828 115.289 365.954 114.766 365.954 114.15C365.954 113.534 365.833 113.011 365.59 112.582C365.347 112.153 365.03 111.835 364.638 111.63C364.246 111.415 363.821 111.308 363.364 111.308C362.897 111.308 362.468 111.415 362.076 111.63C361.693 111.835 361.385 112.153 361.152 112.582C360.919 113.011 360.802 113.534 360.802 114.15C360.802 114.775 360.914 115.303 361.138 115.732C361.371 116.161 361.679 116.483 362.062 116.698C362.445 116.903 362.865 117.006 363.322 117.006ZM375.651 110.328V118H374.377V116.866C374.134 117.258 373.794 117.566 373.355 117.79C372.926 118.005 372.45 118.112 371.927 118.112C371.33 118.112 370.793 117.991 370.317 117.748C369.841 117.496 369.463 117.123 369.183 116.628C368.912 116.133 368.777 115.531 368.777 114.822V110.328H370.037V114.654C370.037 115.41 370.228 115.993 370.611 116.404C370.994 116.805 371.516 117.006 372.179 117.006C372.86 117.006 373.397 116.796 373.789 116.376C374.181 115.956 374.377 115.345 374.377 114.542V110.328H375.651ZM380.882 110.202C381.545 110.202 382.124 110.347 382.618 110.636C383.122 110.925 383.496 111.289 383.738 111.728V110.328H385.026V118.168C385.026 118.868 384.877 119.489 384.578 120.03C384.28 120.581 383.85 121.01 383.29 121.318C382.74 121.626 382.096 121.78 381.358 121.78C380.35 121.78 379.51 121.542 378.838 121.066C378.166 120.59 377.77 119.941 377.648 119.12H378.908C379.048 119.587 379.338 119.96 379.776 120.24C380.215 120.529 380.742 120.674 381.358 120.674C382.058 120.674 382.628 120.455 383.066 120.016C383.514 119.577 383.738 118.961 383.738 118.168V116.558C383.486 117.006 383.113 117.379 382.618 117.678C382.124 117.977 381.545 118.126 380.882 118.126C380.201 118.126 379.58 117.958 379.02 117.622C378.47 117.286 378.036 116.815 377.718 116.208C377.401 115.601 377.242 114.911 377.242 114.136C377.242 113.352 377.401 112.666 377.718 112.078C378.036 111.481 378.47 111.019 379.02 110.692C379.58 110.365 380.201 110.202 380.882 110.202ZM383.738 114.15C383.738 113.571 383.622 113.067 383.388 112.638C383.155 112.209 382.838 111.882 382.436 111.658C382.044 111.425 381.61 111.308 381.134 111.308C380.658 111.308 380.224 111.42 379.832 111.644C379.44 111.868 379.128 112.195 378.894 112.624C378.661 113.053 378.544 113.557 378.544 114.136C378.544 114.724 378.661 115.237 378.894 115.676C379.128 116.105 379.44 116.437 379.832 116.67C380.224 116.894 380.658 117.006 381.134 117.006C381.61 117.006 382.044 116.894 382.436 116.67C382.838 116.437 383.155 116.105 383.388 115.676C383.622 115.237 383.738 114.729 383.738 114.15ZM390.903 110.188C391.482 110.188 392.004 110.314 392.471 110.566C392.938 110.809 393.302 111.177 393.563 111.672C393.834 112.167 393.969 112.769 393.969 113.478V118H392.709V113.66C392.709 112.895 392.518 112.311 392.135 111.91C391.752 111.499 391.23 111.294 390.567 111.294C389.895 111.294 389.358 111.504 388.957 111.924C388.565 112.344 388.369 112.955 388.369 113.758V118H387.095V107.64H388.369V111.42C388.621 111.028 388.966 110.725 389.405 110.51C389.853 110.295 390.352 110.188 390.903 110.188ZM397.52 111.378V115.9C397.52 116.273 397.6 116.539 397.758 116.698C397.917 116.847 398.192 116.922 398.584 116.922H399.522V118H398.374C397.665 118 397.133 117.837 396.778 117.51C396.424 117.183 396.246 116.647 396.246 115.9V111.378H395.252V110.328H396.246V108.396H397.52V110.328H399.522V111.378H397.52ZM405.904 108.242V118H404.63V108.242H405.904ZM421.86 110.328L419.466 118H418.15L416.302 111.91L414.454 118H413.138L410.73 110.328H412.032L413.796 116.768L415.7 110.328H417.002L418.864 116.782L420.6 110.328H421.86ZM422.564 114.136C422.564 113.352 422.723 112.666 423.04 112.078C423.358 111.481 423.792 111.019 424.342 110.692C424.902 110.365 425.523 110.202 426.204 110.202C426.876 110.202 427.46 110.347 427.954 110.636C428.449 110.925 428.818 111.289 429.06 111.728V110.328H430.348V118H429.06V116.572C428.808 117.02 428.43 117.393 427.926 117.692C427.432 117.981 426.853 118.126 426.19 118.126C425.509 118.126 424.893 117.958 424.342 117.622C423.792 117.286 423.358 116.815 423.04 116.208C422.723 115.601 422.564 114.911 422.564 114.136ZM429.06 114.15C429.06 113.571 428.944 113.067 428.71 112.638C428.477 112.209 428.16 111.882 427.758 111.658C427.366 111.425 426.932 111.308 426.456 111.308C425.98 111.308 425.546 111.42 425.154 111.644C424.762 111.868 424.45 112.195 424.216 112.624C423.983 113.053 423.866 113.557 423.866 114.136C423.866 114.724 423.983 115.237 424.216 115.676C424.45 116.105 424.762 116.437 425.154 116.67C425.546 116.894 425.98 117.006 426.456 117.006C426.932 117.006 427.366 116.894 427.758 116.67C428.16 116.437 428.477 116.105 428.71 115.676C428.944 115.237 429.06 114.729 429.06 114.15ZM435.133 118.126C434.545 118.126 434.018 118.028 433.551 117.832C433.085 117.627 432.716 117.347 432.445 116.992C432.175 116.628 432.025 116.213 431.997 115.746H433.313C433.351 116.129 433.528 116.441 433.845 116.684C434.172 116.927 434.597 117.048 435.119 117.048C435.605 117.048 435.987 116.941 436.267 116.726C436.547 116.511 436.687 116.241 436.687 115.914C436.687 115.578 436.538 115.331 436.239 115.172C435.941 115.004 435.479 114.841 434.853 114.682C434.284 114.533 433.817 114.383 433.453 114.234C433.099 114.075 432.791 113.847 432.529 113.548C432.277 113.24 432.151 112.839 432.151 112.344C432.151 111.952 432.268 111.593 432.501 111.266C432.735 110.939 433.066 110.683 433.495 110.496C433.925 110.3 434.415 110.202 434.965 110.202C435.815 110.202 436.501 110.417 437.023 110.846C437.546 111.275 437.826 111.863 437.863 112.61H436.589C436.561 112.209 436.398 111.887 436.099 111.644C435.81 111.401 435.418 111.28 434.923 111.28C434.466 111.28 434.102 111.378 433.831 111.574C433.561 111.77 433.425 112.027 433.425 112.344C433.425 112.596 433.505 112.806 433.663 112.974C433.831 113.133 434.037 113.263 434.279 113.366C434.531 113.459 434.877 113.567 435.315 113.688C435.866 113.837 436.314 113.987 436.659 114.136C437.005 114.276 437.299 114.491 437.541 114.78C437.793 115.069 437.924 115.447 437.933 115.914C437.933 116.334 437.817 116.712 437.583 117.048C437.35 117.384 437.019 117.65 436.589 117.846C436.169 118.033 435.684 118.126 435.133 118.126ZM168.794 138.126C168.206 138.126 167.679 138.028 167.212 137.832C166.745 137.627 166.377 137.347 166.106 136.992C165.835 136.628 165.686 136.213 165.658 135.746H166.974C167.011 136.129 167.189 136.441 167.506 136.684C167.833 136.927 168.257 137.048 168.78 137.048C169.265 137.048 169.648 136.941 169.928 136.726C170.208 136.511 170.348 136.241 170.348 135.914C170.348 135.578 170.199 135.331 169.9 135.172C169.601 135.004 169.139 134.841 168.514 134.682C167.945 134.533 167.478 134.383 167.114 134.234C166.759 134.075 166.451 133.847 166.19 133.548C165.938 133.24 165.812 132.839 165.812 132.344C165.812 131.952 165.929 131.593 166.162 131.266C166.395 130.939 166.727 130.683 167.156 130.496C167.585 130.3 168.075 130.202 168.626 130.202C169.475 130.202 170.161 130.417 170.684 130.846C171.207 131.275 171.487 131.863 171.524 132.61H170.25C170.222 132.209 170.059 131.887 169.76 131.644C169.471 131.401 169.079 131.28 168.584 131.28C168.127 131.28 167.763 131.378 167.492 131.574C167.221 131.77 167.086 132.027 167.086 132.344C167.086 132.596 167.165 132.806 167.324 132.974C167.492 133.133 167.697 133.263 167.94 133.366C168.192 133.459 168.537 133.567 168.976 133.688C169.527 133.837 169.975 133.987 170.32 134.136C170.665 134.276 170.959 134.491 171.202 134.78C171.454 135.069 171.585 135.447 171.594 135.914C171.594 136.334 171.477 136.712 171.244 137.048C171.011 137.384 170.679 137.65 170.25 137.846C169.83 138.033 169.345 138.126 168.794 138.126ZM177.592 138L174.582 134.612V138H173.308V127.64H174.582V133.73L177.536 130.328H179.314L175.702 134.15L179.328 138H177.592ZM187.43 133.87C187.43 134.113 187.416 134.369 187.388 134.64H181.256C181.302 135.396 181.559 135.989 182.026 136.418C182.502 136.838 183.076 137.048 183.748 137.048C184.298 137.048 184.756 136.922 185.12 136.67C185.493 136.409 185.754 136.063 185.904 135.634H187.276C187.07 136.371 186.66 136.973 186.044 137.44C185.428 137.897 184.662 138.126 183.748 138.126C183.02 138.126 182.366 137.963 181.788 137.636C181.218 137.309 180.77 136.847 180.444 136.25C180.117 135.643 179.954 134.943 179.954 134.15C179.954 133.357 180.112 132.661 180.43 132.064C180.747 131.467 181.19 131.009 181.76 130.692C182.338 130.365 183.001 130.202 183.748 130.202C184.476 130.202 185.12 130.361 185.68 130.678C186.24 130.995 186.669 131.434 186.968 131.994C187.276 132.545 187.43 133.17 187.43 133.87ZM186.114 133.604C186.114 133.119 186.006 132.703 185.792 132.358C185.577 132.003 185.283 131.737 184.91 131.56C184.546 131.373 184.14 131.28 183.692 131.28C183.048 131.28 182.497 131.485 182.04 131.896C181.592 132.307 181.335 132.876 181.27 133.604H186.114ZM190.301 131.742C190.553 131.303 190.927 130.939 191.421 130.65C191.925 130.351 192.509 130.202 193.171 130.202C193.853 130.202 194.469 130.365 195.019 130.692C195.579 131.019 196.018 131.481 196.335 132.078C196.653 132.666 196.811 133.352 196.811 134.136C196.811 134.911 196.653 135.601 196.335 136.208C196.018 136.815 195.579 137.286 195.019 137.622C194.469 137.958 193.853 138.126 193.171 138.126C192.518 138.126 191.939 137.981 191.435 137.692C190.941 137.393 190.563 137.025 190.301 136.586V141.64H189.027V130.328H190.301V131.742ZM195.509 134.136C195.509 133.557 195.393 133.053 195.159 132.624C194.926 132.195 194.609 131.868 194.207 131.644C193.815 131.42 193.381 131.308 192.905 131.308C192.439 131.308 192.005 131.425 191.603 131.658C191.211 131.882 190.894 132.213 190.651 132.652C190.418 133.081 190.301 133.581 190.301 134.15C190.301 134.729 190.418 135.237 190.651 135.676C190.894 136.105 191.211 136.437 191.603 136.67C192.005 136.894 192.439 137.006 192.905 137.006C193.381 137.006 193.815 136.894 194.207 136.67C194.609 136.437 194.926 136.105 195.159 135.676C195.393 135.237 195.509 134.724 195.509 134.136ZM199.958 131.378V135.9C199.958 136.273 200.037 136.539 200.196 136.698C200.355 136.847 200.63 136.922 201.022 136.922H201.96V138H200.812C200.103 138 199.571 137.837 199.216 137.51C198.861 137.183 198.684 136.647 198.684 135.9V131.378H197.69V130.328H198.684V128.396H199.958V130.328H201.96V131.378H199.958ZM204.078 129.082C203.835 129.082 203.63 128.998 203.462 128.83C203.294 128.662 203.21 128.457 203.21 128.214C203.21 127.971 203.294 127.766 203.462 127.598C203.63 127.43 203.835 127.346 204.078 127.346C204.311 127.346 204.507 127.43 204.666 127.598C204.834 127.766 204.918 127.971 204.918 128.214C204.918 128.457 204.834 128.662 204.666 128.83C204.507 128.998 204.311 129.082 204.078 129.082ZM204.694 130.328V138H203.42V130.328H204.694ZM206.305 134.15C206.305 133.357 206.464 132.666 206.781 132.078C207.098 131.481 207.537 131.019 208.097 130.692C208.666 130.365 209.315 130.202 210.043 130.202C210.986 130.202 211.76 130.431 212.367 130.888C212.983 131.345 213.389 131.98 213.585 132.792H212.213C212.082 132.325 211.826 131.957 211.443 131.686C211.07 131.415 210.603 131.28 210.043 131.28C209.315 131.28 208.727 131.532 208.279 132.036C207.831 132.531 207.607 133.235 207.607 134.15C207.607 135.074 207.831 135.788 208.279 136.292C208.727 136.796 209.315 137.048 210.043 137.048C210.603 137.048 211.07 136.917 211.443 136.656C211.816 136.395 212.073 136.021 212.213 135.536H213.585C213.38 136.32 212.969 136.95 212.353 137.426C211.737 137.893 210.967 138.126 210.043 138.126C209.315 138.126 208.666 137.963 208.097 137.636C207.537 137.309 207.098 136.847 206.781 136.25C206.464 135.653 206.305 134.953 206.305 134.15ZM214.725 134.136C214.725 133.352 214.884 132.666 215.201 132.078C215.518 131.481 215.952 131.019 216.503 130.692C217.063 130.365 217.684 130.202 218.365 130.202C219.037 130.202 219.62 130.347 220.115 130.636C220.61 130.925 220.978 131.289 221.221 131.728V130.328H222.509V138H221.221V136.572C220.969 137.02 220.591 137.393 220.087 137.692C219.592 137.981 219.014 138.126 218.351 138.126C217.67 138.126 217.054 137.958 216.503 137.622C215.952 137.286 215.518 136.815 215.201 136.208C214.884 135.601 214.725 134.911 214.725 134.136ZM221.221 134.15C221.221 133.571 221.104 133.067 220.871 132.638C220.638 132.209 220.32 131.882 219.919 131.658C219.527 131.425 219.093 131.308 218.617 131.308C218.141 131.308 217.707 131.42 217.315 131.644C216.923 131.868 216.61 132.195 216.377 132.624C216.144 133.053 216.027 133.557 216.027 134.136C216.027 134.724 216.144 135.237 216.377 135.676C216.61 136.105 216.923 136.437 217.315 136.67C217.707 136.894 218.141 137.006 218.617 137.006C219.093 137.006 219.527 136.894 219.919 136.67C220.32 136.437 220.638 136.105 220.871 135.676C221.104 135.237 221.221 134.729 221.221 134.15ZM225.852 127.64V138H224.578V127.64H225.852ZM229.255 136.236L227.687 140.002H226.833L227.855 136.236H229.255ZM241.279 133.87C241.279 134.113 241.265 134.369 241.237 134.64H235.105C235.152 135.396 235.408 135.989 235.875 136.418C236.351 136.838 236.925 137.048 237.597 137.048C238.148 137.048 238.605 136.922 238.969 136.67C239.342 136.409 239.604 136.063 239.753 135.634H241.125C240.92 136.371 240.509 136.973 239.893 137.44C239.277 137.897 238.512 138.126 237.597 138.126C236.869 138.126 236.216 137.963 235.637 137.636C235.068 137.309 234.62 136.847 234.293 136.25C233.966 135.643 233.803 134.943 233.803 134.15C233.803 133.357 233.962 132.661 234.279 132.064C234.596 131.467 235.04 131.009 235.609 130.692C236.188 130.365 236.85 130.202 237.597 130.202C238.325 130.202 238.969 130.361 239.529 130.678C240.089 130.995 240.518 131.434 240.817 131.994C241.125 132.545 241.279 133.17 241.279 133.87ZM239.963 133.604C239.963 133.119 239.856 132.703 239.641 132.358C239.426 132.003 239.132 131.737 238.759 131.56C238.395 131.373 237.989 131.28 237.541 131.28C236.897 131.28 236.346 131.485 235.889 131.896C235.441 132.307 235.184 132.876 235.119 133.604H239.963ZM245.733 136.824L248.113 130.328H249.471L246.461 138H244.977L241.967 130.328H243.339L245.733 136.824ZM257.64 133.87C257.64 134.113 257.626 134.369 257.598 134.64H251.466C251.513 135.396 251.77 135.989 252.236 136.418C252.712 136.838 253.286 137.048 253.958 137.048C254.509 137.048 254.966 136.922 255.33 136.67C255.704 136.409 255.965 136.063 256.114 135.634H257.486C257.281 136.371 256.87 136.973 256.254 137.44C255.638 137.897 254.873 138.126 253.958 138.126C253.23 138.126 252.577 137.963 251.998 137.636C251.429 137.309 250.981 136.847 250.654 136.25C250.328 135.643 250.164 134.943 250.164 134.15C250.164 133.357 250.323 132.661 250.64 132.064C250.958 131.467 251.401 131.009 251.97 130.692C252.549 130.365 253.212 130.202 253.958 130.202C254.686 130.202 255.33 130.361 255.89 130.678C256.45 130.995 256.88 131.434 257.178 131.994C257.486 132.545 257.64 133.17 257.64 133.87ZM256.324 133.604C256.324 133.119 256.217 132.703 256.002 132.358C255.788 132.003 255.494 131.737 255.12 131.56C254.756 131.373 254.35 131.28 253.902 131.28C253.258 131.28 252.708 131.485 252.25 131.896C251.802 132.307 251.546 132.876 251.48 133.604H256.324ZM260.512 131.574C260.736 131.135 261.053 130.795 261.464 130.552C261.884 130.309 262.393 130.188 262.99 130.188V131.504H262.654C261.226 131.504 260.512 132.279 260.512 133.828V138H259.238V130.328H260.512V131.574ZM270.985 130.328L266.365 141.612H265.049L266.561 137.916L263.467 130.328H264.881L267.289 136.544L269.669 130.328H270.985ZM273.735 131.378V135.9C273.735 136.273 273.815 136.539 273.973 136.698C274.132 136.847 274.407 136.922 274.799 136.922H275.737V138H274.589C273.88 138 273.348 137.837 272.993 137.51C272.639 137.183 272.461 136.647 272.461 135.9V131.378H271.467V130.328H272.461V128.396H273.735V130.328H275.737V131.378H273.735ZM281.005 130.188C281.584 130.188 282.106 130.314 282.573 130.566C283.04 130.809 283.404 131.177 283.665 131.672C283.936 132.167 284.071 132.769 284.071 133.478V138H282.811V133.66C282.811 132.895 282.62 132.311 282.237 131.91C281.854 131.499 281.332 131.294 280.669 131.294C279.997 131.294 279.46 131.504 279.059 131.924C278.667 132.344 278.471 132.955 278.471 133.758V138H277.197V127.64H278.471V131.42C278.723 131.028 279.068 130.725 279.507 130.51C279.955 130.295 280.454 130.188 281.005 130.188ZM286.726 129.082C286.483 129.082 286.278 128.998 286.11 128.83C285.942 128.662 285.858 128.457 285.858 128.214C285.858 127.971 285.942 127.766 286.11 127.598C286.278 127.43 286.483 127.346 286.726 127.346C286.959 127.346 287.155 127.43 287.314 127.598C287.482 127.766 287.566 127.971 287.566 128.214C287.566 128.457 287.482 128.662 287.314 128.83C287.155 128.998 286.959 129.082 286.726 129.082ZM287.342 130.328V138H286.068V130.328H287.342ZM293.167 130.188C294.101 130.188 294.857 130.473 295.435 131.042C296.014 131.602 296.303 132.414 296.303 133.478V138H295.043V133.66C295.043 132.895 294.852 132.311 294.469 131.91C294.087 131.499 293.564 131.294 292.901 131.294C292.229 131.294 291.693 131.504 291.291 131.924C290.899 132.344 290.703 132.955 290.703 133.758V138H289.429V130.328H290.703V131.42C290.955 131.028 291.296 130.725 291.725 130.51C292.164 130.295 292.645 130.188 293.167 130.188ZM301.464 130.202C302.127 130.202 302.706 130.347 303.2 130.636C303.704 130.925 304.078 131.289 304.32 131.728V130.328H305.608V138.168C305.608 138.868 305.459 139.489 305.16 140.03C304.862 140.581 304.432 141.01 303.872 141.318C303.322 141.626 302.678 141.78 301.94 141.78C300.932 141.78 300.092 141.542 299.42 141.066C298.748 140.59 298.352 139.941 298.23 139.12H299.49C299.63 139.587 299.92 139.96 300.358 140.24C300.797 140.529 301.324 140.674 301.94 140.674C302.64 140.674 303.21 140.455 303.648 140.016C304.096 139.577 304.32 138.961 304.32 138.168V136.558C304.068 137.006 303.695 137.379 303.2 137.678C302.706 137.977 302.127 138.126 301.464 138.126C300.783 138.126 300.162 137.958 299.602 137.622C299.052 137.286 298.618 136.815 298.3 136.208C297.983 135.601 297.824 134.911 297.824 134.136C297.824 133.352 297.983 132.666 298.3 132.078C298.618 131.481 299.052 131.019 299.602 130.692C300.162 130.365 300.783 130.202 301.464 130.202ZM304.32 134.15C304.32 133.571 304.204 133.067 303.97 132.638C303.737 132.209 303.42 131.882 303.018 131.658C302.626 131.425 302.192 131.308 301.716 131.308C301.24 131.308 300.806 131.42 300.414 131.644C300.022 131.868 299.71 132.195 299.476 132.624C299.243 133.053 299.126 133.557 299.126 134.136C299.126 134.724 299.243 135.237 299.476 135.676C299.71 136.105 300.022 136.437 300.414 136.67C300.806 136.894 301.24 137.006 301.716 137.006C302.192 137.006 302.626 136.894 303.018 136.67C303.42 136.437 303.737 136.105 303.97 135.676C304.204 135.237 304.32 134.729 304.32 134.15ZM312.88 131.378V135.9C312.88 136.273 312.959 136.539 313.118 136.698C313.276 136.847 313.552 136.922 313.944 136.922H314.882V138H313.734C313.024 138 312.492 137.837 312.138 137.51C311.783 137.183 311.606 136.647 311.606 135.9V131.378H310.612V130.328H311.606V128.396H312.88V130.328H314.882V131.378H312.88ZM323.145 130.328V138H321.871V136.866C321.629 137.258 321.288 137.566 320.849 137.79C320.42 138.005 319.944 138.112 319.421 138.112C318.824 138.112 318.287 137.991 317.811 137.748C317.335 137.496 316.957 137.123 316.677 136.628C316.407 136.133 316.271 135.531 316.271 134.822V130.328H317.531V134.654C317.531 135.41 317.723 135.993 318.105 136.404C318.488 136.805 319.011 137.006 319.673 137.006C320.355 137.006 320.891 136.796 321.283 136.376C321.675 135.956 321.871 135.345 321.871 134.542V130.328H323.145ZM326.486 131.574C326.71 131.135 327.028 130.795 327.438 130.552C327.858 130.309 328.367 130.188 328.964 130.188V131.504H328.628C327.2 131.504 326.486 132.279 326.486 133.828V138H325.212V130.328H326.486V131.574ZM334.089 130.188C335.022 130.188 335.778 130.473 336.357 131.042C336.936 131.602 337.225 132.414 337.225 133.478V138H335.965V133.66C335.965 132.895 335.774 132.311 335.391 131.91C335.008 131.499 334.486 131.294 333.823 131.294C333.151 131.294 332.614 131.504 332.213 131.924C331.821 132.344 331.625 132.955 331.625 133.758V138H330.351V130.328H331.625V131.42C331.877 131.028 332.218 130.725 332.647 130.51C333.086 130.295 333.566 130.188 334.089 130.188ZM346.222 133.87C346.222 134.113 346.208 134.369 346.18 134.64H340.048C340.095 135.396 340.351 135.989 340.818 136.418C341.294 136.838 341.868 137.048 342.54 137.048C343.091 137.048 343.548 136.922 343.912 136.67C344.285 136.409 344.547 136.063 344.696 135.634H346.068C345.863 136.371 345.452 136.973 344.836 137.44C344.22 137.897 343.455 138.126 342.54 138.126C341.812 138.126 341.159 137.963 340.58 137.636C340.011 137.309 339.563 136.847 339.236 136.25C338.909 135.643 338.746 134.943 338.746 134.15C338.746 133.357 338.905 132.661 339.222 132.064C339.539 131.467 339.983 131.009 340.552 130.692C341.131 130.365 341.793 130.202 342.54 130.202C343.268 130.202 343.912 130.361 344.472 130.678C345.032 130.995 345.461 131.434 345.76 131.994C346.068 132.545 346.222 133.17 346.222 133.87ZM344.906 133.604C344.906 133.119 344.799 132.703 344.584 132.358C344.369 132.003 344.075 131.737 343.702 131.56C343.338 131.373 342.932 131.28 342.484 131.28C341.84 131.28 341.289 131.485 340.832 131.896C340.384 132.307 340.127 132.876 340.062 133.604H344.906ZM347.344 134.136C347.344 133.352 347.502 132.666 347.82 132.078C348.137 131.481 348.571 131.019 349.122 130.692C349.682 130.365 350.307 130.202 350.998 130.202C351.595 130.202 352.15 130.342 352.664 130.622C353.177 130.893 353.569 131.252 353.84 131.7V127.64H355.128V138H353.84V136.558C353.588 137.015 353.214 137.393 352.72 137.692C352.225 137.981 351.646 138.126 350.984 138.126C350.302 138.126 349.682 137.958 349.122 137.622C348.571 137.286 348.137 136.815 347.82 136.208C347.502 135.601 347.344 134.911 347.344 134.136ZM353.84 134.15C353.84 133.571 353.723 133.067 353.49 132.638C353.256 132.209 352.939 131.882 352.538 131.658C352.146 131.425 351.712 131.308 351.236 131.308C350.76 131.308 350.326 131.42 349.934 131.644C349.542 131.868 349.229 132.195 348.996 132.624C348.762 133.053 348.646 133.557 348.646 134.136C348.646 134.724 348.762 135.237 348.996 135.676C349.229 136.105 349.542 136.437 349.934 136.67C350.326 136.894 350.76 137.006 351.236 137.006C351.712 137.006 352.146 136.894 352.538 136.67C352.939 136.437 353.256 136.105 353.49 135.676C353.723 135.237 353.84 134.729 353.84 134.15ZM364.191 138.126C363.472 138.126 362.819 137.963 362.231 137.636C361.652 137.309 361.195 136.847 360.859 136.25C360.532 135.643 360.369 134.943 360.369 134.15C360.369 133.366 360.537 132.675 360.873 132.078C361.218 131.471 361.685 131.009 362.273 130.692C362.861 130.365 363.519 130.202 364.247 130.202C364.975 130.202 365.633 130.365 366.221 130.692C366.809 131.009 367.271 131.467 367.607 132.064C367.952 132.661 368.125 133.357 368.125 134.15C368.125 134.943 367.948 135.643 367.593 136.25C367.248 136.847 366.776 137.309 366.179 137.636C365.582 137.963 364.919 138.126 364.191 138.126ZM364.191 137.006C364.648 137.006 365.078 136.899 365.479 136.684C365.88 136.469 366.202 136.147 366.445 135.718C366.697 135.289 366.823 134.766 366.823 134.15C366.823 133.534 366.702 133.011 366.459 132.582C366.216 132.153 365.899 131.835 365.507 131.63C365.115 131.415 364.69 131.308 364.233 131.308C363.766 131.308 363.337 131.415 362.945 131.63C362.562 131.835 362.254 132.153 362.021 132.582C361.788 133.011 361.671 133.534 361.671 134.15C361.671 134.775 361.783 135.303 362.007 135.732C362.24 136.161 362.548 136.483 362.931 136.698C363.314 136.903 363.734 137.006 364.191 137.006ZM376.52 130.328V138H375.246V136.866C375.004 137.258 374.663 137.566 374.224 137.79C373.795 138.005 373.319 138.112 372.796 138.112C372.199 138.112 371.662 137.991 371.186 137.748C370.71 137.496 370.332 137.123 370.052 136.628C369.782 136.133 369.646 135.531 369.646 134.822V130.328H370.906V134.654C370.906 135.41 371.098 135.993 371.48 136.404C371.863 136.805 372.386 137.006 373.048 137.006C373.73 137.006 374.266 136.796 374.658 136.376C375.05 135.956 375.246 135.345 375.246 134.542V130.328H376.52ZM380.141 131.378V135.9C380.141 136.273 380.221 136.539 380.379 136.698C380.538 136.847 380.813 136.922 381.205 136.922H382.143V138H380.995C380.286 138 379.754 137.837 379.399 137.51C379.045 137.183 378.867 136.647 378.867 135.9V131.378H377.873V130.328H378.867V128.396H380.141V130.328H382.143V131.378H380.141ZM388.525 131.742C388.777 131.303 389.151 130.939 389.645 130.65C390.149 130.351 390.733 130.202 391.395 130.202C392.077 130.202 392.693 130.365 393.243 130.692C393.803 131.019 394.242 131.481 394.559 132.078C394.877 132.666 395.035 133.352 395.035 134.136C395.035 134.911 394.877 135.601 394.559 136.208C394.242 136.815 393.803 137.286 393.243 137.622C392.693 137.958 392.077 138.126 391.395 138.126C390.742 138.126 390.163 137.981 389.659 137.692C389.165 137.393 388.787 137.025 388.525 136.586V141.64H387.251V130.328H388.525V131.742ZM393.733 134.136C393.733 133.557 393.617 133.053 393.383 132.624C393.15 132.195 392.833 131.868 392.431 131.644C392.039 131.42 391.605 131.308 391.129 131.308C390.663 131.308 390.229 131.425 389.827 131.658C389.435 131.882 389.118 132.213 388.875 132.652C388.642 133.081 388.525 133.581 388.525 134.15C388.525 134.729 388.642 135.237 388.875 135.676C389.118 136.105 389.435 136.437 389.827 136.67C390.229 136.894 390.663 137.006 391.129 137.006C391.605 137.006 392.039 136.894 392.431 136.67C392.833 136.437 393.15 136.105 393.383 135.676C393.617 135.237 393.733 134.724 393.733 134.136ZM403.628 133.87C403.628 134.113 403.614 134.369 403.586 134.64H397.454C397.501 135.396 397.758 135.989 398.224 136.418C398.7 136.838 399.274 137.048 399.946 137.048C400.497 137.048 400.954 136.922 401.318 136.67C401.692 136.409 401.953 136.063 402.102 135.634H403.474C403.269 136.371 402.858 136.973 402.242 137.44C401.626 137.897 400.861 138.126 399.946 138.126C399.218 138.126 398.565 137.963 397.986 137.636C397.417 137.309 396.969 136.847 396.642 136.25C396.316 135.643 396.152 134.943 396.152 134.15C396.152 133.357 396.311 132.661 396.628 132.064C396.946 131.467 397.389 131.009 397.958 130.692C398.537 130.365 399.2 130.202 399.946 130.202C400.674 130.202 401.318 130.361 401.878 130.678C402.438 130.995 402.868 131.434 403.166 131.994C403.474 132.545 403.628 133.17 403.628 133.87ZM402.312 133.604C402.312 133.119 402.205 132.703 401.99 132.358C401.776 132.003 401.482 131.737 401.108 131.56C400.744 131.373 400.338 131.28 399.89 131.28C399.246 131.28 398.696 131.485 398.238 131.896C397.79 132.307 397.534 132.876 397.468 133.604H402.312ZM406.5 131.574C406.724 131.135 407.041 130.795 407.452 130.552C407.872 130.309 408.381 130.188 408.978 130.188V131.504H408.642C407.214 131.504 406.5 132.279 406.5 133.828V138H405.226V130.328H406.5V131.574ZM413.487 131.378H411.877V138H410.603V131.378H409.609V130.328H410.603V129.782C410.603 128.923 410.822 128.298 411.261 127.906C411.709 127.505 412.423 127.304 413.403 127.304V128.368C412.843 128.368 412.446 128.48 412.213 128.704C411.989 128.919 411.877 129.278 411.877 129.782V130.328H413.487V131.378ZM421.888 133.87C421.888 134.113 421.874 134.369 421.846 134.64H415.714C415.761 135.396 416.017 135.989 416.484 136.418C416.96 136.838 417.534 137.048 418.206 137.048C418.757 137.048 419.214 136.922 419.578 136.67C419.951 136.409 420.213 136.063 420.362 135.634H421.734C421.529 136.371 421.118 136.973 420.502 137.44C419.886 137.897 419.121 138.126 418.206 138.126C417.478 138.126 416.825 137.963 416.246 137.636C415.677 137.309 415.229 136.847 414.902 136.25C414.575 135.643 414.412 134.943 414.412 134.15C414.412 133.357 414.571 132.661 414.888 132.064C415.205 131.467 415.649 131.009 416.218 130.692C416.797 130.365 417.459 130.202 418.206 130.202C418.934 130.202 419.578 130.361 420.138 130.678C420.698 130.995 421.127 131.434 421.426 131.994C421.734 132.545 421.888 133.17 421.888 133.87ZM420.572 133.604C420.572 133.119 420.465 132.703 420.25 132.358C420.035 132.003 419.741 131.737 419.368 131.56C419.004 131.373 418.598 131.28 418.15 131.28C417.506 131.28 416.955 131.485 416.498 131.896C416.05 132.307 415.793 132.876 415.728 133.604H420.572ZM423.01 134.15C423.01 133.357 423.168 132.666 423.486 132.078C423.803 131.481 424.242 131.019 424.802 130.692C425.371 130.365 426.02 130.202 426.748 130.202C427.69 130.202 428.465 130.431 429.072 130.888C429.688 131.345 430.094 131.98 430.29 132.792H428.918C428.787 132.325 428.53 131.957 428.148 131.686C427.774 131.415 427.308 131.28 426.748 131.28C426.02 131.28 425.432 131.532 424.984 132.036C424.536 132.531 424.312 133.235 424.312 134.15C424.312 135.074 424.536 135.788 424.984 136.292C425.432 136.796 426.02 137.048 426.748 137.048C427.308 137.048 427.774 136.917 428.148 136.656C428.521 136.395 428.778 136.021 428.918 135.536H430.29C430.084 136.32 429.674 136.95 429.058 137.426C428.442 137.893 427.672 138.126 426.748 138.126C426.02 138.126 425.371 137.963 424.802 137.636C424.242 137.309 423.803 136.847 423.486 136.25C423.168 135.653 423.01 134.953 423.01 134.15ZM433.46 131.378V135.9C433.46 136.273 433.539 136.539 433.698 136.698C433.856 136.847 434.132 136.922 434.524 136.922H435.462V138H434.314C433.604 138 433.072 137.837 432.718 137.51C432.363 137.183 432.186 136.647 432.186 135.9V131.378H431.192V130.328H432.186V128.396H433.46V130.328H435.462V131.378H433.46ZM438.573 128.242L438.419 135.242H437.355L437.201 128.242H438.573ZM437.943 138.084C437.7 138.084 437.495 138 437.327 137.832C437.159 137.664 437.075 137.459 437.075 137.216C437.075 136.973 437.159 136.768 437.327 136.6C437.495 136.432 437.7 136.348 437.943 136.348C438.176 136.348 438.372 136.432 438.531 136.6C438.699 136.768 438.783 136.973 438.783 137.216C438.783 137.459 438.699 137.664 438.531 137.832C438.372 138 438.176 138.084 437.943 138.084Z" fill="#5A5A5A"/>
<rect x="165" y="157" width="81" height="44" rx="6" fill="#CF6251"/>
<path d="M190.849 179.044C190.849 180.024 190.644 180.887 190.233 181.634C189.822 182.381 189.225 182.964 188.441 183.384C187.666 183.795 186.742 184 185.669 184H182.155V174.116H185.669C186.742 174.116 187.666 174.321 188.441 174.732C189.225 175.133 189.822 175.707 190.233 176.454C190.644 177.191 190.849 178.055 190.849 179.044ZM185.501 182.236C186.565 182.236 187.386 181.956 187.965 181.396C188.553 180.836 188.847 180.052 188.847 179.044C188.847 178.027 188.553 177.238 187.965 176.678C187.386 176.118 186.565 175.838 185.501 175.838H184.129V182.236H185.501ZM199.537 179.828C199.537 180.024 199.513 180.248 199.467 180.5H193.783C193.811 181.191 193.997 181.699 194.343 182.026C194.688 182.353 195.117 182.516 195.631 182.516C196.088 182.516 196.466 182.404 196.765 182.18C197.073 181.956 197.269 181.653 197.353 181.27H199.439C199.336 181.811 199.117 182.297 198.781 182.726C198.445 183.155 198.011 183.491 197.479 183.734C196.956 183.977 196.373 184.098 195.729 184.098C194.973 184.098 194.301 183.939 193.713 183.622C193.125 183.295 192.667 182.833 192.341 182.236C192.014 181.639 191.851 180.934 191.851 180.122C191.851 179.31 192.014 178.605 192.341 178.008C192.667 177.401 193.125 176.939 193.713 176.622C194.301 176.305 194.973 176.146 195.729 176.146C196.494 176.146 197.161 176.305 197.731 176.622C198.309 176.939 198.753 177.378 199.061 177.938C199.378 178.489 199.537 179.119 199.537 179.828ZM197.549 179.632C197.577 178.997 197.409 178.517 197.045 178.19C196.69 177.863 196.251 177.7 195.729 177.7C195.197 177.7 194.749 177.863 194.385 178.19C194.021 178.517 193.82 178.997 193.783 179.632H197.549ZM204.998 182.306V184H203.962C203.094 184 202.427 183.79 201.96 183.37C201.503 182.95 201.274 182.25 201.274 181.27V177.91H200.196V176.244H201.274V174.326H203.248V176.244H204.984V177.91H203.248V181.298C203.248 181.671 203.323 181.933 203.472 182.082C203.621 182.231 203.873 182.306 204.228 182.306H204.998ZM209.372 176.146C210.026 176.146 210.586 176.3 211.052 176.608C211.519 176.916 211.85 177.331 212.046 177.854V176.244H214.006V184H212.046V182.376C211.85 182.899 211.519 183.319 211.052 183.636C210.586 183.944 210.026 184.098 209.372 184.098C208.719 184.098 208.131 183.939 207.608 183.622C207.086 183.305 206.675 182.847 206.376 182.25C206.087 181.643 205.942 180.934 205.942 180.122C205.942 179.31 206.087 178.605 206.376 178.008C206.675 177.401 207.086 176.939 207.608 176.622C208.131 176.305 208.719 176.146 209.372 176.146ZM209.988 177.868C209.372 177.868 208.878 178.069 208.504 178.47C208.131 178.871 207.944 179.422 207.944 180.122C207.944 180.822 208.131 181.373 208.504 181.774C208.878 182.166 209.372 182.362 209.988 182.362C210.586 182.362 211.076 182.161 211.458 181.76C211.85 181.349 212.046 180.803 212.046 180.122C212.046 179.431 211.85 178.885 211.458 178.484C211.076 178.073 210.586 177.868 209.988 177.868ZM215.487 174.018C215.487 173.701 215.599 173.444 215.823 173.248C216.047 173.043 216.341 172.94 216.705 172.94C217.069 172.94 217.363 173.043 217.587 173.248C217.811 173.444 217.923 173.701 217.923 174.018C217.923 174.326 217.811 174.583 217.587 174.788C217.363 174.984 217.069 175.082 216.705 175.082C216.341 175.082 216.047 174.984 215.823 174.788C215.599 174.583 215.487 174.326 215.487 174.018ZM217.685 176.244V184H215.711V176.244H217.685ZM221.361 173.64V184H219.387V173.64H221.361ZM225.737 176.146C226.68 176.146 227.436 176.384 228.005 176.86C228.574 177.336 228.929 177.971 229.069 178.764H227.221C227.146 178.391 226.978 178.092 226.717 177.868C226.456 177.644 226.115 177.532 225.695 177.532C225.359 177.532 225.098 177.611 224.911 177.77C224.724 177.929 224.631 178.143 224.631 178.414C224.631 178.629 224.706 178.801 224.855 178.932C225.004 179.063 225.191 179.165 225.415 179.24C225.639 179.315 225.961 179.403 226.381 179.506C226.969 179.637 227.445 179.777 227.809 179.926C228.182 180.066 228.5 180.295 228.761 180.612C229.032 180.92 229.167 181.34 229.167 181.872C229.167 182.535 228.906 183.071 228.383 183.482C227.87 183.893 227.174 184.098 226.297 184.098C225.289 184.098 224.482 183.874 223.875 183.426C223.268 182.969 222.9 182.32 222.769 181.48H224.659C224.706 181.863 224.874 182.166 225.163 182.39C225.452 182.605 225.83 182.712 226.297 182.712C226.633 182.712 226.89 182.633 227.067 182.474C227.244 182.306 227.333 182.091 227.333 181.83C227.333 181.606 227.254 181.424 227.095 181.284C226.946 181.144 226.754 181.037 226.521 180.962C226.297 180.887 225.975 180.799 225.555 180.696C224.976 180.565 224.505 180.435 224.141 180.304C223.786 180.164 223.478 179.945 223.217 179.646C222.965 179.347 222.839 178.937 222.839 178.414C222.839 177.742 223.096 177.196 223.609 176.776C224.122 176.356 224.832 176.146 225.737 176.146Z" fill="white"/>
<path d="M172 160H239V154H172V160ZM243 164V194H249V164H243ZM239 198H172V204H239V198ZM168 194V164H162V194H168ZM172 198C169.791 198 168 196.209 168 194H162C162 199.523 166.477 204 172 204V198ZM243 194C243 196.209 241.209 198 239 198V204C244.523 204 249 199.523 249 194H243ZM239 160C241.209 160 243 161.791 243 164H249C249 158.477 244.523 154 239 154V160ZM172 154C166.477 154 162 158.477 162 164H168C168 161.791 169.791 160 172 160V154Z" fill="#F87661" fill-opacity="0.2"/>
</svg>
