<svg width="1080" height="196" viewBox="0 0 1080 196" fill="none" xmlns="http://www.w3.org/2000/svg">
<rect width="1080" height="196" rx="14" fill="url(#paint0_linear_37_126)"/>
<mask id="mask0_37_126" style="mask-type:alpha" maskUnits="userSpaceOnUse" x="0" y="0" width="1080" height="196">
<rect width="1080" height="196" rx="14" fill="url(#paint1_linear_37_126)"/>
</mask>
<g mask="url(#mask0_37_126)">
<path fill-rule="evenodd" clip-rule="evenodd" d="M863.17 -697.979L863.324 -690.672C863.324 -604.749 829.629 -526.052 775.567 -468.332C721.697 -410.817 647.479 -374.155 566.28 -372.076L559.01 -371.911C512.539 -371.911 468.505 -383.067 429.112 -403.008C450.083 -369.662 467.852 -333.818 481.948 -295.982C492.926 -293.581 504.087 -291.693 515.41 -290.331C529.546 -288.602 544.086 -287.737 559.01 -287.737C664.731 -287.737 760.45 -333.601 829.744 -407.748C899.039 -481.917 941.889 -584.369 941.889 -697.525H977.757C977.757 -573.767 930.888 -461.702 855.093 -380.617C779.317 -299.491 674.635 -249.325 559.01 -249.325C543.124 -249.325 527.257 -250.313 511.487 -252.228C506.191 -252.873 500.925 -253.623 495.689 -254.476C503.882 -226.295 510.088 -197.179 514.134 -167.314C519.35 -166.805 524.534 -166.385 529.681 -166.058C538.931 -165.461 548.721 -165.173 559.01 -165.173C696.368 -165.173 820.724 -224.767 910.713 -321.085C1000.76 -417.465 1056.46 -550.568 1056.46 -697.525H1092.19C1092.19 -682.78 1091.67 -668.166 1090.64 -653.703C1093.8 -653.96 1096.98 -654.192 1100.19 -654.401C1111.02 -655.1 1121.5 -655.45 1131.6 -655.45V-617.059C1121.31 -617.059 1111.56 -616.75 1102.29 -616.174C1097.11 -615.845 1091.9 -615.422 1086.65 -614.909C1082.61 -585.034 1076.4 -555.91 1068.22 -527.724C1073.47 -528.582 1078.76 -529.336 1084.07 -529.984C1099.44 -531.857 1115.29 -532.804 1131.6 -532.804V-494.578V-494.557C1117.1 -494.557 1102.56 -493.651 1088 -491.902C1076.67 -490.52 1065.48 -488.625 1054.48 -486.216C1040.64 -449.04 1023.26 -413.793 1002.78 -380.952C1040.24 -399.828 1081.72 -410.402 1125.17 -410.402L1132 -410.237L1131.15 -371.99L1131.17 -371.97L1125.17 -371.99C1054.72 -371.99 990.18 -340.289 942.811 -289.465C895.268 -238.455 864.958 -168.28 863.247 -91.5591L863.227 -84.6836C863.227 -5.36914 893.268 66.4525 941.83 118.409C990.392 170.387 1057.47 202.541 1131.58 202.541V240.932C1047.57 240.932 971.525 204.476 916.463 145.561C861.419 86.6465 827.359 5.23224 827.359 -84.6836L827.513 -92.4442C828.557 -139.158 838.93 -183.708 856.643 -223.877C825.431 -201.367 791.873 -182.297 756.446 -167.176C754.2 -155.417 752.435 -143.462 751.161 -131.333C749.545 -116.202 748.737 -100.64 748.737 -84.666C748.737 28.4905 791.587 130.943 860.862 205.111C930.157 279.279 1025.88 325.143 1131.6 325.143V363.534C1015.97 363.534 911.27 313.368 835.514 232.242C759.719 151.137 712.85 39.0919 712.85 -84.666C712.85 -101.669 713.773 -118.652 715.561 -135.532C716.165 -141.209 716.867 -146.854 717.666 -152.467C691.33 -143.695 664.119 -137.049 636.209 -132.717C635.734 -127.135 635.341 -121.587 635.036 -116.079C634.478 -106.177 634.209 -95.6995 634.209 -84.6864C634.209 62.3326 689.867 195.436 779.875 291.754C869.921 388.134 994.278 447.748 1131.58 447.748V485.975C1117.8 485.975 1104.15 485.416 1090.63 484.319C1090.87 487.705 1091.09 491.118 1091.29 494.559C1091.94 506.148 1092.27 517.367 1092.27 528.174H1056.4C1056.4 517.161 1056.11 506.724 1055.57 496.802C1055.26 491.255 1054.87 485.668 1054.39 480.045C1026.48 475.718 999.277 469.081 972.949 460.32C973.752 465.957 974.458 471.628 975.064 477.332C976.815 493.758 977.699 510.721 977.699 528.177H941.985H941.965C941.965 512.656 941.119 497.093 939.484 481.51C938.193 469.378 936.422 457.396 934.169 445.623C899.438 430.811 866.507 412.206 835.825 390.287C853.462 430.385 863.343 474.782 863.343 521.297L863.189 528.625L827.455 527.72H827.436L827.455 521.297C827.455 445.914 797.837 376.81 750.353 326.109C702.695 275.223 637.132 242.78 565.452 240.948L559.029 240.928C484.926 240.928 417.825 273.082 369.282 325.059C320.72 377.037 290.679 448.858 290.679 528.152H254.811C254.811 438.236 288.871 356.843 343.914 297.907C398.977 238.993 475.041 202.536 559.029 202.536L566.299 202.701C609.923 203.818 651.533 214.917 689.055 233.87C668.026 200.467 650.212 164.552 636.085 126.637C625.102 124.234 613.938 122.346 602.61 120.982C588.474 119.253 573.934 118.389 559.01 118.389C453.29 118.389 357.57 164.252 288.276 238.421C218.981 312.568 176.132 415.02 176.132 528.177H140.263C140.263 404.419 187.132 292.354 262.927 211.269C338.703 130.143 443.385 79.9973 559.01 79.9973C574.896 79.9973 590.763 80.9648 606.533 82.8792C611.833 83.5248 617.103 84.2756 622.342 85.1297C614.146 56.941 607.936 27.816 603.888 -2.05701C598.671 -2.56622 593.486 -2.98608 588.339 -3.31335C579.088 -3.91028 569.299 -4.19849 559.01 -4.19849C421.652 -4.19849 297.295 55.3954 207.307 151.713C117.261 248.093 61.5637 381.196 61.5637 528.154H25.8492C25.8492 513.418 26.3703 498.813 27.3939 484.359C24.2375 484.616 21.0559 484.846 17.8488 485.048C7.02099 485.728 -3.46067 486.078 -13.5577 486.078V447.686C-3.26834 447.686 6.48248 447.377 15.7525 446.801C20.9284 446.472 26.1425 446.049 31.3891 445.536C35.4309 415.671 41.6312 386.556 49.8151 358.379C44.5562 359.234 39.2663 359.986 33.9463 360.634C18.5989 362.508 2.7514 363.454 -13.5577 363.454V325.207C0.943552 325.207 15.4832 324.302 30.0422 322.552C41.3688 321.171 52.555 319.276 63.5461 316.868C77.6311 279.03 95.3874 243.189 116.344 209.849C76.9445 229.794 32.9059 240.952 -13.5577 240.952V202.561C60.5448 202.561 127.627 170.407 176.189 118.429C224.751 66.4723 254.792 -5.34924 254.792 -84.6638L254.773 -91.5392C253.061 -168.26 222.77 -238.435 175.208 -289.445C127.839 -340.29 63.2757 -371.97 -7.15327 -371.97L-13.1538 -371.95L-14 -410.197V-410.218L-7.15327 -410.382C73.1227 -410.382 146.648 -374.317 200.576 -316.452C254.311 -258.793 288.564 -179.355 290.506 -92.4243L290.66 -84.6638C290.66 -34.9432 280.246 12.1777 261.627 54.3323C292.774 31.895 326.256 12.8826 361.598 -2.20038C363.842 -13.9516 365.605 -25.897 366.878 -38.0173C368.494 -53.1474 369.302 -68.7098 369.302 -84.6838C369.302 -197.84 326.452 -300.292 257.158 -374.461C187.882 -448.629 92.1628 -494.493 -13.5577 -494.493V-532.884C102.067 -532.884 206.769 -482.718 282.525 -401.592C358.32 -320.487 405.17 -208.442 405.17 -84.6838C405.17 -67.6805 404.266 -50.6978 402.477 -33.8179C401.875 -28.1489 401.174 -22.512 400.376 -16.9078C426.705 -25.6766 453.909 -32.3203 481.811 -36.6515C482.286 -42.2354 482.678 -47.785 482.984 -53.2942C483.542 -63.1956 483.811 -73.6735 483.811 -84.6865C483.811 -231.706 428.133 -364.809 338.145 -461.127C248.099 -557.506 123.742 -617.121 -13.5577 -617.121V-655.368C0.209031 -655.368 13.8534 -654.81 27.3569 -653.715C27.1175 -657.087 26.9035 -660.486 26.715 -663.91C26.0804 -675.499 25.7534 -686.718 25.7534 -697.525H61.6218C61.6218 -686.512 61.9103 -676.075 62.4488 -666.153C62.7559 -660.621 63.1502 -655.047 63.6287 -649.438C91.532 -645.112 118.734 -638.475 145.059 -629.715C144.261 -635.333 143.56 -640.982 142.956 -646.659C141.205 -663.107 140.321 -680.069 140.321 -697.525H176.055C176.055 -682.004 176.901 -666.442 178.536 -650.859C179.825 -638.742 181.594 -626.775 183.842 -615.016C219.204 -599.934 252.699 -580.92 283.855 -558.478C265.218 -600.651 254.792 -647.791 254.792 -697.527H290.66C290.66 -618.212 320.701 -546.411 369.263 -494.434C417.806 -442.456 484.908 -410.302 559.01 -410.302L565.434 -410.323C637.113 -412.155 702.676 -444.576 750.334 -495.483C797.838 -546.185 827.436 -615.289 827.436 -690.672L827.417 -697.094L863.151 -698L863.17 -697.979ZM518.078 -40.933C531.588 -42.0308 545.238 -42.5897 559.01 -42.5897C569.126 -42.5897 579.608 -42.2397 590.455 -41.5605C593.624 -41.3606 596.768 -41.1321 599.888 -40.8768C598.863 -55.3365 598.34 -69.9465 598.34 -84.6864C598.34 -95.5142 598.667 -106.733 599.302 -118.343C599.489 -121.734 599.702 -125.099 599.941 -128.437C586.437 -127.34 572.794 -126.782 559.029 -126.782C548.913 -126.782 538.431 -127.132 527.584 -127.811C524.409 -128.011 521.259 -128.24 518.133 -128.496C519.158 -114.043 519.68 -99.4402 519.68 -84.7071C519.68 -73.8793 519.353 -62.6605 518.718 -51.0504C518.531 -47.6512 518.317 -44.279 518.078 -40.933ZM693.137 -553.944C727.487 -590.688 748.719 -641.451 748.719 -697.525H748.681H712.793C712.793 -652.053 695.58 -610.882 667.751 -581.096C639.921 -551.288 601.457 -532.865 558.972 -532.865C516.488 -532.865 478.042 -551.288 450.194 -581.096C422.365 -610.882 405.132 -652.073 405.132 -697.525H369.264C369.264 -641.451 390.496 -590.688 424.846 -553.944C459.175 -517.199 506.602 -494.473 558.992 -494.473C611.381 -494.473 658.808 -517.199 693.137 -553.944ZM634.209 -697.525C634.209 -675.314 625.785 -655.202 612.188 -640.628C598.629 -626.115 579.82 -617.12 559.03 -617.12C538.22 -617.12 519.43 -626.095 505.871 -640.628C492.274 -655.202 483.85 -675.334 483.85 -697.525H519.719C519.719 -685.915 524.123 -675.396 531.22 -667.759C538.374 -660.101 548.221 -655.367 559.03 -655.367C569.838 -655.367 579.685 -660.101 586.84 -667.759C593.956 -675.376 598.36 -685.895 598.36 -697.525H634.209ZM-13.5577 -287.736C38.8314 -287.736 86.2585 -265.01 120.588 -228.245C154.918 -191.5 176.151 -140.737 176.151 -84.6632C176.151 -28.5894 154.918 22.1736 120.588 58.9181C86.2585 95.6831 38.8314 118.409 -13.5577 118.409V80.0178C28.9075 80.0178 67.3915 61.5735 95.2207 31.7869C123.069 1.97961 140.282 -39.17 140.282 -84.6426C140.282 -130.115 123.069 -171.285 95.2207 -201.072C67.3915 -230.859 28.9267 -249.283 -13.5577 -249.283V-287.694V-287.736ZM39.6007 -141.584C25.9841 -156.137 7.19408 -165.154 -13.5577 -165.154V-126.783C-2.69137 -126.783 7.13638 -122.069 14.2524 -114.452C21.4068 -106.795 25.8303 -96.2551 25.8303 -84.6863C25.8303 -73.1174 21.4068 -62.5778 14.2524 -54.9201C7.11715 -47.3242 -2.7106 -42.6102 -13.5577 -42.6102V-4.21899C7.19408 -4.21899 26.0034 -13.2352 39.6007 -27.7889C53.1787 -42.3015 61.564 -62.4131 61.564 -84.6863C61.564 -106.939 53.1787 -127.071 39.6007 -141.584ZM1022.82 -201.118C1050.65 -230.905 1089.13 -249.329 1131.6 -249.329V-249.37V-287.782C1079.21 -287.782 1031.78 -265.056 997.451 -228.291C963.121 -191.546 941.889 -140.783 941.889 -84.7094C941.889 -28.6355 963.121 22.1274 997.451 58.8719C1031.78 95.637 1079.21 118.363 1131.6 118.363V79.9717C1089.11 79.9717 1050.65 61.5273 1022.82 31.7406C994.97 1.95398 977.757 -39.2163 977.757 -84.6888C977.757 -130.161 994.97 -171.311 1022.82 -201.118ZM1131.6 -126.764C1120.75 -126.764 1110.92 -122.05 1103.79 -114.434C1096.63 -106.776 1092.21 -96.257 1092.21 -84.6675C1092.21 -73.0987 1096.63 -62.5591 1103.79 -54.9015C1110.9 -47.3055 1120.73 -42.5916 1131.6 -42.5916V-4.20032C1110.84 -4.20032 1092.05 -13.2166 1078.44 -27.7703C1064.88 -42.2828 1056.47 -62.415 1056.47 -84.6675C1056.47 -106.941 1064.86 -127.052 1078.44 -141.565C1092.05 -156.119 1110.86 -165.135 1131.6 -165.135V-126.764ZM712.85 528.173C712.85 482.721 695.637 441.53 667.807 411.743C639.959 381.936 601.513 363.512 559.029 363.512C516.545 363.512 478.08 381.936 450.251 411.743C422.421 441.53 405.189 482.7 405.189 528.173H369.321C369.321 472.099 390.553 421.336 424.902 384.591C459.232 347.847 506.659 325.121 559.048 325.121C611.437 325.121 658.864 347.847 693.194 384.591C727.543 421.336 748.776 472.099 748.776 528.173H712.888H712.85ZM586.82 498.409C593.936 506.026 598.34 516.565 598.34 528.175H634.189C634.189 505.984 625.765 485.852 612.168 471.278C598.571 456.724 579.781 447.708 559.01 447.708C538.258 447.708 519.449 456.724 505.851 471.278C492.254 485.852 483.83 505.964 483.83 528.175H519.699C519.699 516.545 524.103 506.005 531.2 498.409C538.316 490.793 548.163 486.079 559.01 486.079C569.876 486.079 579.723 490.793 586.82 498.409Z" fill="url(#paint2_linear_37_126)"/>
</g>
<path d="M51.017 74.416C51.017 73.328 51.2623 72.352 51.753 71.488C52.2437 70.6133 52.9103 69.9307 53.753 69.44C54.6063 68.9493 55.5503 68.704 56.585 68.704C57.801 68.704 58.8623 68.9973 59.769 69.584C60.6757 70.1707 61.337 71.0027 61.753 72.08H60.009C59.6997 71.408 59.2517 70.8907 58.665 70.528C58.089 70.1653 57.3957 69.984 56.585 69.984C55.8063 69.984 55.1077 70.1653 54.489 70.528C53.8703 70.8907 53.385 71.408 53.033 72.08C52.681 72.7413 52.505 73.52 52.505 74.416C52.505 75.3013 52.681 76.08 53.033 76.752C53.385 77.4133 53.8703 77.9253 54.489 78.288C55.1077 78.6507 55.8063 78.832 56.585 78.832C57.3957 78.832 58.089 78.656 58.665 78.304C59.2517 77.9413 59.6997 77.424 60.009 76.752H61.753C61.337 77.8187 60.6757 78.6453 59.769 79.232C58.8623 79.808 57.801 80.096 56.585 80.096C55.5503 80.096 54.6063 79.856 53.753 79.376C52.9103 78.8853 52.2437 78.208 51.753 77.344C51.2623 76.48 51.017 75.504 51.017 74.416ZM71.5204 71.232V80H70.0644V78.704C69.787 79.152 69.3977 79.504 68.8964 79.76C68.4057 80.0053 67.8617 80.128 67.2644 80.128C66.5817 80.128 65.9684 79.9893 65.4244 79.712C64.8804 79.424 64.4484 78.9973 64.1284 78.432C63.819 77.8667 63.6644 77.1787 63.6644 76.368V71.232H65.1044V76.176C65.1044 77.04 65.323 77.7067 65.7604 78.176C66.1977 78.6347 66.795 78.864 67.5524 78.864C68.331 78.864 68.9444 78.624 69.3924 78.144C69.8404 77.664 70.0644 76.9653 70.0644 76.048V71.232H71.5204ZM76.9067 80.144C76.2347 80.144 75.6321 80.032 75.0987 79.808C74.5654 79.5733 74.1441 79.2533 73.8347 78.848C73.5254 78.432 73.3547 77.9573 73.3227 77.424H74.8267C74.8694 77.8613 75.0721 78.2187 75.4347 78.496C75.8081 78.7733 76.2934 78.912 76.8907 78.912C77.4454 78.912 77.8827 78.7893 78.2027 78.544C78.5227 78.2987 78.6827 77.9893 78.6827 77.616C78.6827 77.232 78.5121 76.9493 78.1707 76.768C77.8294 76.576 77.3014 76.3893 76.5867 76.208C75.9361 76.0373 75.4027 75.8667 74.9867 75.696C74.5814 75.5147 74.2294 75.2533 73.9307 74.912C73.6427 74.56 73.4987 74.1013 73.4987 73.536C73.4987 73.088 73.6321 72.6773 73.8987 72.304C74.1654 71.9307 74.5441 71.6373 75.0347 71.424C75.5254 71.2 76.0854 71.088 76.7147 71.088C77.6854 71.088 78.4694 71.3333 79.0667 71.824C79.6641 72.3147 79.9841 72.9867 80.0267 73.84H78.5707C78.5387 73.3813 78.3521 73.0133 78.0107 72.736C77.6801 72.4587 77.2321 72.32 76.6667 72.32C76.1441 72.32 75.7281 72.432 75.4187 72.656C75.1094 72.88 74.9547 73.1733 74.9547 73.536C74.9547 73.824 75.0454 74.064 75.2267 74.256C75.4187 74.4373 75.6534 74.5867 75.9307 74.704C76.2187 74.8107 76.6134 74.9333 77.1147 75.072C77.7441 75.2427 78.2561 75.4133 78.6507 75.584C79.0454 75.744 79.3814 75.9893 79.6587 76.32C79.9467 76.6507 80.0961 77.0827 80.1067 77.616C80.1067 78.096 79.9734 78.528 79.7067 78.912C79.4401 79.296 79.0614 79.6 78.5707 79.824C78.0907 80.0373 77.5361 80.144 76.9067 80.144ZM83.7621 72.432V77.6C83.7621 78.0267 83.8528 78.3307 84.0341 78.512C84.2155 78.6827 84.5301 78.768 84.9781 78.768H86.0501V80H84.7381C83.9275 80 83.3195 79.8133 82.9141 79.44C82.5088 79.0667 82.3061 78.4533 82.3061 77.6V72.432H81.1701V71.232H82.3061V69.024H83.7621V71.232H86.0501V72.432H83.7621ZM91.4623 80.144C90.6409 80.144 89.8943 79.9573 89.2223 79.584C88.5609 79.2107 88.0383 78.6827 87.6543 78C87.2809 77.3067 87.0943 76.5067 87.0943 75.6C87.0943 74.704 87.2863 73.9147 87.6703 73.232C88.0649 72.5387 88.5983 72.0107 89.2703 71.648C89.9423 71.2747 90.6943 71.088 91.5263 71.088C92.3583 71.088 93.1103 71.2747 93.7823 71.648C94.4543 72.0107 94.9823 72.5333 95.3663 73.216C95.7609 73.8987 95.9583 74.6933 95.9583 75.6C95.9583 76.5067 95.7556 77.3067 95.3503 78C94.9556 78.6827 94.4169 79.2107 93.7343 79.584C93.0516 79.9573 92.2943 80.144 91.4623 80.144ZM91.4623 78.864C91.9849 78.864 92.4756 78.7413 92.9343 78.496C93.3929 78.2507 93.7609 77.8827 94.0383 77.392C94.3263 76.9013 94.4703 76.304 94.4703 75.6C94.4703 74.896 94.3316 74.2987 94.0543 73.808C93.7769 73.3173 93.4143 72.9547 92.9663 72.72C92.5183 72.4747 92.0329 72.352 91.5103 72.352C90.9769 72.352 90.4863 72.4747 90.0383 72.72C89.6009 72.9547 89.2489 73.3173 88.9823 73.808C88.7156 74.2987 88.5823 74.896 88.5823 75.6C88.5823 76.3147 88.7103 76.9173 88.9663 77.408C89.2329 77.8987 89.5849 78.2667 90.0223 78.512C90.4596 78.7467 90.9396 78.864 91.4623 78.864ZM108.241 71.072C108.923 71.072 109.531 71.216 110.065 71.504C110.598 71.7813 111.019 72.2027 111.329 72.768C111.638 73.3333 111.793 74.0213 111.793 74.832V80H110.353V75.04C110.353 74.1653 110.134 73.4987 109.697 73.04C109.27 72.5707 108.689 72.336 107.953 72.336C107.195 72.336 106.593 72.5813 106.145 73.072C105.697 73.552 105.473 74.2507 105.473 75.168V80H104.033V75.04C104.033 74.1653 103.814 73.4987 103.377 73.04C102.95 72.5707 102.369 72.336 101.633 72.336C100.875 72.336 100.273 72.5813 99.8246 73.072C99.3766 73.552 99.1526 74.2507 99.1526 75.168V80H97.6966V71.232H99.1526V72.496C99.4406 72.0373 99.8246 71.6853 100.305 71.44C100.795 71.1947 101.334 71.072 101.921 71.072C102.657 71.072 103.307 71.2373 103.873 71.568C104.438 71.8987 104.859 72.384 105.137 73.024C105.382 72.4053 105.787 71.9253 106.353 71.584C106.918 71.2427 107.547 71.072 108.241 71.072ZM122.005 75.28C122.005 75.5573 121.989 75.8507 121.957 76.16H114.949C115.002 77.024 115.296 77.7013 115.829 78.192C116.373 78.672 117.029 78.912 117.797 78.912C118.426 78.912 118.949 78.768 119.365 78.48C119.792 78.1813 120.09 77.7867 120.261 77.296H121.829C121.594 78.1387 121.125 78.8267 120.421 79.36C119.717 79.8827 118.842 80.144 117.797 80.144C116.965 80.144 116.218 79.9573 115.557 79.584C114.906 79.2107 114.394 78.6827 114.021 78C113.648 77.3067 113.461 76.5067 113.461 75.6C113.461 74.6933 113.642 73.8987 114.005 73.216C114.368 72.5333 114.874 72.0107 115.525 71.648C116.186 71.2747 116.944 71.088 117.797 71.088C118.629 71.088 119.365 71.2693 120.005 71.632C120.645 71.9947 121.136 72.496 121.477 73.136C121.829 73.7653 122.005 74.48 122.005 75.28ZM120.501 74.976C120.501 74.4213 120.378 73.9467 120.133 73.552C119.888 73.1467 119.552 72.8427 119.125 72.64C118.709 72.4267 118.245 72.32 117.733 72.32C116.997 72.32 116.368 72.5547 115.845 73.024C115.333 73.4933 115.04 74.144 114.965 74.976H120.501ZM125.207 72.656C125.463 72.1547 125.826 71.7653 126.295 71.488C126.775 71.2107 127.356 71.072 128.039 71.072V72.576H127.655C126.023 72.576 125.207 73.4613 125.207 75.232V80H123.751V71.232H125.207V72.656ZM132.648 80.144C131.976 80.144 131.373 80.032 130.84 79.808C130.306 79.5733 129.885 79.2533 129.576 78.848C129.266 78.432 129.096 77.9573 129.064 77.424H130.568C130.61 77.8613 130.813 78.2187 131.176 78.496C131.549 78.7733 132.034 78.912 132.632 78.912C133.186 78.912 133.624 78.7893 133.944 78.544C134.264 78.2987 134.424 77.9893 134.424 77.616C134.424 77.232 134.253 76.9493 133.912 76.768C133.57 76.576 133.042 76.3893 132.328 76.208C131.677 76.0373 131.144 75.8667 130.728 75.696C130.322 75.5147 129.97 75.2533 129.672 74.912C129.384 74.56 129.24 74.1013 129.24 73.536C129.24 73.088 129.373 72.6773 129.64 72.304C129.906 71.9307 130.285 71.6373 130.776 71.424C131.266 71.2 131.826 71.088 132.456 71.088C133.426 71.088 134.21 71.3333 134.808 71.824C135.405 72.3147 135.725 72.9867 135.768 73.84H134.312C134.28 73.3813 134.093 73.0133 133.752 72.736C133.421 72.4587 132.973 72.32 132.408 72.32C131.885 72.32 131.469 72.432 131.16 72.656C130.85 72.88 130.696 73.1733 130.696 73.536C130.696 73.824 130.786 74.064 130.968 74.256C131.16 74.4373 131.394 74.5867 131.672 74.704C131.96 74.8107 132.354 74.9333 132.856 75.072C133.485 75.2427 133.997 75.4133 134.392 75.584C134.786 75.744 135.122 75.9893 135.4 76.32C135.688 76.6507 135.837 77.0827 135.848 77.616C135.848 78.096 135.714 78.528 135.448 78.912C135.181 79.296 134.802 79.6 134.312 79.824C133.832 80.0373 133.277 80.144 132.648 80.144Z" fill="white"/>
<path d="M51.7955 103.4V98.756H60.4715V125H55.2875V103.4H51.7955ZM66.2425 119.312C68.5465 117.392 70.3825 115.796 71.7505 114.524C73.1185 113.228 74.2585 111.884 75.1705 110.492C76.0825 109.1 76.5385 107.732 76.5385 106.388C76.5385 105.164 76.2505 104.204 75.6745 103.508C75.0985 102.812 74.2105 102.464 73.0105 102.464C71.8105 102.464 70.8865 102.872 70.2385 103.688C69.5905 104.48 69.2545 105.572 69.2305 106.964H64.3345C64.4305 104.084 65.2825 101.9 66.8905 100.412C68.5225 98.924 70.5865 98.18 73.0825 98.18C75.8185 98.18 77.9185 98.912 79.3825 100.376C80.8465 101.816 81.5785 103.724 81.5785 106.1C81.5785 107.972 81.0745 109.76 80.0665 111.464C79.0585 113.168 77.9065 114.656 76.6105 115.928C75.3145 117.176 73.6225 118.688 71.5345 120.464H82.1545V124.64H64.3705V120.896L66.2425 119.312ZM101.242 102.572L91.6664 125H86.5544L96.2024 103.148H83.8904V98.828H101.242V102.572ZM107.861 111.104C105.461 109.856 104.261 107.924 104.261 105.308C104.261 104.012 104.585 102.836 105.233 101.78C105.905 100.7 106.901 99.848 108.221 99.224C109.565 98.576 111.197 98.252 113.117 98.252C115.037 98.252 116.657 98.576 117.977 99.224C119.321 99.848 120.317 100.7 120.965 101.78C121.637 102.836 121.973 104.012 121.973 105.308C121.973 106.628 121.649 107.792 121.001 108.8C120.353 109.784 119.489 110.552 118.409 111.104C119.729 111.68 120.761 112.52 121.505 113.624C122.249 114.728 122.621 116.036 122.621 117.548C122.621 119.18 122.201 120.608 121.361 121.832C120.545 123.032 119.417 123.956 117.977 124.604C116.537 125.252 114.917 125.576 113.117 125.576C111.317 125.576 109.697 125.252 108.257 124.604C106.841 123.956 105.713 123.032 104.873 121.832C104.057 120.608 103.649 119.18 103.649 117.548C103.649 116.036 104.021 114.728 104.765 113.624C105.509 112.496 106.541 111.656 107.861 111.104ZM117.077 106.028C117.077 104.852 116.717 103.94 115.997 103.292C115.301 102.644 114.341 102.32 113.117 102.32C111.917 102.32 110.957 102.644 110.237 103.292C109.541 103.94 109.193 104.864 109.193 106.064C109.193 107.144 109.553 108.008 110.273 108.656C111.017 109.304 111.965 109.628 113.117 109.628C114.269 109.628 115.217 109.304 115.961 108.656C116.705 107.984 117.077 107.108 117.077 106.028ZM113.117 113.3C111.749 113.3 110.633 113.648 109.769 114.344C108.929 115.04 108.509 116.036 108.509 117.332C108.509 118.532 108.917 119.516 109.733 120.284C110.573 121.028 111.701 121.4 113.117 121.4C114.533 121.4 115.649 121.016 116.465 120.248C117.281 119.48 117.689 118.508 117.689 117.332C117.689 116.06 117.269 115.076 116.429 114.38C115.589 113.66 114.485 113.3 113.117 113.3ZM130.202 111.104C127.802 109.856 126.602 107.924 126.602 105.308C126.602 104.012 126.926 102.836 127.574 101.78C128.246 100.7 129.242 99.848 130.562 99.224C131.906 98.576 133.538 98.252 135.458 98.252C137.378 98.252 138.998 98.576 140.318 99.224C141.662 99.848 142.658 100.7 143.306 101.78C143.978 102.836 144.314 104.012 144.314 105.308C144.314 106.628 143.99 107.792 143.342 108.8C142.694 109.784 141.83 110.552 140.75 111.104C142.07 111.68 143.102 112.52 143.846 113.624C144.59 114.728 144.962 116.036 144.962 117.548C144.962 119.18 144.542 120.608 143.702 121.832C142.886 123.032 141.758 123.956 140.318 124.604C138.878 125.252 137.258 125.576 135.458 125.576C133.658 125.576 132.038 125.252 130.598 124.604C129.182 123.956 128.054 123.032 127.214 121.832C126.398 120.608 125.99 119.18 125.99 117.548C125.99 116.036 126.362 114.728 127.106 113.624C127.85 112.496 128.882 111.656 130.202 111.104ZM139.418 106.028C139.418 104.852 139.058 103.94 138.338 103.292C137.642 102.644 136.682 102.32 135.458 102.32C134.258 102.32 133.298 102.644 132.578 103.292C131.882 103.94 131.534 104.864 131.534 106.064C131.534 107.144 131.894 108.008 132.614 108.656C133.358 109.304 134.306 109.628 135.458 109.628C136.61 109.628 137.558 109.304 138.302 108.656C139.046 107.984 139.418 107.108 139.418 106.028ZM135.458 113.3C134.09 113.3 132.974 113.648 132.11 114.344C131.27 115.04 130.85 116.036 130.85 117.332C130.85 118.532 131.258 119.516 132.074 120.284C132.914 121.028 134.042 121.4 135.458 121.4C136.874 121.4 137.99 121.016 138.806 120.248C139.622 119.48 140.03 118.508 140.03 117.332C140.03 116.06 139.61 115.076 138.77 114.38C137.93 113.66 136.826 113.3 135.458 113.3ZM167.555 114.38H160.751V121.364H155.999V114.38H149.195V109.988H155.999V103.004H160.751V109.988H167.555V114.38Z" fill="white"/>
<path d="M236.25 77.52H231.386L230.49 80H228.954L232.986 68.912H234.666L238.682 80H237.146L236.25 77.52ZM235.834 76.336L233.818 70.704L231.802 76.336H235.834ZM239.72 75.584C239.72 74.688 239.901 73.904 240.264 73.232C240.626 72.5493 241.122 72.0213 241.752 71.648C242.392 71.2747 243.106 71.088 243.896 71.088C244.578 71.088 245.213 71.248 245.8 71.568C246.386 71.8773 246.834 72.288 247.144 72.8V68.16H248.616V80H247.144V78.352C246.856 78.8747 246.429 79.3067 245.864 79.648C245.298 79.9787 244.637 80.144 243.88 80.144C243.101 80.144 242.392 79.952 241.752 79.568C241.122 79.184 240.626 78.6453 240.264 77.952C239.901 77.2587 239.72 76.4693 239.72 75.584ZM247.144 75.6C247.144 74.9387 247.01 74.3627 246.744 73.872C246.477 73.3813 246.114 73.008 245.656 72.752C245.208 72.4853 244.712 72.352 244.168 72.352C243.624 72.352 243.128 72.48 242.68 72.736C242.232 72.992 241.874 73.3653 241.608 73.856C241.341 74.3467 241.208 74.9227 241.208 75.584C241.208 76.256 241.341 76.8427 241.608 77.344C241.874 77.8347 242.232 78.2133 242.68 78.48C243.128 78.736 243.624 78.864 244.168 78.864C244.712 78.864 245.208 78.736 245.656 78.48C246.114 78.2133 246.477 77.8347 246.744 77.344C247.01 76.8427 247.144 76.2613 247.144 75.6ZM254.724 80.144C253.903 80.144 253.156 79.9573 252.484 79.584C251.823 79.2107 251.3 78.6827 250.916 78C250.543 77.3067 250.356 76.5067 250.356 75.6C250.356 74.704 250.548 73.9147 250.932 73.232C251.327 72.5387 251.86 72.0107 252.532 71.648C253.204 71.2747 253.956 71.088 254.788 71.088C255.62 71.088 256.372 71.2747 257.044 71.648C257.716 72.0107 258.244 72.5333 258.628 73.216C259.023 73.8987 259.22 74.6933 259.22 75.6C259.22 76.5067 259.018 77.3067 258.612 78C258.218 78.6827 257.679 79.2107 256.996 79.584C256.314 79.9573 255.556 80.144 254.724 80.144ZM254.724 78.864C255.247 78.864 255.738 78.7413 256.196 78.496C256.655 78.2507 257.023 77.8827 257.3 77.392C257.588 76.9013 257.732 76.304 257.732 75.6C257.732 74.896 257.594 74.2987 257.316 73.808C257.039 73.3173 256.676 72.9547 256.228 72.72C255.78 72.4747 255.295 72.352 254.772 72.352C254.239 72.352 253.748 72.4747 253.3 72.72C252.863 72.9547 252.511 73.3173 252.244 73.808C251.978 74.2987 251.844 74.896 251.844 75.6C251.844 76.3147 251.972 76.9173 252.228 77.408C252.495 77.8987 252.847 78.2667 253.284 78.512C253.722 78.7467 254.202 78.864 254.724 78.864ZM262.415 72.848C262.703 72.3467 263.129 71.9307 263.695 71.6C264.271 71.2587 264.937 71.088 265.695 71.088C266.473 71.088 267.177 71.2747 267.807 71.648C268.447 72.0213 268.948 72.5493 269.311 73.232C269.673 73.904 269.855 74.688 269.855 75.584C269.855 76.4693 269.673 77.2587 269.311 77.952C268.948 78.6453 268.447 79.184 267.807 79.568C267.177 79.952 266.473 80.144 265.695 80.144C264.948 80.144 264.287 79.9787 263.711 79.648C263.145 79.3067 262.713 78.8853 262.415 78.384V84.16H260.959V71.232H262.415V72.848ZM268.367 75.584C268.367 74.9227 268.233 74.3467 267.967 73.856C267.7 73.3653 267.337 72.992 266.879 72.736C266.431 72.48 265.935 72.352 265.391 72.352C264.857 72.352 264.361 72.4853 263.903 72.752C263.455 73.008 263.092 73.3867 262.815 73.888C262.548 74.3787 262.415 74.9493 262.415 75.6C262.415 76.2613 262.548 76.8427 262.815 77.344C263.092 77.8347 263.455 78.2133 263.903 78.48C264.361 78.736 264.857 78.864 265.391 78.864C265.935 78.864 266.431 78.736 266.879 78.48C267.337 78.2133 267.7 77.8347 267.967 77.344C268.233 76.8427 268.367 76.256 268.367 75.584ZM273.371 72.432V77.6C273.371 78.0267 273.462 78.3307 273.643 78.512C273.824 78.6827 274.139 78.768 274.587 78.768H275.659V80H274.347C273.536 80 272.928 79.8133 272.523 79.44C272.118 79.0667 271.915 78.4533 271.915 77.6V72.432H270.779V71.232H271.915V69.024H273.371V71.232H275.659V72.432H273.371ZM285.247 75.28C285.247 75.5573 285.231 75.8507 285.199 76.16H278.191C278.245 77.024 278.538 77.7013 279.071 78.192C279.615 78.672 280.271 78.912 281.039 78.912C281.669 78.912 282.191 78.768 282.607 78.48C283.034 78.1813 283.333 77.7867 283.503 77.296H285.071C284.837 78.1387 284.367 78.8267 283.663 79.36C282.959 79.8827 282.085 80.144 281.039 80.144C280.207 80.144 279.461 79.9573 278.799 79.584C278.149 79.2107 277.637 78.6827 277.263 78C276.89 77.3067 276.703 76.5067 276.703 75.6C276.703 74.6933 276.885 73.8987 277.247 73.216C277.61 72.5333 278.117 72.0107 278.767 71.648C279.429 71.2747 280.186 71.088 281.039 71.088C281.871 71.088 282.607 71.2693 283.247 71.632C283.887 71.9947 284.378 72.496 284.719 73.136C285.071 73.7653 285.247 74.48 285.247 75.28ZM283.743 74.976C283.743 74.4213 283.621 73.9467 283.375 73.552C283.13 73.1467 282.794 72.8427 282.367 72.64C281.951 72.4267 281.487 72.32 280.975 72.32C280.239 72.32 279.61 72.5547 279.087 73.024C278.575 73.4933 278.282 74.144 278.207 74.976H283.743ZM286.449 75.584C286.449 74.688 286.63 73.904 286.993 73.232C287.356 72.5493 287.852 72.0213 288.481 71.648C289.121 71.2747 289.836 71.088 290.625 71.088C291.308 71.088 291.942 71.248 292.529 71.568C293.116 71.8773 293.564 72.288 293.873 72.8V68.16H295.345V80H293.873V78.352C293.585 78.8747 293.158 79.3067 292.593 79.648C292.028 79.9787 291.366 80.144 290.609 80.144C289.83 80.144 289.121 79.952 288.481 79.568C287.852 79.184 287.356 78.6453 286.993 77.952C286.63 77.2587 286.449 76.4693 286.449 75.584ZM293.873 75.6C293.873 74.9387 293.74 74.3627 293.473 73.872C293.206 73.3813 292.844 73.008 292.385 72.752C291.937 72.4853 291.441 72.352 290.897 72.352C290.353 72.352 289.857 72.48 289.409 72.736C288.961 72.992 288.604 73.3653 288.337 73.856C288.07 74.3467 287.937 74.9227 287.937 75.584C287.937 76.256 288.07 76.8427 288.337 77.344C288.604 77.8347 288.961 78.2133 289.409 78.48C289.857 78.736 290.353 78.864 290.897 78.864C291.441 78.864 291.937 78.736 292.385 78.48C292.844 78.2133 293.206 77.8347 293.473 77.344C293.74 76.8427 293.873 76.2613 293.873 75.6Z" fill="white"/>
<path d="M229.982 105.668C230.102 103.268 230.942 101.42 232.502 100.124C234.086 98.804 236.162 98.144 238.73 98.144C240.482 98.144 241.982 98.456 243.23 99.08C244.478 99.68 245.414 100.508 246.038 101.564C246.686 102.596 247.01 103.772 247.01 105.092C247.01 106.604 246.614 107.888 245.822 108.944C245.054 109.976 244.13 110.672 243.05 111.032V111.176C244.442 111.608 245.522 112.376 246.29 113.48C247.082 114.584 247.478 116 247.478 117.728C247.478 119.168 247.142 120.452 246.47 121.58C245.822 122.708 244.85 123.596 243.554 124.244C242.282 124.868 240.746 125.18 238.946 125.18C236.234 125.18 234.026 124.496 232.322 123.128C230.618 121.76 229.718 119.744 229.622 117.08H234.518C234.566 118.256 234.962 119.204 235.706 119.924C236.474 120.62 237.518 120.968 238.838 120.968C240.062 120.968 240.998 120.632 241.646 119.96C242.318 119.264 242.654 118.376 242.654 117.296C242.654 115.856 242.198 114.824 241.286 114.2C240.374 113.576 238.958 113.264 237.038 113.264H235.994V109.124H237.038C240.446 109.124 242.15 107.984 242.15 105.704C242.15 104.672 241.838 103.868 241.214 103.292C240.614 102.716 239.738 102.428 238.586 102.428C237.458 102.428 236.582 102.74 235.958 103.364C235.358 103.964 235.01 104.732 234.914 105.668H229.982ZM255.061 111.104C252.661 109.856 251.461 107.924 251.461 105.308C251.461 104.012 251.785 102.836 252.433 101.78C253.105 100.7 254.101 99.848 255.421 99.224C256.765 98.576 258.397 98.252 260.317 98.252C262.237 98.252 263.857 98.576 265.177 99.224C266.521 99.848 267.517 100.7 268.165 101.78C268.837 102.836 269.173 104.012 269.173 105.308C269.173 106.628 268.849 107.792 268.201 108.8C267.553 109.784 266.689 110.552 265.609 111.104C266.929 111.68 267.961 112.52 268.705 113.624C269.449 114.728 269.821 116.036 269.821 117.548C269.821 119.18 269.401 120.608 268.561 121.832C267.745 123.032 266.617 123.956 265.177 124.604C263.737 125.252 262.117 125.576 260.317 125.576C258.517 125.576 256.897 125.252 255.457 124.604C254.041 123.956 252.913 123.032 252.073 121.832C251.257 120.608 250.849 119.18 250.849 117.548C250.849 116.036 251.221 114.728 251.965 113.624C252.709 112.496 253.741 111.656 255.061 111.104ZM264.277 106.028C264.277 104.852 263.917 103.94 263.197 103.292C262.501 102.644 261.541 102.32 260.317 102.32C259.117 102.32 258.157 102.644 257.437 103.292C256.741 103.94 256.393 104.864 256.393 106.064C256.393 107.144 256.753 108.008 257.473 108.656C258.217 109.304 259.165 109.628 260.317 109.628C261.469 109.628 262.417 109.304 263.161 108.656C263.905 107.984 264.277 107.108 264.277 106.028ZM260.317 113.3C258.949 113.3 257.833 113.648 256.969 114.344C256.129 115.04 255.709 116.036 255.709 117.332C255.709 118.532 256.117 119.516 256.933 120.284C257.773 121.028 258.901 121.4 260.317 121.4C261.733 121.4 262.849 121.016 263.665 120.248C264.481 119.48 264.889 118.508 264.889 117.332C264.889 116.06 264.469 115.076 263.629 114.38C262.789 113.66 261.685 113.3 260.317 113.3ZM273.082 105.668C273.202 103.268 274.042 101.42 275.602 100.124C277.186 98.804 279.262 98.144 281.83 98.144C283.582 98.144 285.082 98.456 286.33 99.08C287.578 99.68 288.514 100.508 289.138 101.564C289.786 102.596 290.11 103.772 290.11 105.092C290.11 106.604 289.714 107.888 288.922 108.944C288.154 109.976 287.23 110.672 286.15 111.032V111.176C287.542 111.608 288.622 112.376 289.39 113.48C290.182 114.584 290.578 116 290.578 117.728C290.578 119.168 290.242 120.452 289.57 121.58C288.922 122.708 287.95 123.596 286.654 124.244C285.382 124.868 283.846 125.18 282.046 125.18C279.334 125.18 277.126 124.496 275.422 123.128C273.718 121.76 272.818 119.744 272.722 117.08H277.618C277.666 118.256 278.062 119.204 278.806 119.924C279.574 120.62 280.618 120.968 281.938 120.968C283.162 120.968 284.098 120.632 284.746 119.96C285.418 119.264 285.754 118.376 285.754 117.296C285.754 115.856 285.298 114.824 284.386 114.2C283.474 113.576 282.058 113.264 280.138 113.264H279.094V109.124H280.138C283.546 109.124 285.25 107.984 285.25 105.704C285.25 104.672 284.938 103.868 284.314 103.292C283.714 102.716 282.838 102.428 281.686 102.428C280.558 102.428 279.682 102.74 279.058 103.364C278.458 103.964 278.11 104.732 278.014 105.668H273.082ZM295.352 119.312C297.656 117.392 299.492 115.796 300.86 114.524C302.228 113.228 303.368 111.884 304.28 110.492C305.192 109.1 305.648 107.732 305.648 106.388C305.648 105.164 305.36 104.204 304.784 103.508C304.208 102.812 303.32 102.464 302.12 102.464C300.92 102.464 299.996 102.872 299.348 103.688C298.7 104.48 298.364 105.572 298.34 106.964H293.444C293.54 104.084 294.392 101.9 296 100.412C297.632 98.924 299.696 98.18 302.192 98.18C304.928 98.18 307.028 98.912 308.492 100.376C309.956 101.816 310.688 103.724 310.688 106.1C310.688 107.972 310.184 109.76 309.176 111.464C308.168 113.168 307.016 114.656 305.72 115.928C304.424 117.176 302.732 118.688 300.644 120.464H311.264V124.64H293.48V120.896L295.352 119.312ZM333.052 114.38H326.248V121.364H321.496V114.38H314.692V109.988H321.496V103.004H326.248V109.988H333.052V114.38Z" fill="white"/>
<path d="M415.91 68.848V80H414.454V74.944H408.774V80H407.318V68.848H408.774V73.744H414.454V68.848H415.91ZM417.676 75.584C417.676 74.688 417.858 73.904 418.22 73.232C418.583 72.5493 419.079 72.0213 419.708 71.648C420.348 71.2747 421.058 71.088 421.836 71.088C422.604 71.088 423.271 71.2533 423.837 71.584C424.402 71.9147 424.823 72.3307 425.101 72.832V71.232H426.573V80H425.101V78.368C424.812 78.88 424.38 79.3067 423.805 79.648C423.239 79.9787 422.578 80.144 421.82 80.144C421.042 80.144 420.338 79.952 419.708 79.568C419.079 79.184 418.583 78.6453 418.22 77.952C417.858 77.2587 417.676 76.4693 417.676 75.584ZM425.101 75.6C425.101 74.9387 424.967 74.3627 424.701 73.872C424.434 73.3813 424.071 73.008 423.613 72.752C423.164 72.4853 422.668 72.352 422.124 72.352C421.58 72.352 421.084 72.48 420.636 72.736C420.188 72.992 419.831 73.3653 419.564 73.856C419.298 74.3467 419.164 74.9227 419.164 75.584C419.164 76.256 419.298 76.8427 419.564 77.344C419.831 77.8347 420.188 78.2133 420.636 78.48C421.084 78.736 421.58 78.864 422.124 78.864C422.668 78.864 423.164 78.736 423.613 78.48C424.071 78.2133 424.434 77.8347 424.701 77.344C424.967 76.8427 425.101 76.2613 425.101 75.6ZM430.313 72.848C430.601 72.3467 431.028 71.9307 431.593 71.6C432.169 71.2587 432.836 71.088 433.593 71.088C434.372 71.088 435.076 71.2747 435.705 71.648C436.345 72.0213 436.846 72.5493 437.209 73.232C437.572 73.904 437.753 74.688 437.753 75.584C437.753 76.4693 437.572 77.2587 437.209 77.952C436.846 78.6453 436.345 79.184 435.705 79.568C435.076 79.952 434.372 80.144 433.593 80.144C432.846 80.144 432.185 79.9787 431.609 79.648C431.044 79.3067 430.612 78.8853 430.313 78.384V84.16H428.857V71.232H430.313V72.848ZM436.265 75.584C436.265 74.9227 436.132 74.3467 435.865 73.856C435.598 73.3653 435.236 72.992 434.777 72.736C434.329 72.48 433.833 72.352 433.289 72.352C432.756 72.352 432.26 72.4853 431.801 72.752C431.353 73.008 430.99 73.3867 430.713 73.888C430.446 74.3787 430.313 74.9493 430.313 75.6C430.313 76.2613 430.446 76.8427 430.713 77.344C430.99 77.8347 431.353 78.2133 431.801 78.48C432.26 78.736 432.756 78.864 433.289 78.864C433.833 78.864 434.329 78.736 434.777 78.48C435.236 78.2133 435.598 77.8347 435.865 77.344C436.132 76.8427 436.265 76.256 436.265 75.584ZM440.949 72.848C441.237 72.3467 441.664 71.9307 442.229 71.6C442.805 71.2587 443.472 71.088 444.229 71.088C445.008 71.088 445.712 71.2747 446.341 71.648C446.981 72.0213 447.483 72.5493 447.845 73.232C448.208 73.904 448.389 74.688 448.389 75.584C448.389 76.4693 448.208 77.2587 447.845 77.952C447.483 78.6453 446.981 79.184 446.341 79.568C445.712 79.952 445.008 80.144 444.229 80.144C443.483 80.144 442.821 79.9787 442.245 79.648C441.68 79.3067 441.248 78.8853 440.949 78.384V84.16H439.493V71.232H440.949V72.848ZM446.901 75.584C446.901 74.9227 446.768 74.3467 446.501 73.856C446.235 73.3653 445.872 72.992 445.413 72.736C444.965 72.48 444.469 72.352 443.925 72.352C443.392 72.352 442.896 72.4853 442.437 72.752C441.989 73.008 441.627 73.3867 441.349 73.888C441.083 74.3787 440.949 74.9493 440.949 75.6C440.949 76.2613 441.083 76.8427 441.349 77.344C441.627 77.8347 441.989 78.2133 442.437 78.48C442.896 78.736 443.392 78.864 443.925 78.864C444.469 78.864 444.965 78.736 445.413 78.48C445.872 78.2133 446.235 77.8347 446.501 77.344C446.768 76.8427 446.901 76.256 446.901 75.584ZM457.682 71.232L452.402 84.128H450.898L452.626 79.904L449.09 71.232H450.706L453.458 78.336L456.178 71.232H457.682Z" fill="white"/>
<path d="M413.752 117.62C413.944 118.676 414.376 119.492 415.048 120.068C415.744 120.62 416.668 120.896 417.82 120.896C419.308 120.896 420.388 120.284 421.06 119.06C421.732 117.812 422.068 115.724 422.068 112.796C421.516 113.564 420.736 114.164 419.728 114.596C418.744 115.028 417.676 115.244 416.524 115.244C414.988 115.244 413.596 114.932 412.348 114.308C411.124 113.66 410.152 112.712 409.432 111.464C408.712 110.192 408.352 108.656 408.352 106.856C408.352 104.192 409.144 102.08 410.728 100.52C412.312 98.936 414.472 98.144 417.208 98.144C420.616 98.144 423.016 99.236 424.408 101.42C425.824 103.604 426.532 106.892 426.532 111.284C426.532 114.404 426.256 116.96 425.704 118.952C425.176 120.944 424.252 122.456 422.932 123.488C421.636 124.52 419.86 125.036 417.604 125.036C415.828 125.036 414.316 124.7 413.068 124.028C411.82 123.332 410.86 122.432 410.188 121.328C409.54 120.2 409.168 118.964 409.072 117.62H413.752ZM417.568 111.14C418.816 111.14 419.8 110.756 420.52 109.988C421.24 109.22 421.6 108.188 421.6 106.892C421.6 105.476 421.216 104.384 420.448 103.616C419.704 102.824 418.684 102.428 417.388 102.428C416.092 102.428 415.06 102.836 414.292 103.652C413.548 104.444 413.176 105.5 413.176 106.82C413.176 108.092 413.536 109.136 414.256 109.952C415 110.744 416.104 111.14 417.568 111.14ZM435.495 117.62C435.687 118.676 436.119 119.492 436.791 120.068C437.487 120.62 438.411 120.896 439.563 120.896C441.051 120.896 442.131 120.284 442.803 119.06C443.475 117.812 443.811 115.724 443.811 112.796C443.259 113.564 442.479 114.164 441.471 114.596C440.487 115.028 439.419 115.244 438.267 115.244C436.731 115.244 435.339 114.932 434.091 114.308C432.867 113.66 431.895 112.712 431.175 111.464C430.455 110.192 430.095 108.656 430.095 106.856C430.095 104.192 430.887 102.08 432.471 100.52C434.055 98.936 436.215 98.144 438.951 98.144C442.359 98.144 444.759 99.236 446.151 101.42C447.567 103.604 448.275 106.892 448.275 111.284C448.275 114.404 447.999 116.96 447.447 118.952C446.919 120.944 445.995 122.456 444.675 123.488C443.379 124.52 441.603 125.036 439.347 125.036C437.571 125.036 436.059 124.7 434.811 124.028C433.563 123.332 432.603 122.432 431.931 121.328C431.283 120.2 430.911 118.964 430.815 117.62H435.495ZM439.311 111.14C440.559 111.14 441.543 110.756 442.263 109.988C442.983 109.22 443.343 108.188 443.343 106.892C443.343 105.476 442.959 104.384 442.191 103.616C441.447 102.824 440.427 102.428 439.131 102.428C437.835 102.428 436.803 102.836 436.035 103.652C435.291 104.444 434.919 105.5 434.919 106.82C434.919 108.092 435.279 109.136 435.999 109.952C436.743 110.744 437.847 111.14 439.311 111.14ZM463.791 125L457.023 116.504V125H451.983V98.36H457.023V113.516L463.719 105.056H470.271L461.487 115.064L470.343 125H463.791ZM491.042 114.38H484.238V121.364H479.486V114.38H472.682V109.988H479.486V103.004H484.238V109.988H491.042V114.38Z" fill="white"/>
<rect width="1" height="74" transform="matrix(-1 0 0 1 547 61)" fill="white"/>
<circle cx="645" cy="98" r="52" fill="#FEE4DF"/>
<path d="M750.86 82.14C749.553 82.14 748.353 81.8333 747.26 81.22C746.167 80.6067 745.3 79.76 744.66 78.68C744.02 77.5867 743.7 76.3533 743.7 74.98C743.7 73.62 744.02 72.4 744.66 71.32C745.3 70.2267 746.167 69.3733 747.26 68.76C748.353 68.1467 749.553 67.84 750.86 67.84C752.18 67.84 753.38 68.1467 754.46 68.76C755.553 69.3733 756.413 70.2267 757.04 71.32C757.68 72.4 758 73.62 758 74.98C758 76.3533 757.68 77.5867 757.04 78.68C756.413 79.76 755.553 80.6067 754.46 81.22C753.367 81.8333 752.167 82.14 750.86 82.14ZM750.86 79.64C751.7 79.64 752.44 79.4533 753.08 79.08C753.72 78.6933 754.22 78.1467 754.58 77.44C754.94 76.7333 755.12 75.9133 755.12 74.98C755.12 74.0467 754.94 73.2333 754.58 72.54C754.22 71.8333 753.72 71.2933 753.08 70.92C752.44 70.5467 751.7 70.36 750.86 70.36C750.02 70.36 749.273 70.5467 748.62 70.92C747.98 71.2933 747.48 71.8333 747.12 72.54C746.76 73.2333 746.58 74.0467 746.58 74.98C746.58 75.9133 746.76 76.7333 747.12 77.44C747.48 78.1467 747.98 78.6933 748.62 79.08C749.273 79.4533 750.02 79.64 750.86 79.64ZM770.203 70.92V82H767.383V80.6C767.023 81.08 766.55 81.46 765.963 81.74C765.39 82.0067 764.763 82.14 764.083 82.14C763.216 82.14 762.45 81.96 761.783 81.6C761.116 81.2267 760.59 80.6867 760.203 79.98C759.83 79.26 759.643 78.4067 759.643 77.42V70.92H762.443V77.02C762.443 77.9 762.663 78.58 763.103 79.06C763.543 79.5267 764.143 79.76 764.903 79.76C765.676 79.76 766.283 79.5267 766.723 79.06C767.163 78.58 767.383 77.9 767.383 77.02V70.92H770.203ZM775.426 72.64C775.786 72.0533 776.252 71.5933 776.826 71.26C777.412 70.9267 778.079 70.76 778.826 70.76V73.7H778.086C777.206 73.7 776.539 73.9067 776.086 74.32C775.646 74.7333 775.426 75.4533 775.426 76.48V82H772.626V70.92H775.426V72.64ZM794.297 68.04V70.3H790.577V82H787.777V70.3H784.057V68.04H794.297ZM806.3 76.22C806.3 76.62 806.274 76.98 806.22 77.3H798.12C798.187 78.1 798.467 78.7267 798.96 79.18C799.454 79.6333 800.06 79.86 800.78 79.86C801.82 79.86 802.56 79.4133 803 78.52H806.02C805.7 79.5867 805.087 80.4667 804.18 81.16C803.274 81.84 802.16 82.18 800.84 82.18C799.774 82.18 798.814 81.9467 797.96 81.48C797.12 81 796.46 80.3267 795.98 79.46C795.514 78.5933 795.28 77.5933 795.28 76.46C795.28 75.3133 795.514 74.3067 795.98 73.44C796.447 72.5733 797.1 71.9067 797.94 71.44C798.78 70.9733 799.747 70.74 800.84 70.74C801.894 70.74 802.834 70.9667 803.66 71.42C804.5 71.8733 805.147 72.52 805.6 73.36C806.067 74.1867 806.3 75.14 806.3 76.22ZM803.4 75.42C803.387 74.7 803.127 74.1267 802.62 73.7C802.114 73.26 801.494 73.04 800.76 73.04C800.067 73.04 799.48 73.2533 799 73.68C798.534 74.0933 798.247 74.6733 798.14 75.42H803.4ZM812.244 82.18C811.337 82.18 810.524 82.02 809.804 81.7C809.084 81.3667 808.511 80.92 808.084 80.36C807.671 79.8 807.444 79.18 807.404 78.5H810.224C810.277 78.9267 810.484 79.28 810.844 79.56C811.217 79.84 811.677 79.98 812.224 79.98C812.757 79.98 813.171 79.8733 813.464 79.66C813.771 79.4467 813.924 79.1733 813.924 78.84C813.924 78.48 813.737 78.2133 813.364 78.04C813.004 77.8533 812.424 77.6533 811.624 77.44C810.797 77.24 810.117 77.0333 809.584 76.82C809.064 76.6067 808.611 76.28 808.224 75.84C807.851 75.4 807.664 74.8067 807.664 74.06C807.664 73.4467 807.837 72.8867 808.184 72.38C808.544 71.8733 809.051 71.4733 809.704 71.18C810.371 70.8867 811.151 70.74 812.044 70.74C813.364 70.74 814.417 71.0733 815.204 71.74C815.991 72.3933 816.424 73.28 816.504 74.4H813.824C813.784 73.96 813.597 73.6133 813.264 73.36C812.944 73.0933 812.511 72.96 811.964 72.96C811.457 72.96 811.064 73.0533 810.784 73.24C810.517 73.4267 810.384 73.6867 810.384 74.02C810.384 74.3933 810.571 74.68 810.944 74.88C811.317 75.0667 811.897 75.26 812.684 75.46C813.484 75.66 814.144 75.8667 814.664 76.08C815.184 76.2933 815.631 76.6267 816.004 77.08C816.391 77.52 816.591 78.1067 816.604 78.84C816.604 79.48 816.424 80.0533 816.064 80.56C815.717 81.0667 815.211 81.4667 814.544 81.76C813.891 82.04 813.124 82.18 812.244 82.18ZM821.823 73.22V78.58C821.823 78.9533 821.909 79.2267 822.083 79.4C822.269 79.56 822.576 79.64 823.003 79.64H824.303V82H822.543C820.183 82 819.003 80.8533 819.003 78.56V73.22H817.683V70.92H819.003V68.18H821.823V70.92H824.303V73.22H821.823ZM827.396 69.6C826.903 69.6 826.49 69.4467 826.156 69.14C825.836 68.82 825.676 68.4267 825.676 67.96C825.676 67.4933 825.836 67.1067 826.156 66.8C826.49 66.48 826.903 66.32 827.396 66.32C827.89 66.32 828.296 66.48 828.616 66.8C828.95 67.1067 829.116 67.4933 829.116 67.96C829.116 68.4267 828.95 68.82 828.616 69.14C828.296 69.4467 827.89 69.6 827.396 69.6ZM828.776 70.92V82H825.976V70.92H828.776ZM844.963 70.76C846.323 70.76 847.416 71.18 848.243 72.02C849.083 72.8467 849.503 74.0067 849.503 75.5V82H846.703V75.88C846.703 75.0133 846.483 74.3533 846.043 73.9C845.603 73.4333 845.003 73.2 844.243 73.2C843.483 73.2 842.876 73.4333 842.423 73.9C841.983 74.3533 841.763 75.0133 841.763 75.88V82H838.963V75.88C838.963 75.0133 838.743 74.3533 838.303 73.9C837.863 73.4333 837.263 73.2 836.503 73.2C835.729 73.2 835.116 73.4333 834.663 73.9C834.223 74.3533 834.003 75.0133 834.003 75.88V82H831.203V70.92H834.003V72.26C834.363 71.7933 834.823 71.4267 835.383 71.16C835.956 70.8933 836.583 70.76 837.263 70.76C838.129 70.76 838.903 70.9467 839.583 71.32C840.263 71.68 840.789 72.2 841.163 72.88C841.523 72.24 842.043 71.7267 842.723 71.34C843.416 70.9533 844.163 70.76 844.963 70.76ZM856.74 82.18C855.673 82.18 854.713 81.9467 853.86 81.48C853.007 81 852.333 80.3267 851.84 79.46C851.36 78.5933 851.12 77.5933 851.12 76.46C851.12 75.3267 851.367 74.3267 851.86 73.46C852.367 72.5933 853.053 71.9267 853.92 71.46C854.787 70.98 855.753 70.74 856.82 70.74C857.887 70.74 858.853 70.98 859.72 71.46C860.587 71.9267 861.267 72.5933 861.76 73.46C862.267 74.3267 862.52 75.3267 862.52 76.46C862.52 77.5933 862.26 78.5933 861.74 79.46C861.233 80.3267 860.54 81 859.66 81.48C858.793 81.9467 857.82 82.18 856.74 82.18ZM856.74 79.74C857.247 79.74 857.72 79.62 858.16 79.38C858.613 79.1267 858.973 78.7533 859.24 78.26C859.507 77.7667 859.64 77.1667 859.64 76.46C859.64 75.4067 859.36 74.6 858.8 74.04C858.253 73.4667 857.58 73.18 856.78 73.18C855.98 73.18 855.307 73.4667 854.76 74.04C854.227 74.6 853.96 75.4067 853.96 76.46C853.96 77.5133 854.22 78.3267 854.74 78.9C855.273 79.46 855.94 79.74 856.74 79.74ZM870.374 70.76C871.694 70.76 872.76 71.18 873.574 72.02C874.387 72.8467 874.794 74.0067 874.794 75.5V82H871.994V75.88C871.994 75 871.774 74.3267 871.334 73.86C870.894 73.38 870.294 73.14 869.534 73.14C868.76 73.14 868.147 73.38 867.694 73.86C867.254 74.3267 867.034 75 867.034 75.88V82H864.234V70.92H867.034V72.3C867.407 71.82 867.88 71.4467 868.454 71.18C869.04 70.9 869.68 70.76 870.374 70.76ZM878.536 69.6C878.043 69.6 877.63 69.4467 877.296 69.14C876.976 68.82 876.816 68.4267 876.816 67.96C876.816 67.4933 876.976 67.1067 877.296 66.8C877.63 66.48 878.043 66.32 878.536 66.32C879.03 66.32 879.436 66.48 879.756 66.8C880.09 67.1067 880.256 67.4933 880.256 67.96C880.256 68.4267 880.09 68.82 879.756 69.14C879.436 69.4467 879.03 69.6 878.536 69.6ZM879.916 70.92V82H877.116V70.92H879.916Z" fill="white"/>
<path d="M756.342 100.242L753.514 110H752.086L749.818 102.146L747.466 110L746.052 110.014L743.322 100.242H744.68L746.808 108.516L749.16 100.242H750.588L752.828 108.488L754.97 100.242H756.342ZM764.652 105.87C764.652 106.113 764.638 106.369 764.61 106.64H758.478C758.525 107.396 758.782 107.989 759.248 108.418C759.724 108.838 760.298 109.048 760.97 109.048C761.521 109.048 761.978 108.922 762.342 108.67C762.716 108.409 762.977 108.063 763.126 107.634H764.498C764.293 108.371 763.882 108.973 763.266 109.44C762.65 109.897 761.885 110.126 760.97 110.126C760.242 110.126 759.589 109.963 759.01 109.636C758.441 109.309 757.993 108.847 757.666 108.25C757.34 107.643 757.176 106.943 757.176 106.15C757.176 105.357 757.335 104.661 757.652 104.064C757.97 103.467 758.413 103.009 758.982 102.692C759.561 102.365 760.224 102.202 760.97 102.202C761.698 102.202 762.342 102.361 762.902 102.678C763.462 102.995 763.892 103.434 764.19 103.994C764.498 104.545 764.652 105.17 764.652 105.87ZM763.336 105.604C763.336 105.119 763.229 104.703 763.014 104.358C762.8 104.003 762.506 103.737 762.132 103.56C761.768 103.373 761.362 103.28 760.914 103.28C760.27 103.28 759.72 103.485 759.262 103.896C758.814 104.307 758.558 104.876 758.492 105.604H763.336ZM769.422 106.136C769.422 105.352 769.581 104.666 769.898 104.078C770.216 103.481 770.65 103.019 771.2 102.692C771.76 102.365 772.381 102.202 773.062 102.202C773.734 102.202 774.318 102.347 774.812 102.636C775.307 102.925 775.676 103.289 775.918 103.728V102.328H777.206V110H775.918V108.572C775.666 109.02 775.288 109.393 774.784 109.692C774.29 109.981 773.711 110.126 773.048 110.126C772.367 110.126 771.751 109.958 771.2 109.622C770.65 109.286 770.216 108.815 769.898 108.208C769.581 107.601 769.422 106.911 769.422 106.136ZM775.918 106.15C775.918 105.571 775.802 105.067 775.568 104.638C775.335 104.209 775.018 103.882 774.616 103.658C774.224 103.425 773.79 103.308 773.314 103.308C772.838 103.308 772.404 103.42 772.012 103.644C771.62 103.868 771.308 104.195 771.074 104.624C770.841 105.053 770.724 105.557 770.724 106.136C770.724 106.724 770.841 107.237 771.074 107.676C771.308 108.105 771.62 108.437 772.012 108.67C772.404 108.894 772.838 109.006 773.314 109.006C773.79 109.006 774.224 108.894 774.616 108.67C775.018 108.437 775.335 108.105 775.568 107.676C775.802 107.237 775.918 106.729 775.918 106.15ZM778.799 106.136C778.799 105.352 778.958 104.666 779.275 104.078C779.593 103.481 780.027 103.019 780.577 102.692C781.137 102.365 781.763 102.202 782.453 102.202C783.051 102.202 783.606 102.342 784.119 102.622C784.633 102.893 785.025 103.252 785.295 103.7V99.64H786.583V110H785.295V108.558C785.043 109.015 784.67 109.393 784.175 109.692C783.681 109.981 783.102 110.126 782.439 110.126C781.758 110.126 781.137 109.958 780.577 109.622C780.027 109.286 779.593 108.815 779.275 108.208C778.958 107.601 778.799 106.911 778.799 106.136ZM785.295 106.15C785.295 105.571 785.179 105.067 784.945 104.638C784.712 104.209 784.395 103.882 783.993 103.658C783.601 103.425 783.167 103.308 782.691 103.308C782.215 103.308 781.781 103.42 781.389 103.644C780.997 103.868 780.685 104.195 780.451 104.624C780.218 105.053 780.101 105.557 780.101 106.136C780.101 106.724 780.218 107.237 780.451 107.676C780.685 108.105 780.997 108.437 781.389 108.67C781.781 108.894 782.215 109.006 782.691 109.006C783.167 109.006 783.601 108.894 783.993 108.67C784.395 108.437 784.712 108.105 784.945 107.676C785.179 107.237 785.295 106.729 785.295 106.15ZM791.998 110.126C791.279 110.126 790.626 109.963 790.038 109.636C789.459 109.309 789.002 108.847 788.666 108.25C788.339 107.643 788.176 106.943 788.176 106.15C788.176 105.366 788.344 104.675 788.68 104.078C789.025 103.471 789.492 103.009 790.08 102.692C790.668 102.365 791.326 102.202 792.054 102.202C792.782 102.202 793.44 102.365 794.028 102.692C794.616 103.009 795.078 103.467 795.414 104.064C795.759 104.661 795.932 105.357 795.932 106.15C795.932 106.943 795.755 107.643 795.4 108.25C795.055 108.847 794.583 109.309 793.986 109.636C793.389 109.963 792.726 110.126 791.998 110.126ZM791.998 109.006C792.455 109.006 792.885 108.899 793.286 108.684C793.687 108.469 794.009 108.147 794.252 107.718C794.504 107.289 794.63 106.766 794.63 106.15C794.63 105.534 794.509 105.011 794.266 104.582C794.023 104.153 793.706 103.835 793.314 103.63C792.922 103.415 792.497 103.308 792.04 103.308C791.573 103.308 791.144 103.415 790.752 103.63C790.369 103.835 790.061 104.153 789.828 104.582C789.595 105.011 789.478 105.534 789.478 106.15C789.478 106.775 789.59 107.303 789.814 107.732C790.047 108.161 790.355 108.483 790.738 108.698C791.121 108.903 791.541 109.006 791.998 109.006ZM798.797 103.742C799.049 103.303 799.423 102.939 799.917 102.65C800.421 102.351 801.005 102.202 801.667 102.202C802.349 102.202 802.965 102.365 803.515 102.692C804.075 103.019 804.514 103.481 804.831 104.078C805.149 104.666 805.307 105.352 805.307 106.136C805.307 106.911 805.149 107.601 804.831 108.208C804.514 108.815 804.075 109.286 803.515 109.622C802.965 109.958 802.349 110.126 801.667 110.126C801.014 110.126 800.435 109.981 799.931 109.692C799.437 109.393 799.059 109.025 798.797 108.586V113.64H797.523V102.328H798.797V103.742ZM804.005 106.136C804.005 105.557 803.889 105.053 803.655 104.624C803.422 104.195 803.105 103.868 802.703 103.644C802.311 103.42 801.877 103.308 801.401 103.308C800.935 103.308 800.501 103.425 800.099 103.658C799.707 103.882 799.39 104.213 799.147 104.652C798.914 105.081 798.797 105.581 798.797 106.15C798.797 106.729 798.914 107.237 799.147 107.676C799.39 108.105 799.707 108.437 800.099 108.67C800.501 108.894 800.935 109.006 801.401 109.006C801.877 109.006 802.311 108.894 802.703 108.67C803.105 108.437 803.422 108.105 803.655 107.676C803.889 107.237 804.005 106.724 804.005 106.136ZM808.454 103.378V107.9C808.454 108.273 808.533 108.539 808.692 108.698C808.851 108.847 809.126 108.922 809.518 108.922H810.456V110H809.308C808.599 110 808.067 109.837 807.712 109.51C807.357 109.183 807.18 108.647 807.18 107.9V103.378H806.186V102.328H807.18V100.396H808.454V102.328H810.456V103.378H808.454ZM818.916 105.87C818.916 106.113 818.902 106.369 818.874 106.64H812.742C812.788 107.396 813.045 107.989 813.512 108.418C813.988 108.838 814.562 109.048 815.234 109.048C815.784 109.048 816.242 108.922 816.606 108.67C816.979 108.409 817.24 108.063 817.39 107.634H818.762C818.556 108.371 818.146 108.973 817.53 109.44C816.914 109.897 816.148 110.126 815.234 110.126C814.506 110.126 813.852 109.963 813.274 109.636C812.704 109.309 812.256 108.847 811.93 108.25C811.603 107.643 811.44 106.943 811.44 106.15C811.44 105.357 811.598 104.661 811.916 104.064C812.233 103.467 812.676 103.009 813.246 102.692C813.824 102.365 814.487 102.202 815.234 102.202C815.962 102.202 816.606 102.361 817.166 102.678C817.726 102.995 818.155 103.434 818.454 103.994C818.762 104.545 818.916 105.17 818.916 105.87ZM817.6 105.604C817.6 105.119 817.492 104.703 817.278 104.358C817.063 104.003 816.769 103.737 816.396 103.56C816.032 103.373 815.626 103.28 815.178 103.28C814.534 103.28 813.983 103.485 813.526 103.896C813.078 104.307 812.821 104.876 812.756 105.604H817.6ZM820.037 106.136C820.037 105.352 820.196 104.666 820.513 104.078C820.831 103.481 821.265 103.019 821.815 102.692C822.375 102.365 823.001 102.202 823.691 102.202C824.289 102.202 824.844 102.342 825.357 102.622C825.871 102.893 826.263 103.252 826.533 103.7V99.64H827.821V110H826.533V108.558C826.281 109.015 825.908 109.393 825.413 109.692C824.919 109.981 824.34 110.126 823.677 110.126C822.996 110.126 822.375 109.958 821.815 109.622C821.265 109.286 820.831 108.815 820.513 108.208C820.196 107.601 820.037 106.911 820.037 106.136ZM826.533 106.15C826.533 105.571 826.417 105.067 826.183 104.638C825.95 104.209 825.633 103.882 825.231 103.658C824.839 103.425 824.405 103.308 823.929 103.308C823.453 103.308 823.019 103.42 822.627 103.644C822.235 103.868 821.923 104.195 821.689 104.624C821.456 105.053 821.339 105.557 821.339 106.136C821.339 106.724 821.456 107.237 821.689 107.676C821.923 108.105 822.235 108.437 822.627 108.67C823.019 108.894 823.453 109.006 823.929 109.006C824.405 109.006 824.839 108.894 825.231 108.67C825.633 108.437 825.95 108.105 826.183 107.676C826.417 107.237 826.533 106.729 826.533 106.15ZM836.885 110.126C836.166 110.126 835.513 109.963 834.925 109.636C834.346 109.309 833.889 108.847 833.553 108.25C833.226 107.643 833.063 106.943 833.063 106.15C833.063 105.366 833.231 104.675 833.567 104.078C833.912 103.471 834.379 103.009 834.967 102.692C835.555 102.365 836.213 102.202 836.941 102.202C837.669 102.202 838.327 102.365 838.915 102.692C839.503 103.009 839.965 103.467 840.301 104.064C840.646 104.661 840.819 105.357 840.819 106.15C840.819 106.943 840.641 107.643 840.287 108.25C839.941 108.847 839.47 109.309 838.873 109.636C838.275 109.963 837.613 110.126 836.885 110.126ZM836.885 109.006C837.342 109.006 837.771 108.899 838.173 108.684C838.574 108.469 838.896 108.147 839.139 107.718C839.391 107.289 839.517 106.766 839.517 106.15C839.517 105.534 839.395 105.011 839.153 104.582C838.91 104.153 838.593 103.835 838.201 103.63C837.809 103.415 837.384 103.308 836.927 103.308C836.46 103.308 836.031 103.415 835.639 103.63C835.256 103.835 834.948 104.153 834.715 104.582C834.481 105.011 834.365 105.534 834.365 106.15C834.365 106.775 834.477 107.303 834.701 107.732C834.934 108.161 835.242 108.483 835.625 108.698C836.007 108.903 836.427 109.006 836.885 109.006ZM849.214 102.328V110H847.94V108.866C847.697 109.258 847.357 109.566 846.918 109.79C846.489 110.005 846.013 110.112 845.49 110.112C844.893 110.112 844.356 109.991 843.88 109.748C843.404 109.496 843.026 109.123 842.746 108.628C842.475 108.133 842.34 107.531 842.34 106.822V102.328H843.6V106.654C843.6 107.41 843.791 107.993 844.174 108.404C844.557 108.805 845.079 109.006 845.742 109.006C846.423 109.006 846.96 108.796 847.352 108.376C847.744 107.956 847.94 107.345 847.94 106.542V102.328H849.214ZM852.555 103.574C852.779 103.135 853.096 102.795 853.507 102.552C853.927 102.309 854.436 102.188 855.033 102.188V103.504H854.697C853.269 103.504 852.555 104.279 852.555 105.828V110H851.281V102.328H852.555V103.574ZM861.342 103.742C861.594 103.303 861.967 102.939 862.462 102.65C862.966 102.351 863.549 102.202 864.212 102.202C864.893 102.202 865.509 102.365 866.06 102.692C866.62 103.019 867.059 103.481 867.376 104.078C867.693 104.666 867.852 105.352 867.852 106.136C867.852 106.911 867.693 107.601 867.376 108.208C867.059 108.815 866.62 109.286 866.06 109.622C865.509 109.958 864.893 110.126 864.212 110.126C863.559 110.126 862.98 109.981 862.476 109.692C861.981 109.393 861.603 109.025 861.342 108.586V113.64H860.068V102.328H861.342V103.742ZM866.55 106.136C866.55 105.557 866.433 105.053 866.2 104.624C865.967 104.195 865.649 103.868 865.248 103.644C864.856 103.42 864.422 103.308 863.946 103.308C863.479 103.308 863.045 103.425 862.644 103.658C862.252 103.882 861.935 104.213 861.692 104.652C861.459 105.081 861.342 105.581 861.342 106.15C861.342 106.729 861.459 107.237 861.692 107.676C861.935 108.105 862.252 108.437 862.644 108.67C863.045 108.894 863.479 109.006 863.946 109.006C864.422 109.006 864.856 108.894 865.248 108.67C865.649 108.437 865.967 108.105 866.2 107.676C866.433 107.237 866.55 106.724 866.55 106.136ZM876.249 102.328V110H874.975V108.866C874.732 109.258 874.392 109.566 873.953 109.79C873.524 110.005 873.048 110.112 872.525 110.112C871.928 110.112 871.391 109.991 870.915 109.748C870.439 109.496 870.061 109.123 869.781 108.628C869.51 108.133 869.375 107.531 869.375 106.822V102.328H870.635V106.654C870.635 107.41 870.826 107.993 871.209 108.404C871.592 108.805 872.114 109.006 872.777 109.006C873.458 109.006 873.995 108.796 874.387 108.376C874.779 107.956 874.975 107.345 874.975 106.542V102.328H876.249ZM879.59 103.742C879.842 103.303 880.215 102.939 880.71 102.65C881.214 102.351 881.797 102.202 882.46 102.202C883.141 102.202 883.757 102.365 884.308 102.692C884.868 103.019 885.307 103.481 885.624 104.078C885.941 104.666 886.1 105.352 886.1 106.136C886.1 106.911 885.941 107.601 885.624 108.208C885.307 108.815 884.868 109.286 884.308 109.622C883.757 109.958 883.141 110.126 882.46 110.126C881.807 110.126 881.228 109.981 880.724 109.692C880.229 109.393 879.851 109.025 879.59 108.586V113.64H878.316V102.328H879.59V103.742ZM884.798 106.136C884.798 105.557 884.681 105.053 884.448 104.624C884.215 104.195 883.897 103.868 883.496 103.644C883.104 103.42 882.67 103.308 882.194 103.308C881.727 103.308 881.293 103.425 880.892 103.658C880.5 103.882 880.183 104.213 879.94 104.652C879.707 105.081 879.59 105.581 879.59 106.15C879.59 106.729 879.707 107.237 879.94 107.676C880.183 108.105 880.5 108.437 880.892 108.67C881.293 108.894 881.727 109.006 882.194 109.006C882.67 109.006 883.104 108.894 883.496 108.67C883.897 108.437 884.215 108.105 884.448 107.676C884.681 107.237 884.798 106.724 884.798 106.136ZM888.967 103.742C889.219 103.303 889.592 102.939 890.087 102.65C890.591 102.351 891.174 102.202 891.837 102.202C892.518 102.202 893.134 102.365 893.685 102.692C894.245 103.019 894.684 103.481 895.001 104.078C895.318 104.666 895.477 105.352 895.477 106.136C895.477 106.911 895.318 107.601 895.001 108.208C894.684 108.815 894.245 109.286 893.685 109.622C893.134 109.958 892.518 110.126 891.837 110.126C891.184 110.126 890.605 109.981 890.101 109.692C889.606 109.393 889.228 109.025 888.967 108.586V113.64H887.693V102.328H888.967V103.742ZM894.175 106.136C894.175 105.557 894.058 105.053 893.825 104.624C893.592 104.195 893.274 103.868 892.873 103.644C892.481 103.42 892.047 103.308 891.571 103.308C891.104 103.308 890.67 103.425 890.269 103.658C889.877 103.882 889.56 104.213 889.317 104.652C889.084 105.081 888.967 105.581 888.967 106.15C888.967 106.729 889.084 107.237 889.317 107.676C889.56 108.105 889.877 108.437 890.269 108.67C890.67 108.894 891.104 109.006 891.571 109.006C892.047 109.006 892.481 108.894 892.873 108.67C893.274 108.437 893.592 108.105 893.825 107.676C894.058 107.237 894.175 106.724 894.175 106.136ZM903.678 102.328L899.058 113.612H897.742L899.254 109.916L896.16 102.328H897.574L899.982 108.544L902.362 102.328H903.678ZM905.281 110.084C905.038 110.084 904.833 110 904.665 109.832C904.497 109.664 904.413 109.459 904.413 109.216C904.413 108.973 904.497 108.768 904.665 108.6C904.833 108.432 905.038 108.348 905.281 108.348C905.514 108.348 905.71 108.432 905.869 108.6C906.037 108.768 906.121 108.973 906.121 109.216C906.121 109.459 906.037 109.664 905.869 109.832C905.71 110 905.514 110.084 905.281 110.084ZM917.146 107.83H912.89L912.106 110H910.762L914.29 100.298H915.76L919.274 110H917.93L917.146 107.83ZM916.782 106.794L915.018 101.866L913.254 106.794H916.782ZM922.002 99.64V110H920.728V99.64H922.002ZM925.643 103.378V107.9C925.643 108.273 925.723 108.539 925.881 108.698C926.04 108.847 926.315 108.922 926.707 108.922H927.645V110H926.497C925.788 110 925.256 109.837 924.901 109.51C924.547 109.183 924.369 108.647 924.369 107.9V103.378H923.375V102.328H924.369V100.396H925.643V102.328H927.645V103.378H925.643ZM932.913 102.188C933.492 102.188 934.014 102.314 934.481 102.566C934.948 102.809 935.312 103.177 935.573 103.672C935.844 104.167 935.979 104.769 935.979 105.478V110H934.719V105.66C934.719 104.895 934.528 104.311 934.145 103.91C933.762 103.499 933.24 103.294 932.577 103.294C931.905 103.294 931.368 103.504 930.967 103.924C930.575 104.344 930.379 104.955 930.379 105.758V110H929.105V99.64H930.379V103.42C930.631 103.028 930.976 102.725 931.415 102.51C931.863 102.295 932.362 102.188 932.913 102.188ZM941.322 110.126C940.603 110.126 939.95 109.963 939.362 109.636C938.783 109.309 938.326 108.847 937.99 108.25C937.663 107.643 937.5 106.943 937.5 106.15C937.5 105.366 937.668 104.675 938.004 104.078C938.349 103.471 938.816 103.009 939.404 102.692C939.992 102.365 940.65 102.202 941.378 102.202C942.106 102.202 942.764 102.365 943.352 102.692C943.94 103.009 944.402 103.467 944.738 104.064C945.083 104.661 945.256 105.357 945.256 106.15C945.256 106.943 945.079 107.643 944.724 108.25C944.379 108.847 943.907 109.309 943.31 109.636C942.713 109.963 942.05 110.126 941.322 110.126ZM941.322 109.006C941.779 109.006 942.209 108.899 942.61 108.684C943.011 108.469 943.333 108.147 943.576 107.718C943.828 107.289 943.954 106.766 943.954 106.15C943.954 105.534 943.833 105.011 943.59 104.582C943.347 104.153 943.03 103.835 942.638 103.63C942.246 103.415 941.821 103.308 941.364 103.308C940.897 103.308 940.468 103.415 940.076 103.63C939.693 103.835 939.385 104.153 939.152 104.582C938.919 105.011 938.802 105.534 938.802 106.15C938.802 106.775 938.914 107.303 939.138 107.732C939.371 108.161 939.679 108.483 940.062 108.698C940.445 108.903 940.865 109.006 941.322 109.006ZM953.651 102.328V110H952.377V108.866C952.134 109.258 951.794 109.566 951.355 109.79C950.926 110.005 950.45 110.112 949.927 110.112C949.33 110.112 948.793 109.991 948.317 109.748C947.841 109.496 947.463 109.123 947.183 108.628C946.912 108.133 946.777 107.531 946.777 106.822V102.328H948.037V106.654C948.037 107.41 948.228 107.993 948.611 108.404C948.994 108.805 949.516 109.006 950.179 109.006C950.86 109.006 951.397 108.796 951.789 108.376C952.181 107.956 952.377 107.345 952.377 106.542V102.328H953.651ZM958.882 102.202C959.545 102.202 960.124 102.347 960.618 102.636C961.122 102.925 961.496 103.289 961.738 103.728V102.328H963.026V110.168C963.026 110.868 962.877 111.489 962.578 112.03C962.28 112.581 961.85 113.01 961.29 113.318C960.74 113.626 960.096 113.78 959.358 113.78C958.35 113.78 957.51 113.542 956.838 113.066C956.166 112.59 955.77 111.941 955.648 111.12H956.908C957.048 111.587 957.338 111.96 957.776 112.24C958.215 112.529 958.742 112.674 959.358 112.674C960.058 112.674 960.628 112.455 961.066 112.016C961.514 111.577 961.738 110.961 961.738 110.168V108.558C961.486 109.006 961.113 109.379 960.618 109.678C960.124 109.977 959.545 110.126 958.882 110.126C958.201 110.126 957.58 109.958 957.02 109.622C956.47 109.286 956.036 108.815 955.718 108.208C955.401 107.601 955.242 106.911 955.242 106.136C955.242 105.352 955.401 104.666 955.718 104.078C956.036 103.481 956.47 103.019 957.02 102.692C957.58 102.365 958.201 102.202 958.882 102.202ZM961.738 106.15C961.738 105.571 961.622 105.067 961.388 104.638C961.155 104.209 960.838 103.882 960.436 103.658C960.044 103.425 959.61 103.308 959.134 103.308C958.658 103.308 958.224 103.42 957.832 103.644C957.44 103.868 957.128 104.195 956.894 104.624C956.661 105.053 956.544 105.557 956.544 106.136C956.544 106.724 956.661 107.237 956.894 107.676C957.128 108.105 957.44 108.437 957.832 108.67C958.224 108.894 958.658 109.006 959.134 109.006C959.61 109.006 960.044 108.894 960.436 108.67C960.838 108.437 961.155 108.105 961.388 107.676C961.622 107.237 961.738 106.729 961.738 106.15ZM968.903 102.188C969.482 102.188 970.004 102.314 970.471 102.566C970.938 102.809 971.302 103.177 971.563 103.672C971.834 104.167 971.969 104.769 971.969 105.478V110H970.709V105.66C970.709 104.895 970.518 104.311 970.135 103.91C969.752 103.499 969.23 103.294 968.567 103.294C967.895 103.294 967.358 103.504 966.957 103.924C966.565 104.344 966.369 104.955 966.369 105.758V110H965.095V99.64H966.369V103.42C966.621 103.028 966.966 102.725 967.405 102.51C967.853 102.295 968.352 102.188 968.903 102.188ZM975.52 103.378V107.9C975.52 108.273 975.6 108.539 975.758 108.698C975.917 108.847 976.192 108.922 976.584 108.922H977.522V110H976.374C975.665 110 975.133 109.837 974.778 109.51C974.424 109.183 974.246 108.647 974.246 107.9V103.378H973.252V102.328H974.246V100.396H975.52V102.328H977.522V103.378H975.52ZM983.904 100.242V110H982.63V100.242H983.904ZM999.86 102.328L997.466 110H996.15L994.302 103.91L992.454 110H991.138L988.73 102.328H990.032L991.796 108.768L993.7 102.328H995.002L996.864 108.782L998.6 102.328H999.86ZM1000.56 106.136C1000.56 105.352 1000.72 104.666 1001.04 104.078C1001.36 103.481 1001.79 103.019 1002.34 102.692C1002.9 102.365 1003.52 102.202 1004.2 102.202C1004.88 102.202 1005.46 102.347 1005.95 102.636C1006.45 102.925 1006.82 103.289 1007.06 103.728V102.328H1008.35V110H1007.06V108.572C1006.81 109.02 1006.43 109.393 1005.93 109.692C1005.43 109.981 1004.85 110.126 1004.19 110.126C1003.51 110.126 1002.89 109.958 1002.34 109.622C1001.79 109.286 1001.36 108.815 1001.04 108.208C1000.72 107.601 1000.56 106.911 1000.56 106.136ZM1007.06 106.15C1007.06 105.571 1006.94 105.067 1006.71 104.638C1006.48 104.209 1006.16 103.882 1005.76 103.658C1005.37 103.425 1004.93 103.308 1004.46 103.308C1003.98 103.308 1003.55 103.42 1003.15 103.644C1002.76 103.868 1002.45 104.195 1002.22 104.624C1001.98 105.053 1001.87 105.557 1001.87 106.136C1001.87 106.724 1001.98 107.237 1002.22 107.676C1002.45 108.105 1002.76 108.437 1003.15 108.67C1003.55 108.894 1003.98 109.006 1004.46 109.006C1004.93 109.006 1005.37 108.894 1005.76 108.67C1006.16 108.437 1006.48 108.105 1006.71 107.676C1006.94 107.237 1007.06 106.729 1007.06 106.15ZM1013.13 110.126C1012.55 110.126 1012.02 110.028 1011.55 109.832C1011.08 109.627 1010.72 109.347 1010.45 108.992C1010.17 108.628 1010.03 108.213 1010 107.746H1011.31C1011.35 108.129 1011.53 108.441 1011.85 108.684C1012.17 108.927 1012.6 109.048 1013.12 109.048C1013.6 109.048 1013.99 108.941 1014.27 108.726C1014.55 108.511 1014.69 108.241 1014.69 107.914C1014.69 107.578 1014.54 107.331 1014.24 107.172C1013.94 107.004 1013.48 106.841 1012.85 106.682C1012.28 106.533 1011.82 106.383 1011.45 106.234C1011.1 106.075 1010.79 105.847 1010.53 105.548C1010.28 105.24 1010.15 104.839 1010.15 104.344C1010.15 103.952 1010.27 103.593 1010.5 103.266C1010.73 102.939 1011.07 102.683 1011.5 102.496C1011.92 102.3 1012.41 102.202 1012.97 102.202C1013.81 102.202 1014.5 102.417 1015.02 102.846C1015.55 103.275 1015.83 103.863 1015.86 104.61H1014.59C1014.56 104.209 1014.4 103.887 1014.1 103.644C1013.81 103.401 1013.42 103.28 1012.92 103.28C1012.47 103.28 1012.1 103.378 1011.83 103.574C1011.56 103.77 1011.43 104.027 1011.43 104.344C1011.43 104.596 1011.5 104.806 1011.66 104.974C1011.83 105.133 1012.04 105.263 1012.28 105.366C1012.53 105.459 1012.88 105.567 1013.32 105.688C1013.87 105.837 1014.31 105.987 1014.66 106.136C1015 106.276 1015.3 106.491 1015.54 106.78C1015.79 107.069 1015.92 107.447 1015.93 107.914C1015.93 108.334 1015.82 108.712 1015.58 109.048C1015.35 109.384 1015.02 109.65 1014.59 109.846C1014.17 110.033 1013.68 110.126 1013.13 110.126ZM746.794 130.126C746.206 130.126 745.679 130.028 745.212 129.832C744.745 129.627 744.377 129.347 744.106 128.992C743.835 128.628 743.686 128.213 743.658 127.746H744.974C745.011 128.129 745.189 128.441 745.506 128.684C745.833 128.927 746.257 129.048 746.78 129.048C747.265 129.048 747.648 128.941 747.928 128.726C748.208 128.511 748.348 128.241 748.348 127.914C748.348 127.578 748.199 127.331 747.9 127.172C747.601 127.004 747.139 126.841 746.514 126.682C745.945 126.533 745.478 126.383 745.114 126.234C744.759 126.075 744.451 125.847 744.19 125.548C743.938 125.24 743.812 124.839 743.812 124.344C743.812 123.952 743.929 123.593 744.162 123.266C744.395 122.939 744.727 122.683 745.156 122.496C745.585 122.3 746.075 122.202 746.626 122.202C747.475 122.202 748.161 122.417 748.684 122.846C749.207 123.275 749.487 123.863 749.524 124.61H748.25C748.222 124.209 748.059 123.887 747.76 123.644C747.471 123.401 747.079 123.28 746.584 123.28C746.127 123.28 745.763 123.378 745.492 123.574C745.221 123.77 745.086 124.027 745.086 124.344C745.086 124.596 745.165 124.806 745.324 124.974C745.492 125.133 745.697 125.263 745.94 125.366C746.192 125.459 746.537 125.567 746.976 125.688C747.527 125.837 747.975 125.987 748.32 126.136C748.665 126.276 748.959 126.491 749.202 126.78C749.454 127.069 749.585 127.447 749.594 127.914C749.594 128.334 749.477 128.712 749.244 129.048C749.011 129.384 748.679 129.65 748.25 129.846C747.83 130.033 747.345 130.126 746.794 130.126ZM755.592 130L752.582 126.612V130H751.308V119.64H752.582V125.73L755.536 122.328H757.314L753.702 126.15L757.328 130H755.592ZM765.43 125.87C765.43 126.113 765.416 126.369 765.388 126.64H759.256C759.302 127.396 759.559 127.989 760.026 128.418C760.502 128.838 761.076 129.048 761.748 129.048C762.298 129.048 762.756 128.922 763.12 128.67C763.493 128.409 763.754 128.063 763.904 127.634H765.276C765.07 128.371 764.66 128.973 764.044 129.44C763.428 129.897 762.662 130.126 761.748 130.126C761.02 130.126 760.366 129.963 759.788 129.636C759.218 129.309 758.77 128.847 758.444 128.25C758.117 127.643 757.954 126.943 757.954 126.15C757.954 125.357 758.112 124.661 758.43 124.064C758.747 123.467 759.19 123.009 759.76 122.692C760.338 122.365 761.001 122.202 761.748 122.202C762.476 122.202 763.12 122.361 763.68 122.678C764.24 122.995 764.669 123.434 764.968 123.994C765.276 124.545 765.43 125.17 765.43 125.87ZM764.114 125.604C764.114 125.119 764.006 124.703 763.792 124.358C763.577 124.003 763.283 123.737 762.91 123.56C762.546 123.373 762.14 123.28 761.692 123.28C761.048 123.28 760.497 123.485 760.04 123.896C759.592 124.307 759.335 124.876 759.27 125.604H764.114ZM768.301 123.742C768.553 123.303 768.927 122.939 769.421 122.65C769.925 122.351 770.509 122.202 771.171 122.202C771.853 122.202 772.469 122.365 773.019 122.692C773.579 123.019 774.018 123.481 774.335 124.078C774.653 124.666 774.811 125.352 774.811 126.136C774.811 126.911 774.653 127.601 774.335 128.208C774.018 128.815 773.579 129.286 773.019 129.622C772.469 129.958 771.853 130.126 771.171 130.126C770.518 130.126 769.939 129.981 769.435 129.692C768.941 129.393 768.563 129.025 768.301 128.586V133.64H767.027V122.328H768.301V123.742ZM773.509 126.136C773.509 125.557 773.393 125.053 773.159 124.624C772.926 124.195 772.609 123.868 772.207 123.644C771.815 123.42 771.381 123.308 770.905 123.308C770.439 123.308 770.005 123.425 769.603 123.658C769.211 123.882 768.894 124.213 768.651 124.652C768.418 125.081 768.301 125.581 768.301 126.15C768.301 126.729 768.418 127.237 768.651 127.676C768.894 128.105 769.211 128.437 769.603 128.67C770.005 128.894 770.439 129.006 770.905 129.006C771.381 129.006 771.815 128.894 772.207 128.67C772.609 128.437 772.926 128.105 773.159 127.676C773.393 127.237 773.509 126.724 773.509 126.136ZM777.958 123.378V127.9C777.958 128.273 778.037 128.539 778.196 128.698C778.355 128.847 778.63 128.922 779.022 128.922H779.96V130H778.812C778.103 130 777.571 129.837 777.216 129.51C776.861 129.183 776.684 128.647 776.684 127.9V123.378H775.69V122.328H776.684V120.396H777.958V122.328H779.96V123.378H777.958ZM782.078 121.082C781.835 121.082 781.63 120.998 781.462 120.83C781.294 120.662 781.21 120.457 781.21 120.214C781.21 119.971 781.294 119.766 781.462 119.598C781.63 119.43 781.835 119.346 782.078 119.346C782.311 119.346 782.507 119.43 782.666 119.598C782.834 119.766 782.918 119.971 782.918 120.214C782.918 120.457 782.834 120.662 782.666 120.83C782.507 120.998 782.311 121.082 782.078 121.082ZM782.694 122.328V130H781.42V122.328H782.694ZM784.305 126.15C784.305 125.357 784.464 124.666 784.781 124.078C785.098 123.481 785.537 123.019 786.097 122.692C786.666 122.365 787.315 122.202 788.043 122.202C788.986 122.202 789.76 122.431 790.367 122.888C790.983 123.345 791.389 123.98 791.585 124.792H790.213C790.082 124.325 789.826 123.957 789.443 123.686C789.07 123.415 788.603 123.28 788.043 123.28C787.315 123.28 786.727 123.532 786.279 124.036C785.831 124.531 785.607 125.235 785.607 126.15C785.607 127.074 785.831 127.788 786.279 128.292C786.727 128.796 787.315 129.048 788.043 129.048C788.603 129.048 789.07 128.917 789.443 128.656C789.816 128.395 790.073 128.021 790.213 127.536H791.585C791.38 128.32 790.969 128.95 790.353 129.426C789.737 129.893 788.967 130.126 788.043 130.126C787.315 130.126 786.666 129.963 786.097 129.636C785.537 129.309 785.098 128.847 784.781 128.25C784.464 127.653 784.305 126.953 784.305 126.15ZM792.725 126.136C792.725 125.352 792.884 124.666 793.201 124.078C793.518 123.481 793.952 123.019 794.503 122.692C795.063 122.365 795.684 122.202 796.365 122.202C797.037 122.202 797.62 122.347 798.115 122.636C798.61 122.925 798.978 123.289 799.221 123.728V122.328H800.509V130H799.221V128.572C798.969 129.02 798.591 129.393 798.087 129.692C797.592 129.981 797.014 130.126 796.351 130.126C795.67 130.126 795.054 129.958 794.503 129.622C793.952 129.286 793.518 128.815 793.201 128.208C792.884 127.601 792.725 126.911 792.725 126.136ZM799.221 126.15C799.221 125.571 799.104 125.067 798.871 124.638C798.638 124.209 798.32 123.882 797.919 123.658C797.527 123.425 797.093 123.308 796.617 123.308C796.141 123.308 795.707 123.42 795.315 123.644C794.923 123.868 794.61 124.195 794.377 124.624C794.144 125.053 794.027 125.557 794.027 126.136C794.027 126.724 794.144 127.237 794.377 127.676C794.61 128.105 794.923 128.437 795.315 128.67C795.707 128.894 796.141 129.006 796.617 129.006C797.093 129.006 797.527 128.894 797.919 128.67C798.32 128.437 798.638 128.105 798.871 127.676C799.104 127.237 799.221 126.729 799.221 126.15ZM803.852 119.64V130H802.578V119.64H803.852ZM807.255 128.236L805.687 132.002H804.833L805.855 128.236H807.255ZM819.279 125.87C819.279 126.113 819.265 126.369 819.237 126.64H813.105C813.152 127.396 813.408 127.989 813.875 128.418C814.351 128.838 814.925 129.048 815.597 129.048C816.148 129.048 816.605 128.922 816.969 128.67C817.342 128.409 817.604 128.063 817.753 127.634H819.125C818.92 128.371 818.509 128.973 817.893 129.44C817.277 129.897 816.512 130.126 815.597 130.126C814.869 130.126 814.216 129.963 813.637 129.636C813.068 129.309 812.62 128.847 812.293 128.25C811.966 127.643 811.803 126.943 811.803 126.15C811.803 125.357 811.962 124.661 812.279 124.064C812.596 123.467 813.04 123.009 813.609 122.692C814.188 122.365 814.85 122.202 815.597 122.202C816.325 122.202 816.969 122.361 817.529 122.678C818.089 122.995 818.518 123.434 818.817 123.994C819.125 124.545 819.279 125.17 819.279 125.87ZM817.963 125.604C817.963 125.119 817.856 124.703 817.641 124.358C817.426 124.003 817.132 123.737 816.759 123.56C816.395 123.373 815.989 123.28 815.541 123.28C814.897 123.28 814.346 123.485 813.889 123.896C813.441 124.307 813.184 124.876 813.119 125.604H817.963ZM823.733 128.824L826.113 122.328H827.471L824.461 130H822.977L819.967 122.328H821.339L823.733 128.824ZM835.64 125.87C835.64 126.113 835.626 126.369 835.598 126.64H829.466C829.513 127.396 829.77 127.989 830.236 128.418C830.712 128.838 831.286 129.048 831.958 129.048C832.509 129.048 832.966 128.922 833.33 128.67C833.704 128.409 833.965 128.063 834.114 127.634H835.486C835.281 128.371 834.87 128.973 834.254 129.44C833.638 129.897 832.873 130.126 831.958 130.126C831.23 130.126 830.577 129.963 829.998 129.636C829.429 129.309 828.981 128.847 828.654 128.25C828.328 127.643 828.164 126.943 828.164 126.15C828.164 125.357 828.323 124.661 828.64 124.064C828.958 123.467 829.401 123.009 829.97 122.692C830.549 122.365 831.212 122.202 831.958 122.202C832.686 122.202 833.33 122.361 833.89 122.678C834.45 122.995 834.88 123.434 835.178 123.994C835.486 124.545 835.64 125.17 835.64 125.87ZM834.324 125.604C834.324 125.119 834.217 124.703 834.002 124.358C833.788 124.003 833.494 123.737 833.12 123.56C832.756 123.373 832.35 123.28 831.902 123.28C831.258 123.28 830.708 123.485 830.25 123.896C829.802 124.307 829.546 124.876 829.48 125.604H834.324ZM838.512 123.574C838.736 123.135 839.053 122.795 839.464 122.552C839.884 122.309 840.393 122.188 840.99 122.188V123.504H840.654C839.226 123.504 838.512 124.279 838.512 125.828V130H837.238V122.328H838.512V123.574ZM848.985 122.328L844.365 133.612H843.049L844.561 129.916L841.467 122.328H842.881L845.289 128.544L847.669 122.328H848.985ZM851.735 123.378V127.9C851.735 128.273 851.815 128.539 851.973 128.698C852.132 128.847 852.407 128.922 852.799 128.922H853.737V130H852.589C851.88 130 851.348 129.837 850.993 129.51C850.639 129.183 850.461 128.647 850.461 127.9V123.378H849.467V122.328H850.461V120.396H851.735V122.328H853.737V123.378H851.735ZM859.005 122.188C859.584 122.188 860.106 122.314 860.573 122.566C861.04 122.809 861.404 123.177 861.665 123.672C861.936 124.167 862.071 124.769 862.071 125.478V130H860.811V125.66C860.811 124.895 860.62 124.311 860.237 123.91C859.854 123.499 859.332 123.294 858.669 123.294C857.997 123.294 857.46 123.504 857.059 123.924C856.667 124.344 856.471 124.955 856.471 125.758V130H855.197V119.64H856.471V123.42C856.723 123.028 857.068 122.725 857.507 122.51C857.955 122.295 858.454 122.188 859.005 122.188ZM864.726 121.082C864.483 121.082 864.278 120.998 864.11 120.83C863.942 120.662 863.858 120.457 863.858 120.214C863.858 119.971 863.942 119.766 864.11 119.598C864.278 119.43 864.483 119.346 864.726 119.346C864.959 119.346 865.155 119.43 865.314 119.598C865.482 119.766 865.566 119.971 865.566 120.214C865.566 120.457 865.482 120.662 865.314 120.83C865.155 120.998 864.959 121.082 864.726 121.082ZM865.342 122.328V130H864.068V122.328H865.342ZM871.167 122.188C872.101 122.188 872.857 122.473 873.435 123.042C874.014 123.602 874.303 124.414 874.303 125.478V130H873.043V125.66C873.043 124.895 872.852 124.311 872.469 123.91C872.087 123.499 871.564 123.294 870.901 123.294C870.229 123.294 869.693 123.504 869.291 123.924C868.899 124.344 868.703 124.955 868.703 125.758V130H867.429V122.328H868.703V123.42C868.955 123.028 869.296 122.725 869.725 122.51C870.164 122.295 870.645 122.188 871.167 122.188ZM879.464 122.202C880.127 122.202 880.706 122.347 881.2 122.636C881.704 122.925 882.078 123.289 882.32 123.728V122.328H883.608V130.168C883.608 130.868 883.459 131.489 883.16 132.03C882.862 132.581 882.432 133.01 881.872 133.318C881.322 133.626 880.678 133.78 879.94 133.78C878.932 133.78 878.092 133.542 877.42 133.066C876.748 132.59 876.352 131.941 876.23 131.12H877.49C877.63 131.587 877.92 131.96 878.358 132.24C878.797 132.529 879.324 132.674 879.94 132.674C880.64 132.674 881.21 132.455 881.648 132.016C882.096 131.577 882.32 130.961 882.32 130.168V128.558C882.068 129.006 881.695 129.379 881.2 129.678C880.706 129.977 880.127 130.126 879.464 130.126C878.783 130.126 878.162 129.958 877.602 129.622C877.052 129.286 876.618 128.815 876.3 128.208C875.983 127.601 875.824 126.911 875.824 126.136C875.824 125.352 875.983 124.666 876.3 124.078C876.618 123.481 877.052 123.019 877.602 122.692C878.162 122.365 878.783 122.202 879.464 122.202ZM882.32 126.15C882.32 125.571 882.204 125.067 881.97 124.638C881.737 124.209 881.42 123.882 881.018 123.658C880.626 123.425 880.192 123.308 879.716 123.308C879.24 123.308 878.806 123.42 878.414 123.644C878.022 123.868 877.71 124.195 877.476 124.624C877.243 125.053 877.126 125.557 877.126 126.136C877.126 126.724 877.243 127.237 877.476 127.676C877.71 128.105 878.022 128.437 878.414 128.67C878.806 128.894 879.24 129.006 879.716 129.006C880.192 129.006 880.626 128.894 881.018 128.67C881.42 128.437 881.737 128.105 881.97 127.676C882.204 127.237 882.32 126.729 882.32 126.15ZM890.88 123.378V127.9C890.88 128.273 890.959 128.539 891.118 128.698C891.276 128.847 891.552 128.922 891.944 128.922H892.882V130H891.734C891.024 130 890.492 129.837 890.138 129.51C889.783 129.183 889.606 128.647 889.606 127.9V123.378H888.612V122.328H889.606V120.396H890.88V122.328H892.882V123.378H890.88ZM901.145 122.328V130H899.871V128.866C899.629 129.258 899.288 129.566 898.849 129.79C898.42 130.005 897.944 130.112 897.421 130.112C896.824 130.112 896.287 129.991 895.811 129.748C895.335 129.496 894.957 129.123 894.677 128.628C894.407 128.133 894.271 127.531 894.271 126.822V122.328H895.531V126.654C895.531 127.41 895.723 127.993 896.105 128.404C896.488 128.805 897.011 129.006 897.673 129.006C898.355 129.006 898.891 128.796 899.283 128.376C899.675 127.956 899.871 127.345 899.871 126.542V122.328H901.145ZM904.486 123.574C904.71 123.135 905.028 122.795 905.438 122.552C905.858 122.309 906.367 122.188 906.964 122.188V123.504H906.628C905.2 123.504 904.486 124.279 904.486 125.828V130H903.212V122.328H904.486V123.574ZM912.089 122.188C913.022 122.188 913.778 122.473 914.357 123.042C914.936 123.602 915.225 124.414 915.225 125.478V130H913.965V125.66C913.965 124.895 913.774 124.311 913.391 123.91C913.008 123.499 912.486 123.294 911.823 123.294C911.151 123.294 910.614 123.504 910.213 123.924C909.821 124.344 909.625 124.955 909.625 125.758V130H908.351V122.328H909.625V123.42C909.877 123.028 910.218 122.725 910.647 122.51C911.086 122.295 911.566 122.188 912.089 122.188ZM924.222 125.87C924.222 126.113 924.208 126.369 924.18 126.64H918.048C918.095 127.396 918.351 127.989 918.818 128.418C919.294 128.838 919.868 129.048 920.54 129.048C921.091 129.048 921.548 128.922 921.912 128.67C922.285 128.409 922.547 128.063 922.696 127.634H924.068C923.863 128.371 923.452 128.973 922.836 129.44C922.22 129.897 921.455 130.126 920.54 130.126C919.812 130.126 919.159 129.963 918.58 129.636C918.011 129.309 917.563 128.847 917.236 128.25C916.909 127.643 916.746 126.943 916.746 126.15C916.746 125.357 916.905 124.661 917.222 124.064C917.539 123.467 917.983 123.009 918.552 122.692C919.131 122.365 919.793 122.202 920.54 122.202C921.268 122.202 921.912 122.361 922.472 122.678C923.032 122.995 923.461 123.434 923.76 123.994C924.068 124.545 924.222 125.17 924.222 125.87ZM922.906 125.604C922.906 125.119 922.799 124.703 922.584 124.358C922.369 124.003 922.075 123.737 921.702 123.56C921.338 123.373 920.932 123.28 920.484 123.28C919.84 123.28 919.289 123.485 918.832 123.896C918.384 124.307 918.127 124.876 918.062 125.604H922.906ZM925.344 126.136C925.344 125.352 925.502 124.666 925.82 124.078C926.137 123.481 926.571 123.019 927.122 122.692C927.682 122.365 928.307 122.202 928.998 122.202C929.595 122.202 930.15 122.342 930.664 122.622C931.177 122.893 931.569 123.252 931.84 123.7V119.64H933.128V130H931.84V128.558C931.588 129.015 931.214 129.393 930.72 129.692C930.225 129.981 929.646 130.126 928.984 130.126C928.302 130.126 927.682 129.958 927.122 129.622C926.571 129.286 926.137 128.815 925.82 128.208C925.502 127.601 925.344 126.911 925.344 126.136ZM931.84 126.15C931.84 125.571 931.723 125.067 931.49 124.638C931.256 124.209 930.939 123.882 930.538 123.658C930.146 123.425 929.712 123.308 929.236 123.308C928.76 123.308 928.326 123.42 927.934 123.644C927.542 123.868 927.229 124.195 926.996 124.624C926.762 125.053 926.646 125.557 926.646 126.136C926.646 126.724 926.762 127.237 926.996 127.676C927.229 128.105 927.542 128.437 927.934 128.67C928.326 128.894 928.76 129.006 929.236 129.006C929.712 129.006 930.146 128.894 930.538 128.67C930.939 128.437 931.256 128.105 931.49 127.676C931.723 127.237 931.84 126.729 931.84 126.15ZM942.191 130.126C941.472 130.126 940.819 129.963 940.231 129.636C939.652 129.309 939.195 128.847 938.859 128.25C938.532 127.643 938.369 126.943 938.369 126.15C938.369 125.366 938.537 124.675 938.873 124.078C939.218 123.471 939.685 123.009 940.273 122.692C940.861 122.365 941.519 122.202 942.247 122.202C942.975 122.202 943.633 122.365 944.221 122.692C944.809 123.009 945.271 123.467 945.607 124.064C945.952 124.661 946.125 125.357 946.125 126.15C946.125 126.943 945.948 127.643 945.593 128.25C945.248 128.847 944.776 129.309 944.179 129.636C943.582 129.963 942.919 130.126 942.191 130.126ZM942.191 129.006C942.648 129.006 943.078 128.899 943.479 128.684C943.88 128.469 944.202 128.147 944.445 127.718C944.697 127.289 944.823 126.766 944.823 126.15C944.823 125.534 944.702 125.011 944.459 124.582C944.216 124.153 943.899 123.835 943.507 123.63C943.115 123.415 942.69 123.308 942.233 123.308C941.766 123.308 941.337 123.415 940.945 123.63C940.562 123.835 940.254 124.153 940.021 124.582C939.788 125.011 939.671 125.534 939.671 126.15C939.671 126.775 939.783 127.303 940.007 127.732C940.24 128.161 940.548 128.483 940.931 128.698C941.314 128.903 941.734 129.006 942.191 129.006ZM954.52 122.328V130H953.246V128.866C953.004 129.258 952.663 129.566 952.224 129.79C951.795 130.005 951.319 130.112 950.796 130.112C950.199 130.112 949.662 129.991 949.186 129.748C948.71 129.496 948.332 129.123 948.052 128.628C947.782 128.133 947.646 127.531 947.646 126.822V122.328H948.906V126.654C948.906 127.41 949.098 127.993 949.48 128.404C949.863 128.805 950.386 129.006 951.048 129.006C951.73 129.006 952.266 128.796 952.658 128.376C953.05 127.956 953.246 127.345 953.246 126.542V122.328H954.52ZM958.141 123.378V127.9C958.141 128.273 958.221 128.539 958.379 128.698C958.538 128.847 958.813 128.922 959.205 128.922H960.143V130H958.995C958.286 130 957.754 129.837 957.399 129.51C957.045 129.183 956.867 128.647 956.867 127.9V123.378H955.873V122.328H956.867V120.396H958.141V122.328H960.143V123.378H958.141ZM966.525 123.742C966.777 123.303 967.151 122.939 967.645 122.65C968.149 122.351 968.733 122.202 969.395 122.202C970.077 122.202 970.693 122.365 971.243 122.692C971.803 123.019 972.242 123.481 972.559 124.078C972.877 124.666 973.035 125.352 973.035 126.136C973.035 126.911 972.877 127.601 972.559 128.208C972.242 128.815 971.803 129.286 971.243 129.622C970.693 129.958 970.077 130.126 969.395 130.126C968.742 130.126 968.163 129.981 967.659 129.692C967.165 129.393 966.787 129.025 966.525 128.586V133.64H965.251V122.328H966.525V123.742ZM971.733 126.136C971.733 125.557 971.617 125.053 971.383 124.624C971.15 124.195 970.833 123.868 970.431 123.644C970.039 123.42 969.605 123.308 969.129 123.308C968.663 123.308 968.229 123.425 967.827 123.658C967.435 123.882 967.118 124.213 966.875 124.652C966.642 125.081 966.525 125.581 966.525 126.15C966.525 126.729 966.642 127.237 966.875 127.676C967.118 128.105 967.435 128.437 967.827 128.67C968.229 128.894 968.663 129.006 969.129 129.006C969.605 129.006 970.039 128.894 970.431 128.67C970.833 128.437 971.15 128.105 971.383 127.676C971.617 127.237 971.733 126.724 971.733 126.136ZM981.628 125.87C981.628 126.113 981.614 126.369 981.586 126.64H975.454C975.501 127.396 975.758 127.989 976.224 128.418C976.7 128.838 977.274 129.048 977.946 129.048C978.497 129.048 978.954 128.922 979.318 128.67C979.692 128.409 979.953 128.063 980.102 127.634H981.474C981.269 128.371 980.858 128.973 980.242 129.44C979.626 129.897 978.861 130.126 977.946 130.126C977.218 130.126 976.565 129.963 975.986 129.636C975.417 129.309 974.969 128.847 974.642 128.25C974.316 127.643 974.152 126.943 974.152 126.15C974.152 125.357 974.311 124.661 974.628 124.064C974.946 123.467 975.389 123.009 975.958 122.692C976.537 122.365 977.2 122.202 977.946 122.202C978.674 122.202 979.318 122.361 979.878 122.678C980.438 122.995 980.868 123.434 981.166 123.994C981.474 124.545 981.628 125.17 981.628 125.87ZM980.312 125.604C980.312 125.119 980.205 124.703 979.99 124.358C979.776 124.003 979.482 123.737 979.108 123.56C978.744 123.373 978.338 123.28 977.89 123.28C977.246 123.28 976.696 123.485 976.238 123.896C975.79 124.307 975.534 124.876 975.468 125.604H980.312ZM984.5 123.574C984.724 123.135 985.041 122.795 985.452 122.552C985.872 122.309 986.381 122.188 986.978 122.188V123.504H986.642C985.214 123.504 984.5 124.279 984.5 125.828V130H983.226V122.328H984.5V123.574ZM991.487 123.378H989.877V130H988.603V123.378H987.609V122.328H988.603V121.782C988.603 120.923 988.822 120.298 989.261 119.906C989.709 119.505 990.423 119.304 991.403 119.304V120.368C990.843 120.368 990.446 120.48 990.213 120.704C989.989 120.919 989.877 121.278 989.877 121.782V122.328H991.487V123.378ZM999.888 125.87C999.888 126.113 999.874 126.369 999.846 126.64H993.714C993.761 127.396 994.017 127.989 994.484 128.418C994.96 128.838 995.534 129.048 996.206 129.048C996.757 129.048 997.214 128.922 997.578 128.67C997.951 128.409 998.213 128.063 998.362 127.634H999.734C999.529 128.371 999.118 128.973 998.502 129.44C997.886 129.897 997.121 130.126 996.206 130.126C995.478 130.126 994.825 129.963 994.246 129.636C993.677 129.309 993.229 128.847 992.902 128.25C992.575 127.643 992.412 126.943 992.412 126.15C992.412 125.357 992.571 124.661 992.888 124.064C993.205 123.467 993.649 123.009 994.218 122.692C994.797 122.365 995.459 122.202 996.206 122.202C996.934 122.202 997.578 122.361 998.138 122.678C998.698 122.995 999.127 123.434 999.426 123.994C999.734 124.545 999.888 125.17 999.888 125.87ZM998.572 125.604C998.572 125.119 998.465 124.703 998.25 124.358C998.035 124.003 997.741 123.737 997.368 123.56C997.004 123.373 996.598 123.28 996.15 123.28C995.506 123.28 994.955 123.485 994.498 123.896C994.05 124.307 993.793 124.876 993.728 125.604H998.572ZM1001.01 126.15C1001.01 125.357 1001.17 124.666 1001.49 124.078C1001.8 123.481 1002.24 123.019 1002.8 122.692C1003.37 122.365 1004.02 122.202 1004.75 122.202C1005.69 122.202 1006.46 122.431 1007.07 122.888C1007.69 123.345 1008.09 123.98 1008.29 124.792H1006.92C1006.79 124.325 1006.53 123.957 1006.15 123.686C1005.77 123.415 1005.31 123.28 1004.75 123.28C1004.02 123.28 1003.43 123.532 1002.98 124.036C1002.54 124.531 1002.31 125.235 1002.31 126.15C1002.31 127.074 1002.54 127.788 1002.98 128.292C1003.43 128.796 1004.02 129.048 1004.75 129.048C1005.31 129.048 1005.77 128.917 1006.15 128.656C1006.52 128.395 1006.78 128.021 1006.92 127.536H1008.29C1008.08 128.32 1007.67 128.95 1007.06 129.426C1006.44 129.893 1005.67 130.126 1004.75 130.126C1004.02 130.126 1003.37 129.963 1002.8 129.636C1002.24 129.309 1001.8 128.847 1001.49 128.25C1001.17 127.653 1001.01 126.953 1001.01 126.15ZM1011.46 123.378V127.9C1011.46 128.273 1011.54 128.539 1011.7 128.698C1011.86 128.847 1012.13 128.922 1012.52 128.922H1013.46V130H1012.31C1011.6 130 1011.07 129.837 1010.72 129.51C1010.36 129.183 1010.19 128.647 1010.19 127.9V123.378H1009.19V122.328H1010.19V120.396H1011.46V122.328H1013.46V123.378H1011.46ZM1016.57 120.242L1016.42 127.242H1015.36L1015.2 120.242H1016.57ZM1015.94 130.084C1015.7 130.084 1015.5 130 1015.33 129.832C1015.16 129.664 1015.08 129.459 1015.08 129.216C1015.08 128.973 1015.16 128.768 1015.33 128.6C1015.5 128.432 1015.7 128.348 1015.94 128.348C1016.18 128.348 1016.37 128.432 1016.53 128.6C1016.7 128.768 1016.78 128.973 1016.78 129.216C1016.78 129.459 1016.7 129.664 1016.53 129.832C1016.37 130 1016.18 130.084 1015.94 130.084Z" fill="white"/>
<defs>
<linearGradient id="paint0_linear_37_126" x1="540" y1="0" x2="540" y2="196" gradientUnits="userSpaceOnUse">
<stop stop-color="#FF9685"/>
<stop offset="1" stop-color="#F87661"/>
</linearGradient>
<linearGradient id="paint1_linear_37_126" x1="540" y1="0" x2="540" y2="196" gradientUnits="userSpaceOnUse">
<stop stop-color="#FF9685"/>
<stop offset="1" stop-color="#F87661"/>
</linearGradient>
<linearGradient id="paint2_linear_37_126" x1="559" y1="-698" x2="559" y2="528.625" gradientUnits="userSpaceOnUse">
<stop stop-color="#FF9685"/>
<stop offset="1" stop-color="#F87661"/>
</linearGradient>
</defs>
</svg>
