<svg width="1439" height="470" viewBox="0 0 1439 470" fill="none" xmlns="http://www.w3.org/2000/svg">
<path opacity="0.5" fill-rule="evenodd" clip-rule="evenodd" d="M1449.98 1043.83L1441.17 1044.01C1337.64 1044.01 1242.81 1003.41 1173.27 938.27C1103.96 873.361 1059.79 783.933 1057.28 686.094L1057.08 677.334C1057.08 621.34 1070.53 568.282 1094.56 520.816C1054.38 546.085 1011.19 567.495 965.596 584.479C962.702 597.708 960.429 611.155 958.787 624.799C956.703 641.832 955.661 659.352 955.661 677.334C955.661 804.72 1010.92 920.056 1100.27 1003.55C1189.63 1087.05 1313.08 1138.68 1449.43 1138.68L1449.43 1181.9C1300.31 1181.9 1165.28 1125.42 1067.58 1034.09C969.824 942.789 909.378 816.655 909.378 677.334C909.378 658.193 910.568 639.075 912.875 620.072C913.652 613.691 914.556 607.345 915.585 601.037C881.629 610.908 846.545 618.387 810.56 623.262C809.947 629.547 809.441 635.793 809.047 641.994C808.328 653.141 807.98 664.936 807.98 677.334C807.98 842.841 879.787 992.682 995.843 1101.11C1111.97 1209.61 1272.35 1276.72 1449.43 1276.72L1449.43 1319.78C1431.66 1319.78 1414.05 1319.15 1396.62 1317.92C1396.93 1321.72 1397.21 1325.56 1397.47 1329.42C1398.31 1342.47 1398.73 1355.1 1398.73 1367.26L1352.47 1367.26C1352.47 1354.86 1352.1 1343.12 1351.4 1331.95C1351.01 1325.71 1350.5 1319.43 1349.88 1313.1C1313.88 1308.23 1278.79 1300.76 1244.83 1290.89C1245.86 1297.23 1246.77 1303.6 1247.55 1310C1249.81 1328.52 1250.95 1347.61 1250.95 1367.26L1204.89 1367.26L1204.87 1367.26C1204.87 1349.79 1203.77 1332.27 1201.67 1314.73C1200 1301.08 1197.72 1287.59 1194.81 1274.35C1150.02 1257.67 1107.55 1236.72 1067.98 1212.05C1090.72 1257.18 1103.46 1307.16 1103.46 1359.52L1103.27 1367.75L1057.18 1366.73L1057.16 1366.75L1057.18 1359.52C1057.18 1274.64 1018.98 1196.86 957.743 1139.79C896.279 1082.5 811.724 1045.98 719.28 1043.92L710.996 1043.9C615.427 1043.9 528.887 1080.09 466.283 1138.61C403.654 1197.12 364.91 1277.95 364.91 1367.24L318.651 1367.24C318.651 1266.02 362.579 1174.39 433.567 1108.04C504.555 1041.72 602.653 1000.68 710.996 1000.68L720.347 1000.86C776.633 1002.12 830.313 1014.62 878.714 1035.96C851.591 998.353 828.614 957.919 810.394 915.231C796.224 912.524 781.82 910.398 767.204 908.863C748.974 906.916 730.222 905.943 710.975 905.943C574.629 905.943 451.181 957.574 361.813 1041.05C272.446 1124.54 217.183 1239.88 217.183 1367.26L170.924 1367.26C170.924 1227.94 231.371 1101.78 329.122 1010.5C426.848 919.175 561.855 862.7 710.975 862.7C731.462 862.7 751.925 863.813 772.264 865.968C779.105 866.695 785.907 867.542 792.67 868.504C782.1 836.771 774.093 803.984 768.873 770.354C762.147 769.781 755.461 769.308 748.824 768.94C736.894 768.268 724.269 767.944 710.999 767.944C533.851 767.944 373.47 835.008 257.414 943.461C141.283 1051.96 69.4515 1201.8 69.4515 1367.24L23.3911 1367.24C23.3911 1350.64 24.0642 1334.19 25.3862 1317.9C21.3063 1318.19 17.194 1318.45 13.0485 1318.69C-0.915952 1319.48 -14.434 1319.87 -27.456 1319.87L-27.456 1276.65C-14.186 1276.65 -1.61041 1276.3 10.345 1275.66C17.0285 1275.29 23.7614 1274.81 30.5362 1274.23C35.7495 1240.61 43.7471 1207.83 54.3037 1176.1C47.5107 1177.07 40.6778 1177.92 33.8059 1178.65C14.0125 1180.76 -6.42571 1181.83 -27.4593 1181.83L-27.4593 1138.79L-27.4593 1138.77C-8.75725 1138.77 9.99433 1137.75 28.7708 1135.78C43.3895 1134.22 57.8269 1132.09 72.012 1129.38C89.8594 1087.53 112.277 1047.85 138.688 1010.88C90.3729 1032.13 36.8772 1044.03 -19.1701 1044.03L-28.0002 1043.85L-26.9089 1000.79L-26.9089 1000.77L-19.1701 1000.79C71.661 1000.79 154.927 965.105 216.018 907.889C277.333 850.464 316.424 771.465 318.631 685.097L318.656 677.357C318.656 588.068 279.913 507.215 217.283 448.725C154.654 390.211 68.114 354.014 -27.4297 354.014L-27.4297 310.795C80.9127 310.795 178.986 351.836 249.999 418.159C320.987 484.505 364.915 576.157 364.915 677.357L364.716 686.117C363.37 738.681 349.997 788.818 327.16 834.029C367.409 808.691 410.683 787.226 456.369 770.205C459.265 756.971 461.54 743.518 463.182 729.869C465.266 712.836 466.308 695.317 466.308 677.334C466.308 549.948 411.045 434.613 321.677 351.118C232.334 267.623 108.887 215.992 -27.4592 215.992L-27.4592 172.773C121.66 172.773 256.692 229.247 354.393 320.575C452.145 411.879 512.566 538.014 512.566 677.334C512.566 696.476 511.401 715.594 509.094 734.597C508.316 740.982 507.411 747.332 506.382 753.645C540.348 743.769 575.441 736.287 611.436 731.41C612.05 725.123 612.556 718.876 612.95 712.674C613.669 701.527 614.017 689.732 614.017 677.334C614.017 511.827 542.21 361.986 426.154 253.556C310.023 145.057 149.642 77.9456 -27.431 77.9455L-27.431 34.9119C-9.67591 34.9119 7.92163 35.5399 25.3376 36.7732C25.028 32.9699 24.7512 29.1364 24.5074 25.2721C23.6888 12.2253 23.2672 -0.404397 23.2672 -12.5706L69.5261 -12.5706C69.5261 -0.172658 69.8982 11.5764 70.5926 22.7462C70.9893 28.9827 71.4985 35.2654 72.1167 41.5871C108.103 46.4572 143.184 53.9282 177.136 63.7893C176.105 57.4526 175.199 51.0787 174.418 44.6684C172.161 26.1757 171.02 7.0806 171.02 -12.5707L217.105 -12.5707C217.105 4.90228 218.197 22.4216 220.305 39.9641C221.969 53.612 224.252 67.0907 227.153 80.3342C272.746 97.3057 315.932 118.701 356.104 143.952C332.071 96.4783 318.627 43.4149 318.627 -12.5706L364.886 -12.5706C364.886 76.7178 403.63 157.548 466.259 216.061C528.863 274.575 615.403 310.772 710.972 310.772L719.256 310.749C811.7 308.687 896.255 272.188 957.719 214.879C1018.98 157.803 1057.16 80.0085 1057.16 -4.85369L1057.13 -12.0839L1103.22 -13.1035L1103.24 -13.1035L1103.44 -4.85369C1103.44 91.8734 1059.98 180.467 990.261 245.446C920.786 310.193 825.069 351.465 720.323 353.806L710.972 353.991C651.062 353.991 594.285 341.442 543.491 319.008C570.527 356.539 593.435 396.881 611.609 439.466C625.769 442.17 640.162 444.294 654.766 445.829C672.997 447.775 691.748 448.749 710.996 448.749C847.342 448.749 970.79 397.117 1060.16 313.623C1149.52 230.151 1204.79 114.815 1204.79 -12.5707L1251.05 -12.5707C1251.05 126.75 1190.6 252.907 1092.85 344.189C995.122 435.516 860.116 491.967 710.996 491.967C690.508 491.967 670.045 490.878 649.706 488.723C642.875 487.997 636.083 487.152 629.331 486.191C639.896 517.916 647.902 550.694 653.12 584.314C659.848 584.888 666.535 585.36 673.173 585.728C685.104 586.401 697.729 586.725 710.999 586.725C888.147 586.725 1048.53 519.637 1164.58 411.207C1280.71 302.708 1352.55 152.867 1352.55 -12.5705L1398.63 -12.5705C1398.63 4.01741 1397.96 20.458 1396.64 36.7288C1400.7 36.4403 1404.8 36.1825 1408.92 35.9553C1422.89 35.1906 1436.41 34.7966 1449.43 34.7966L1449.43 78.0156C1436.16 78.0156 1423.58 78.3632 1411.63 79.0121C1404.96 79.3821 1398.24 79.8572 1391.49 80.4338C1386.27 114.055 1378.28 146.831 1367.72 178.551C1374.49 177.59 1381.3 176.745 1388.14 176.017C1407.96 173.908 1428.39 172.842 1449.43 172.842L1449.43 215.899C1430.73 215.899 1411.97 216.919 1393.2 218.889C1378.6 220.442 1364.18 222.574 1350.01 225.283C1331.84 267.892 1308.93 308.251 1281.89 345.791C1332.7 323.335 1389.5 310.772 1449.43 310.772L1449.43 353.991C1353.86 353.991 1267.35 390.189 1204.72 448.702C1142.09 507.193 1103.34 588.046 1103.34 677.334L1103.37 685.074C1105.58 771.443 1144.64 850.442 1205.98 907.866C1267.07 965.105 1350.34 1000.77 1441.17 1000.77L1448.91 1000.75L1450 1043.8L1449.98 1043.83ZM658.279 628.014C659.602 644.292 660.276 660.74 660.276 677.334C660.276 689.523 659.854 702.153 659.035 715.223C658.795 719.042 658.519 722.83 658.212 726.59C675.634 725.354 693.238 724.725 710.999 724.725C724.045 724.725 737.563 725.119 751.553 725.883C755.639 726.108 759.693 726.365 763.716 726.653C762.394 710.382 761.721 693.943 761.721 677.357C761.721 665.168 762.143 652.538 762.962 639.468C763.203 635.642 763.479 631.847 763.787 628.081C746.372 629.315 728.776 629.944 711.023 629.944C697.977 629.944 684.459 629.55 670.47 628.785C666.374 628.56 662.311 628.302 658.279 628.014ZM1276.42 838.949C1320.7 880.337 1381.86 905.921 1449.43 905.921L1449.43 905.874L1449.43 862.632C1394.64 862.632 1345.03 841.892 1309.14 808.359C1273.22 774.827 1251.02 728.48 1251.02 677.289C1251.02 626.098 1273.22 579.774 1309.14 546.218C1345.03 512.686 1394.66 491.922 1449.43 491.922L1449.43 448.703C1381.86 448.703 1320.7 474.287 1276.42 515.675C1232.15 557.04 1204.76 614.187 1204.76 677.312C1204.76 740.437 1232.15 797.583 1276.42 838.949ZM1449.43 767.944C1422.66 767.944 1398.43 757.794 1380.87 741.41C1363.38 725.073 1352.54 702.409 1352.54 677.358C1352.54 652.284 1363.36 629.643 1380.87 613.306C1398.43 596.922 1422.69 586.772 1449.43 586.772L1449.43 629.991C1435.44 629.991 1422.76 635.297 1413.56 643.849C1404.34 652.469 1398.63 664.334 1398.63 677.358C1398.63 690.381 1404.34 702.246 1413.56 710.867C1422.74 719.441 1435.41 724.748 1449.43 724.748L1449.43 767.944ZM955.659 -12.5707C955.659 50.5545 928.276 107.701 883.977 149.066C839.702 190.431 778.536 216.015 710.971 216.015C643.406 216.015 582.24 190.431 537.966 149.066C493.666 107.701 466.283 50.5545 466.283 -12.5707L512.542 -12.5707C512.542 38.5969 534.766 84.9675 570.657 118.5C606.572 152.055 656.155 172.796 710.946 172.796C765.738 172.796 815.345 152.055 851.236 118.5C887.127 84.9675 909.326 38.6201 909.326 -12.5707L955.61 -12.5707L955.659 -12.5707ZM779.556 51.4815C797.093 35.0745 807.957 12.4338 807.957 -12.5707L761.722 -12.5707C761.722 0.522487 756.042 12.3643 746.865 20.9385C737.638 29.5592 724.939 34.8891 710.999 34.8891C697.059 34.8891 684.36 29.5591 675.133 20.9385C665.98 12.3411 660.3 0.499308 660.3 -12.5707L614.041 -12.5707C614.041 12.4338 624.905 35.0977 642.442 51.4815C659.928 67.8421 684.161 77.9459 710.999 77.9459C737.812 77.9459 762.07 67.8421 779.556 51.4815ZM851.292 1236.19C887.182 1269.72 909.382 1316.09 909.382 1367.26L909.431 1367.26L955.715 1367.26C955.715 1304.14 928.332 1246.99 884.032 1205.63C839.758 1164.26 778.592 1138.68 711.027 1138.68C643.462 1138.68 582.296 1164.26 538.021 1205.63C493.722 1246.99 466.339 1304.14 466.339 1367.26L512.597 1367.26C512.597 1316.07 534.822 1269.72 570.712 1236.19C606.603 1202.64 656.211 1181.9 711.002 1181.9C765.793 1181.9 815.376 1202.64 851.292 1236.19ZM761.7 1367.26C761.7 1354.19 756.02 1342.35 746.842 1333.75C737.615 1325.13 724.941 1319.8 710.976 1319.8C697.037 1319.8 684.337 1325.13 675.11 1333.75C665.958 1342.33 660.278 1354.17 660.278 1367.26L614.019 1367.26C614.019 1342.26 624.883 1319.62 642.419 1303.21C659.906 1286.87 684.164 1276.74 710.976 1276.74C737.814 1276.74 762.047 1286.85 779.534 1303.21C797.07 1319.62 807.934 1342.28 807.934 1367.26L761.7 1367.26ZM-27.4544 862.7C27.3121 862.7 76.9443 841.96 112.835 808.428C148.751 774.872 170.95 728.548 170.95 677.357C170.95 626.166 148.751 579.819 112.835 546.287C76.9443 512.754 27.337 491.991 -27.4544 491.991L-27.4544 448.772C40.1108 448.772 101.277 474.355 145.551 515.744C189.826 557.109 217.209 614.255 217.209 677.38C217.209 740.506 189.826 797.652 145.551 839.017C101.277 880.405 40.1108 905.989 -27.4544 905.989L-27.4544 862.747L-27.4544 862.7ZM8.4089 710.843C-0.768465 719.417 -13.468 724.724 -27.4573 724.724L-27.4573 767.92C-0.718906 767.92 23.5392 757.77 41.1001 741.386C58.6363 725.002 69.5003 702.362 69.5003 677.334C69.5003 652.329 58.6363 629.666 41.1001 613.282C23.5392 596.898 -0.694118 586.748 -27.4573 586.748L-27.4573 629.967C-13.4431 629.967 -0.743681 635.274 8.40891 643.825C17.5863 652.399 23.2662 664.264 23.2662 677.334C23.2662 690.427 17.5863 702.292 8.4089 710.843Z" fill="url(#paint0_linear_37_275)"/>
<defs>
<linearGradient id="paint0_linear_37_275" x1="1450" y1="677.322" x2="-28.0002" y2="677.322" gradientUnits="userSpaceOnUse">
<stop stop-color="#5D9388"/>
<stop offset="1" stop-color="#42766C"/>
</linearGradient>
</defs>
</svg>
