<svg width="1080" height="196" viewBox="0 0 1080 196" fill="none" xmlns="http://www.w3.org/2000/svg">
<path fill-rule="evenodd" clip-rule="evenodd" d="M863.17 -697.979L863.324 -690.672C863.324 -604.749 829.629 -526.052 775.567 -468.332C721.697 -410.817 647.479 -374.155 566.28 -372.076L559.01 -371.911C512.539 -371.911 468.505 -383.067 429.112 -403.008C450.083 -369.662 467.852 -333.818 481.948 -295.982C492.926 -293.581 504.087 -291.693 515.41 -290.331C529.546 -288.602 544.086 -287.737 559.01 -287.737C664.731 -287.737 760.45 -333.601 829.744 -407.748C899.039 -481.917 941.889 -584.369 941.889 -697.525H977.757C977.757 -573.767 930.888 -461.702 855.093 -380.617C779.317 -299.491 674.635 -249.325 559.01 -249.325C543.124 -249.325 527.257 -250.313 511.487 -252.228C506.191 -252.873 500.925 -253.623 495.689 -254.476C503.882 -226.295 510.088 -197.179 514.134 -167.314C519.35 -166.805 524.534 -166.385 529.681 -166.058C538.931 -165.461 548.721 -165.173 559.01 -165.173C696.368 -165.173 820.724 -224.767 910.713 -321.085C1000.76 -417.465 1056.46 -550.568 1056.46 -697.525H1092.19C1092.19 -682.78 1091.67 -668.166 1090.64 -653.703C1093.8 -653.96 1096.98 -654.192 1100.19 -654.401C1111.02 -655.1 1121.5 -655.45 1131.6 -655.45V-617.059C1121.31 -617.059 1111.56 -616.75 1102.29 -616.174C1097.11 -615.845 1091.9 -615.422 1086.65 -614.909C1082.61 -585.034 1076.4 -555.91 1068.22 -527.724C1073.47 -528.582 1078.76 -529.336 1084.07 -529.984C1099.44 -531.857 1115.29 -532.804 1131.6 -532.804V-494.578V-494.557C1117.1 -494.557 1102.56 -493.651 1088 -491.902C1076.67 -490.52 1065.48 -488.625 1054.48 -486.216C1040.64 -449.04 1023.26 -413.793 1002.78 -380.952C1040.24 -399.828 1081.72 -410.402 1125.17 -410.402L1132 -410.237L1131.15 -371.99L1131.17 -371.97L1125.17 -371.99C1054.72 -371.99 990.18 -340.289 942.811 -289.465C895.268 -238.455 864.958 -168.28 863.247 -91.5591L863.227 -84.6837C863.227 -5.36914 893.268 66.4525 941.83 118.409C990.392 170.387 1057.47 202.541 1131.58 202.541V240.932C1047.57 240.932 971.525 204.476 916.463 145.561C861.419 86.6465 827.359 5.23224 827.359 -84.6837L827.513 -92.4442C828.557 -139.158 838.93 -183.708 856.643 -223.877C825.431 -201.367 791.873 -182.297 756.446 -167.176C754.2 -155.417 752.435 -143.462 751.161 -131.333C749.545 -116.202 748.737 -100.64 748.737 -84.666C748.737 28.4905 791.587 130.943 860.862 205.111C930.157 279.279 1025.88 325.143 1131.6 325.143V363.534C1015.97 363.534 911.27 313.368 835.514 232.242C759.719 151.137 712.85 39.0919 712.85 -84.666C712.85 -101.669 713.773 -118.652 715.561 -135.532C716.165 -141.209 716.867 -146.854 717.666 -152.467C691.33 -143.695 664.119 -137.049 636.209 -132.717C635.734 -127.135 635.341 -121.587 635.036 -116.079C634.478 -106.177 634.209 -95.6994 634.209 -84.6864C634.209 62.3326 689.867 195.436 779.875 291.754C869.921 388.134 994.278 447.748 1131.58 447.748V485.975C1117.8 485.975 1104.15 485.416 1090.63 484.319C1090.87 487.705 1091.09 491.118 1091.29 494.559C1091.94 506.148 1092.27 517.367 1092.27 528.174H1056.4C1056.4 517.161 1056.11 506.724 1055.57 496.802C1055.26 491.255 1054.87 485.668 1054.39 480.045C1026.48 475.718 999.277 469.081 972.949 460.32C973.752 465.957 974.458 471.628 975.064 477.332C976.815 493.758 977.699 510.721 977.699 528.177H941.985H941.965C941.965 512.656 941.119 497.093 939.484 481.51C938.193 469.378 936.422 457.396 934.169 445.623C899.438 430.811 866.507 412.206 835.825 390.287C853.462 430.385 863.343 474.782 863.343 521.297L863.189 528.625L827.455 527.72H827.436L827.455 521.297C827.455 445.914 797.837 376.81 750.353 326.109C702.695 275.223 637.132 242.78 565.452 240.948L559.029 240.928C484.926 240.928 417.824 273.082 369.282 325.059C320.72 377.037 290.679 448.858 290.679 528.152H254.811C254.811 438.236 288.871 356.843 343.914 297.907C398.977 238.993 475.041 202.536 559.029 202.536L566.299 202.701C609.923 203.818 651.533 214.917 689.055 233.87C668.026 200.467 650.212 164.552 636.085 126.637C625.102 124.234 613.938 122.346 602.61 120.982C588.474 119.253 573.934 118.389 559.01 118.389C453.29 118.389 357.57 164.252 288.276 238.421C218.981 312.568 176.132 415.02 176.132 528.177H140.263C140.263 404.419 187.132 292.354 262.927 211.269C338.703 130.143 443.385 79.9973 559.01 79.9973C574.896 79.9973 590.763 80.9648 606.533 82.8792C611.833 83.5248 617.103 84.2756 622.342 85.1297C614.146 56.941 607.936 27.816 603.888 -2.05701C598.671 -2.56622 593.486 -2.98602 588.339 -3.31329C579.088 -3.91028 569.299 -4.19849 559.01 -4.19849C421.652 -4.19849 297.295 55.3954 207.307 151.713C117.261 248.093 61.5637 381.196 61.5637 528.154H25.8492C25.8492 513.418 26.3703 498.813 27.3939 484.359C24.2375 484.616 21.0559 484.846 17.8488 485.048C7.02099 485.728 -3.46067 486.078 -13.5577 486.078V447.686C-3.26834 447.686 6.48248 447.377 15.7525 446.801C20.9284 446.472 26.1425 446.049 31.3891 445.536C35.4309 415.671 41.6312 386.556 49.8151 358.379C44.5562 359.234 39.2664 359.986 33.9463 360.634C18.5989 362.508 2.7514 363.454 -13.5577 363.454V325.207C0.943552 325.207 15.4832 324.302 30.0422 322.552C41.3688 321.171 52.555 319.276 63.5461 316.868C77.6311 279.03 95.3874 243.189 116.344 209.85C76.9444 229.794 32.9059 240.952 -13.5577 240.952V202.561C60.5448 202.561 127.627 170.407 176.189 118.429C224.751 66.4723 254.792 -5.34924 254.792 -84.6638L254.773 -91.5392C253.061 -168.26 222.77 -238.435 175.208 -289.445C127.839 -340.29 63.2757 -371.97 -7.15327 -371.97L-13.1538 -371.95L-14 -410.197V-410.218L-7.15327 -410.382C73.1227 -410.382 146.648 -374.317 200.576 -316.452C254.311 -258.793 288.564 -179.355 290.506 -92.4243L290.66 -84.6638C290.66 -34.9432 280.246 12.1777 261.627 54.3323C292.774 31.8949 326.256 12.8826 361.598 -2.20038C363.842 -13.9516 365.605 -25.897 366.878 -38.0173C368.494 -53.1474 369.302 -68.7098 369.302 -84.6838C369.302 -197.84 326.452 -300.292 257.158 -374.461C187.882 -448.629 92.1628 -494.493 -13.5577 -494.493V-532.884C102.067 -532.884 206.769 -482.718 282.525 -401.592C358.32 -320.487 405.17 -208.442 405.17 -84.6838C405.17 -67.6805 404.266 -50.6978 402.477 -33.8179C401.875 -28.1489 401.174 -22.512 400.376 -16.9078C426.705 -25.6766 453.909 -32.3203 481.811 -36.6515C482.286 -42.2355 482.678 -47.785 482.984 -53.2942C483.542 -63.1956 483.811 -73.6735 483.811 -84.6865C483.811 -231.706 428.133 -364.809 338.145 -461.127C248.099 -557.506 123.742 -617.121 -13.5577 -617.121V-655.368C0.209031 -655.368 13.8534 -654.81 27.3569 -653.715C27.1175 -657.087 26.9035 -660.486 26.715 -663.91C26.0804 -675.499 25.7534 -686.718 25.7534 -697.525H61.6218C61.6218 -686.512 61.9103 -676.075 62.4488 -666.153C62.7559 -660.621 63.1502 -655.047 63.6287 -649.438C91.532 -645.112 118.734 -638.475 145.059 -629.715C144.261 -635.333 143.56 -640.982 142.956 -646.659C141.205 -663.107 140.321 -680.069 140.321 -697.525H176.055C176.055 -682.004 176.901 -666.442 178.536 -650.859C179.825 -638.742 181.594 -626.775 183.842 -615.016C219.204 -599.934 252.699 -580.92 283.855 -558.478C265.218 -600.651 254.792 -647.791 254.792 -697.527H290.66C290.66 -618.212 320.701 -546.411 369.263 -494.434C417.806 -442.456 484.908 -410.302 559.01 -410.302L565.434 -410.323C637.113 -412.155 702.676 -444.576 750.334 -495.483C797.838 -546.185 827.436 -615.289 827.436 -690.672L827.417 -697.094L863.151 -698L863.17 -697.979ZM518.078 -40.933C531.588 -42.0308 545.238 -42.5897 559.01 -42.5897C569.126 -42.5897 579.608 -42.2397 590.455 -41.5605C593.624 -41.3606 596.768 -41.1321 599.888 -40.8768C598.863 -55.3365 598.34 -69.9465 598.34 -84.6864C598.34 -95.5142 598.667 -106.733 599.302 -118.343C599.489 -121.734 599.702 -125.099 599.941 -128.437C586.437 -127.34 572.794 -126.782 559.029 -126.782C548.913 -126.782 538.431 -127.132 527.584 -127.811C524.409 -128.011 521.259 -128.24 518.133 -128.496C519.158 -114.043 519.68 -99.4402 519.68 -84.707C519.68 -73.8793 519.353 -62.6604 518.718 -51.0504C518.531 -47.6512 518.317 -44.279 518.078 -40.933ZM693.137 -553.944C727.487 -590.688 748.719 -641.451 748.719 -697.525H748.681H712.793C712.793 -652.053 695.58 -610.882 667.751 -581.096C639.921 -551.288 601.457 -532.865 558.972 -532.865C516.488 -532.865 478.042 -551.288 450.194 -581.096C422.365 -610.882 405.132 -652.073 405.132 -697.525H369.264C369.264 -641.451 390.496 -590.688 424.846 -553.944C459.175 -517.199 506.602 -494.473 558.992 -494.473C611.381 -494.473 658.808 -517.199 693.137 -553.944ZM634.209 -697.525C634.209 -675.314 625.785 -655.202 612.188 -640.628C598.629 -626.115 579.82 -617.12 559.03 -617.12C538.22 -617.12 519.43 -626.095 505.871 -640.628C492.274 -655.202 483.85 -675.334 483.85 -697.525H519.719C519.719 -685.915 524.123 -675.396 531.22 -667.759C538.374 -660.101 548.221 -655.367 559.03 -655.367C569.838 -655.367 579.685 -660.101 586.84 -667.759C593.956 -675.376 598.36 -685.895 598.36 -697.525H634.209ZM-13.5577 -287.736C38.8314 -287.736 86.2584 -265.01 120.588 -228.245C154.918 -191.5 176.151 -140.737 176.151 -84.6632C176.151 -28.5893 154.918 22.1736 120.588 58.9181C86.2584 95.6831 38.8314 118.409 -13.5577 118.409V80.0178C28.9075 80.0178 67.3915 61.5735 95.2207 31.7869C123.069 1.97961 140.282 -39.17 140.282 -84.6426C140.282 -130.115 123.069 -171.285 95.2207 -201.072C67.3915 -230.859 28.9267 -249.283 -13.5577 -249.283V-287.694V-287.736ZM39.6007 -141.584C25.9841 -156.137 7.19408 -165.154 -13.5577 -165.154V-126.783C-2.69137 -126.783 7.13638 -122.069 14.2524 -114.452C21.4068 -106.795 25.8303 -96.2551 25.8303 -84.6863C25.8303 -73.1174 21.4068 -62.5778 14.2524 -54.9201C7.11715 -47.3242 -2.71061 -42.6102 -13.5577 -42.6102V-4.21899C7.19408 -4.21899 26.0034 -13.2352 39.6007 -27.7889C53.1787 -42.3015 61.564 -62.4131 61.564 -84.6863C61.564 -106.939 53.1787 -127.071 39.6007 -141.584ZM1022.82 -201.118C1050.65 -230.905 1089.13 -249.329 1131.6 -249.329V-249.37V-287.782C1079.21 -287.782 1031.78 -265.056 997.451 -228.291C963.121 -191.546 941.889 -140.783 941.889 -84.7094C941.889 -28.6355 963.121 22.1274 997.451 58.8719C1031.78 95.6369 1079.21 118.363 1131.6 118.363V79.9716C1089.11 79.9716 1050.65 61.5273 1022.82 31.7407C994.97 1.95398 977.757 -39.2163 977.757 -84.6888C977.757 -130.161 994.97 -171.311 1022.82 -201.118ZM1131.6 -126.764C1120.75 -126.764 1110.92 -122.05 1103.79 -114.434C1096.63 -106.776 1092.21 -96.257 1092.21 -84.6675C1092.21 -73.0987 1096.63 -62.5591 1103.79 -54.9015C1110.9 -47.3055 1120.73 -42.5916 1131.6 -42.5916V-4.20026C1110.84 -4.20026 1092.05 -13.2166 1078.44 -27.7703C1064.88 -42.2828 1056.47 -62.415 1056.47 -84.6675C1056.47 -106.941 1064.86 -127.052 1078.44 -141.565C1092.05 -156.119 1110.86 -165.135 1131.6 -165.135V-126.764ZM712.85 528.173C712.85 482.721 695.637 441.53 667.807 411.743C639.959 381.936 601.513 363.512 559.029 363.512C516.545 363.512 478.08 381.936 450.251 411.743C422.421 441.53 405.189 482.7 405.189 528.173H369.321C369.321 472.099 390.553 421.336 424.902 384.591C459.232 347.847 506.659 325.121 559.048 325.121C611.437 325.121 658.864 347.847 693.194 384.591C727.543 421.336 748.776 472.099 748.776 528.173H712.888H712.85ZM586.82 498.409C593.936 506.026 598.34 516.565 598.34 528.175H634.189C634.189 505.984 625.765 485.852 612.168 471.278C598.571 456.724 579.781 447.708 559.01 447.708C538.258 447.708 519.449 456.724 505.851 471.278C492.254 485.852 483.83 505.964 483.83 528.175H519.699C519.699 516.545 524.103 506.005 531.2 498.409C538.316 490.793 548.163 486.079 559.01 486.079C569.876 486.079 579.723 490.793 586.82 498.409Z" fill="url(#paint0_linear_37_130)"/>
<defs>
<linearGradient id="paint0_linear_37_130" x1="559" y1="-698" x2="559" y2="528.625" gradientUnits="userSpaceOnUse">
<stop stop-color="#FF9685"/>
<stop offset="1" stop-color="#F87661"/>
</linearGradient>
</defs>
</svg>
